<?xml version="1.0" encoding="UTF-8"?>
<svg width="48px" height="48px" viewBox="0 0 48 48" version="1.1" xmlns="http://www.w3.org/2000/svg" xmlns:xlink="http://www.w3.org/1999/xlink">
    <title>icon/adjustment</title>
    <g id="icon/adjustment" stroke="none" stroke-width="1" fill="none" fill-rule="evenodd">
        <path d="M6.00000004,12 L28,12 C28,14.209139 29.790861,16 32,16 L36,16 C38.209139,16 40,14.209139 40,12 L42,12 C43.1045695,12 44,11.1045695 44,10 C44,8.8954305 43.1045695,8 42,8 L40,8 C40,5.790861 38.209139,4 36,4 L32,4 C29.790861,4 28,5.790861 28,8 L6.00000004,8 C4.89543052,8 4.00000004,8.89543052 4.00000004,10 C4.00000004,11.1045695 4.89543052,12 6.00000004,12 Z M33.0666667,8 L34.9333333,8 C35.5224371,8 36,8.47756293 36,9.06666667 L36,10.9333333 C36,11.5224371 35.5224371,12 34.9333333,12 L33.0666667,12 C32.4775629,12 32,11.5224371 32,10.9333333 L32,9.06666667 C32,8.47756293 32.4775629,8 33.0666667,8 Z M42,22 L24,22 C24,19.790861 22.209139,18 20,18 L16,18 C13.790861,18 12,19.790861 12,22 L6,22 C4.8954305,22 4,22.8954305 4,24 C4,25.1045695 4.8954305,26 6,26 L12,26 C12,28.209139 13.790861,30 16,30 L20,30 C22.209139,30 24,28.209139 24,26 L42,26 C43.1045695,26 44,25.1045695 44,24 C44,22.8954305 43.1045695,22 42,22 Z M16,24.9333333 L16,23.0666667 C16,22.4775629 16.4775629,22 17.0666667,22 L18.9333333,22 C19.5224371,22 20,22.4775629 20,23.0666667 L20,24.9333333 C20,25.5224371 19.5224371,26 18.9333333,26 L17.0666667,26 C16.4775629,26 16,25.5224371 16,24.9333333 Z M42,36 L36,36 C36,33.790861 34.209139,32 32,32 L28,32 C25.790861,32 24,33.790861 24,36 L6,36 C4.8954305,36 4,36.8954305 4,38 C4,39.1045695 4.8954305,40 6,40 L24,40 C24,42.209139 25.790861,44 28,44 L32,44 C34.209139,44 36,42.209139 36,40 L42,40 C43.1045695,40 44,39.1045695 44,38 C44,36.8954305 43.1045695,36 42,36 Z M28,38.9333333 L28,37.0666667 C28,36.4775629 28.4775629,36 29.0666667,36 L30.9333333,36 C31.5224371,36 32,36.4775629 32,37.0666667 L32,38.9333333 C32,39.5224371 31.5224371,40 30.9333333,40 L29.0666667,40 C28.4775629,40 28,39.5224371 28,38.9333333 Z" id="Color" fill="#333333"></path>
    </g>
</svg>