<?xml version="1.0" encoding="UTF-8"?>
<svg width="48px" height="48px" viewBox="0 0 48 48" version="1.1" xmlns="http://www.w3.org/2000/svg" xmlns:xlink="http://www.w3.org/1999/xlink">
    <title>icon/arrow right</title>
    <g id="icon/arrow-right" stroke="none" stroke-width="1" fill="none" fill-rule="evenodd">
        <path d="M3.99922568,24.0007743 C3.99922568,22.7204787 4.99367128,21.6715754 6.25502668,21.5788658 L6.43695768,21.5722046 L35.8362257,21.5727743 L26.0976704,11.0779504 C25.1837418,10.0930722 25.2442699,8.55656967 26.2328637,7.64607598 C27.1694262,6.78350302 28.6029431,6.79222463 29.5283311,7.63294422 L29.6776852,7.78076109 L43.4668074,22.6403527 C44.1787633,23.4075787 44.1787633,24.5939699 43.4668074,25.3611959 L29.6776852,40.2207875 C28.7637566,41.2056658 27.2214575,41.2659663 26.2328637,40.3554727 C25.2963011,39.4928997 25.192684,38.0684795 25.9614571,37.0835178 L26.0976704,36.9235982 L35.8352257,26.4297743 L6.43695768,26.4293441 C5.09063558,26.4293441 3.99922568,25.3420364 3.99922568,24.0007743 Z" id="Color" fill="#333333"></path>
    </g>
</svg>