<?xml version="1.0" encoding="UTF-8"?>
<svg width="48px" height="48px" viewBox="0 0 48 48" version="1.1" xmlns="http://www.w3.org/2000/svg" xmlns:xlink="http://www.w3.org/1999/xlink">
    <title>icon/arrow down</title>
    <g id="icon/arrow-down" stroke="none" stroke-width="1" fill="none" fill-rule="evenodd">
        <path d="M24,4 C25.2802956,4 26.3291989,4.9944456 26.4219085,6.255801 L26.4285698,6.437732 L26.428,35.837 L36.9228239,26.0984448 C37.9077021,25.1845161 39.4442046,25.2450442 40.3546983,26.233638 C41.2172713,27.1702005 41.2085497,28.6037174 40.3678301,29.5291054 L40.2200132,29.6784595 L25.3604216,43.4675817 C24.5931956,44.1795376 23.4068044,44.1795376 22.6395784,43.4675817 L7.77998677,29.6784595 C6.79510855,28.7645309 6.73480798,27.2222318 7.64530166,26.233638 C8.50787463,25.2970755 9.93229486,25.1934583 10.9172566,25.9622315 L11.0771761,26.0984448 L21.571,35.836 L21.5714302,6.437732 C21.5714302,5.0914099 22.658738,4 24,4 Z" id="Color" fill="#333333"></path>
    </g>
</svg>