<?xml version="1.0" encoding="UTF-8"?>
<svg width="48px" height="48px" viewBox="0 0 48 48" version="1.1" xmlns="http://www.w3.org/2000/svg" xmlns:xlink="http://www.w3.org/1999/xlink">
    <title>icon/arrow left</title>
    <g id="icon/arrow-left" stroke="none" stroke-width="1" fill="none" fill-rule="evenodd">
        <path d="M44.0007743,24.0007743 C44.0007743,25.2810699 43.0063287,26.3299732 41.7449733,26.4226828 L41.5630423,26.4293441 L12.1637743,26.4287743 L21.9023296,36.9235982 C22.8162582,37.9084764 22.7557301,39.444979 21.7671363,40.3554727 C20.8305738,41.2180456 19.3970569,41.209324 18.4716689,40.3686044 L18.3223148,40.2207875 L4.53319258,25.3611959 C3.82123671,24.5939699 3.82123671,23.4075787 4.53319258,22.6403527 L18.3223148,7.78076109 C19.2362434,6.79588287 20.7785425,6.7355823 21.7671363,7.64607598 C22.7036989,8.50864895 22.807316,9.93306918 22.0385429,10.9180309 L21.9023296,11.0779504 L12.1647743,21.5717743 L41.5630423,21.5722046 C42.9093644,21.5722046 44.0007743,22.6595123 44.0007743,24.0007743 Z" id="Color" fill="#333333"></path>
    </g>
</svg>