<?xml version="1.0" encoding="UTF-8"?>
<svg width="48px" height="48px" viewBox="0 0 48 48" version="1.1" xmlns="http://www.w3.org/2000/svg" xmlns:xlink="http://www.w3.org/1999/xlink">
    <title>icon/arrow up</title>
    <g id="icon/arrow-up" stroke="none" stroke-width="1" fill="none" fill-rule="evenodd">
        <path d="M24,44.0015486 C25.2802956,44.0015486 26.3291989,43.007103 26.4219085,41.7457476 L26.4285698,41.5638166 L26.428,12.1645486 L36.9228239,21.9031039 C37.9077021,22.8170325 39.4442046,22.7565044 40.3546983,21.7679106 C41.2172713,20.8313481 41.2085497,19.3978312 40.3678301,18.4724432 L40.2200132,18.3230891 L25.3604216,4.5339669 C24.5931956,3.82201103 23.4068044,3.82201103 22.6395784,4.5339669 L7.77998677,18.3230891 C6.79510855,19.2370177 6.73480798,20.7793169 7.64530166,21.7679106 C8.50787463,22.7044732 9.93229486,22.8080903 10.9172566,22.0393172 L11.0771761,21.9031039 L21.571,12.1655486 L21.5714302,41.5638166 C21.5714302,42.9101387 22.658738,44.0015486 24,44.0015486 Z" id="Color" fill="#333333"></path>
    </g>
</svg>