<?xml version="1.0" encoding="UTF-8"?>
<svg width="48px" height="48px" viewBox="0 0 48 48" version="1.1" xmlns="http://www.w3.org/2000/svg" xmlns:xlink="http://www.w3.org/1999/xlink">
    <title>icon/book</title>
    <g id="icon/book" stroke="none" stroke-width="1" fill="none" fill-rule="evenodd">
        <path d="M35,4 C38.3137084,4 41,6.6862915 41,10 L41,38 C41,41.3137084 38.3137084,44 35,44 L9,44 C7.8954305,44 7,43.1045695 7,42 L7,6 C7,4.8954305 7.8954305,4 9,4 L35,4 Z M13,8 L12,8 C11.4477153,8 11,8.44771525 11,9 L11,39 C11,39.5522847 11.4477153,40 12,40 L13,40 L13,8 Z M35,8 L16.999,7.999 L16.999,40 L35,40 C36.1045694,40 37,39.1045694 37,38 L37,10 C37,8.8954305 36.1045694,8 35,8 Z M32,33 C33.1045694,33 34,33.8954306 34,35 C34,36.1045694 33.1045694,37 32,37 L22,37 C20.8954306,37 20,36.1045694 20,35 C20,33.8954306 20.8954306,33 22,33 L32,33 Z M32,27 C33.1045694,27 34,27.8954306 34,29 C34,30.1045694 33.1045694,31 32,31 L22,31 C20.8954306,31 20,30.1045694 20,29 C20,27.8954306 20.8954306,27 22,27 L32,27 Z" id="Color" fill="#333333"></path>
    </g>
</svg>