<?xml version="1.0" encoding="UTF-8"?>
<svg width="48px" height="48px" viewBox="0 0 48 48" version="1.1" xmlns="http://www.w3.org/2000/svg" xmlns:xlink="http://www.w3.org/1999/xlink">
    <title>icon/business</title>
    <g id="icon/business" stroke="none" stroke-width="1" fill="none" fill-rule="evenodd">
        <path d="M26,5 C29.3137084,5 32,7.6862915 32,11 L38,11 C41.3137084,11 44,13.6862915 44,17 L44,37 C44,40.3137084 41.3137084,43 38,43 L10,43 C6.6862915,43 4,40.3137084 4,37 L4,17 C4,13.6862915 6.6862915,11 10,11 L16,11 C16,7.6862915 18.6862915,5 22,5 L26,5 Z M22,28 C21.4871641,28 21.0644928,27.6139599 21.0067277,27.1166211 L20.999,26.979 L7.999,21.923 L8,37 C8,38.1045694 8.8954305,39 10,39 L38,39 C39.1045694,39 40,38.1045694 40,37 L40,21.923 L26.999,26.979 L27,27 C27,27.5522848 26.5522848,28 26,28 L22,28 Z M38,15 L10,15 C8.8954305,15 8,15.8954305 8,17 L8,17.6318658 L21.0441882,22.7051171 C21.1700244,22.2967661 21.5503554,22 22,22 L26,22 C26.4496446,22 26.8299756,22.2967661 26.9558118,22.7051171 L40,17.6318658 L40,17 C40,15.8954305 39.1045694,15 38,15 Z M26,9 L22,9 C20.8954306,9 20,9.8954305 20,11 L28,11 C28,9.8954305 27.1045694,9 26,9 Z" id="Color" fill="#333333"></path>
    </g>
</svg>