<?xml version="1.0" encoding="UTF-8"?>
<svg width="48px" height="48px" viewBox="0 0 48 48" version="1.1" xmlns="http://www.w3.org/2000/svg" xmlns:xlink="http://www.w3.org/1999/xlink">
    <title>icon/calendar</title>
    <g id="icon/calendar" stroke="none" stroke-width="1" fill="none" fill-rule="evenodd">
        <path d="M32,6 C33.1045694,6 34,6.8954305 34,8 L38,8 C41.3137084,8 44,10.6862915 44,14 L44,36 C44,39.3137084 41.3137084,42 38,42 L10,42 C6.6862915,42 4,39.3137084 4,36 L4,14 C4,10.6862915 6.6862915,8 10,8 L14,8 C14,6.8954305 14.8954305,6 16,6 C17.1045695,6 18,6.8954305 18,8 L30,8 C30,6.8954305 30.8954306,6 32,6 Z M14,12 L10,12 C8.8954305,12 8,12.8954305 8,14 L8,35 C8,36.6568542 9.34314575,38 11,38 L37,38 C38.6568542,38 40,36.6568542 40,35 L40,14 C40,12.8954305 39.1045694,12 38,12 L34,12 C34,13.1045695 33.1045694,14 32,14 C30.8954306,14 30,13.1045695 30,12 L18,12 C18,13.1045695 17.1045695,14 16,14 C14.8954305,14 14,13.1045695 14,12 Z M18.4,32 C19.2836556,32 20,32.7163444 20,33.6 L20,34.4 C20,35.2836556 19.2836556,36 18.4,36 L17.6,36 C16.7163444,36 16,35.2836556 16,34.4 L16,33.6 C16,32.7163444 16.7163444,32 17.6,32 L18.4,32 Z M12.4,32 C13.2836556,32 14,32.7163444 14,33.6 L14,34.4 C14,35.2836556 13.2836556,36 12.4,36 L11.6,36 C10.7163444,36 10,35.2836556 10,34.4 L10,33.6 C10,32.7163444 10.7163444,32 11.6,32 L12.4,32 Z M24.4,32 C25.2836556,32 26,32.7163444 26,33.6 L26,34.4 C26,35.2836556 25.2836556,36 24.4,36 L23.6,36 C22.7163444,36 22,35.2836556 22,34.4 L22,33.6 C22,32.7163444 22.7163444,32 23.6,32 L24.4,32 Z M30.4,32 C31.2836556,32 32,32.7163444 32,33.6 L32,34.4 C32,35.2836556 31.2836556,36 30.4,36 L29.6,36 C28.7163444,36 28,35.2836556 28,34.4 L28,33.6 C28,32.7163444 28.7163444,32 29.6,32 L30.4,32 Z M18.4,25 C19.2836556,25 20,25.7163444 20,26.6 L20,27.4 C20,28.2836556 19.2836556,29 18.4,29 L17.6,29 C16.7163444,29 16,28.2836556 16,27.4 L16,26.6 C16,25.7163444 16.7163444,25 17.6,25 L18.4,25 Z M12.4,25 C13.2836556,25 14,25.7163444 14,26.6 L14,27.4 C14,28.2836556 13.2836556,29 12.4,29 L11.6,29 C10.7163444,29 10,28.2836556 10,27.4 L10,26.6 C10,25.7163444 10.7163444,25 11.6,25 L12.4,25 Z M24.4,25 C25.2836556,25 26,25.7163444 26,26.6 L26,27.4 C26,28.2836556 25.2836556,29 24.4,29 L23.6,29 C22.7163444,29 22,28.2836556 22,27.4 L22,26.6 C22,25.7163444 22.7163444,25 23.6,25 L24.4,25 Z M30.4,25 C31.2836556,25 32,25.7163444 32,26.6 L32,27.4 C32,28.2836556 31.2836556,29 30.4,29 L29.6,29 C28.7163444,29 28,28.2836556 28,27.4 L28,26.6 C28,25.7163444 28.7163444,25 29.6,25 L30.4,25 Z M36.4,25 C37.2836556,25 38,25.7163444 38,26.6 L38,27.4 C38,28.2836556 37.2836556,29 36.4,29 L35.6,29 C34.7163444,29 34,28.2836556 34,27.4 L34,26.6 C34,25.7163444 34.7163444,25 35.6,25 L36.4,25 Z M18.4,18 C19.2836556,18 20,18.7163444 20,19.6 L20,20.4 C20,21.2836556 19.2836556,22 18.4,22 L17.6,22 C16.7163444,22 16,21.2836556 16,20.4 L16,19.6 C16,18.7163444 16.7163444,18 17.6,18 L18.4,18 Z M24.4,18 C25.2836556,18 26,18.7163444 26,19.6 L26,20.4 C26,21.2836556 25.2836556,22 24.4,22 L23.6,22 C22.7163444,22 22,21.2836556 22,20.4 L22,19.6 C22,18.7163444 22.7163444,18 23.6,18 L24.4,18 Z M30.4,18 C31.2836556,18 32,18.7163444 32,19.6 L32,20.4 C32,21.2836556 31.2836556,22 30.4,22 L29.6,22 C28.7163444,22 28,21.2836556 28,20.4 L28,19.6 C28,18.7163444 28.7163444,18 29.6,18 L30.4,18 Z M36.4,18 C37.2836556,18 38,18.7163444 38,19.6 L38,20.4 C38,21.2836556 37.2836556,22 36.4,22 L35.6,22 C34.7163444,22 34,21.2836556 34,20.4 L34,19.6 C34,18.7163444 34.7163444,18 35.6,18 L36.4,18 Z" id="Color" fill="#333333"></path>
    </g>
</svg>