<?xml version="1.0" encoding="UTF-8"?>
<svg width="48px" height="48px" viewBox="0 0 48 48" version="1.1" xmlns="http://www.w3.org/2000/svg" xmlns:xlink="http://www.w3.org/1999/xlink">
    <title>icon/camera</title>
    <g id="icon/camera" stroke="none" stroke-width="1" fill="none" fill-rule="evenodd">
        <path d="M16,7 C17.0543618,7 17.9181651,7.81587779 17.9945143,8.85073766 L17.999,9 L38,9 C41.3137084,9 44,11.6862915 44,15 L44,35 C44,38.3137084 41.3137084,41 38,41 L10,41 C6.6862915,41 4,38.3137084 4,35 L4,15 C4,11.7616031 6.56557489,9.12242824 9.77506174,9.00413847 L10,9 C10,7.8954305 10.8954305,7 12,7 L16,7 Z M38,13 L10,13 C8.8954305,13 8,13.8954305 8,15 L8,35 C8,36.1045694 8.8954305,37 10,37 L38,37 C39.1045694,37 40,36.1045694 40,35 L40,15 C40,13.8954305 39.1045694,13 38,13 Z M24,17 C28.418278,17 32,20.581722 32,25 C32,29.418278 28.418278,33 24,33 C19.581722,33 16,29.418278 16,25 C16,20.581722 19.581722,17 24,17 Z M24,21 C21.790861,21 20,22.790861 20,25 C20,27.209139 21.790861,29 24,29 C26.209139,29 28,27.209139 28,25 C28,22.790861 26.209139,21 24,21 Z" id="Color" fill="#333333"></path>
    </g>
</svg>