<?xml version="1.0" encoding="UTF-8"?>
<svg width="48px" height="48px" viewBox="0 0 48 48" version="1.1" xmlns="http://www.w3.org/2000/svg" xmlns:xlink="http://www.w3.org/1999/xlink">
    <title>icon/clear</title>
    <g id="icon/clear" stroke="none" stroke-width="1" fill="none" fill-rule="evenodd">
        <path d="M24,4 C35.045695,4 44,12.954305 44,24 C44,35.045695 35.045695,44 24,44 C12.954305,44 4,35.045695 4,24 C4,12.954305 12.954305,4 24,4 Z M16.9289322,14.1005051 C16.1478836,13.3194565 14.8815536,13.3194565 14.1005051,14.1005051 C13.3605643,14.8404458 13.32162,16.01593 13.9836723,16.8017174 L14.1005051,16.9289322 L21.1707186,23.9997186 L14.1005051,31.0710678 C13.3194565,31.8521164 13.3194565,33.1184464 14.1005051,33.8994949 C14.8404458,34.6394357 16.01593,34.67838 16.8017174,34.0163277 L16.9289322,33.8994949 L23.9997186,26.8277186 L31.0710678,33.8994949 C31.8521164,34.6805435 33.1184464,34.6805435 33.8994949,33.8994949 C34.6394357,33.1595542 34.67838,31.98407 34.0163277,31.1982826 L33.8994949,31.0710678 L26.8277186,23.9997186 L33.8994949,16.9289322 C34.6805435,16.1478836 34.6805435,14.8815536 33.8994949,14.1005051 C33.1595542,13.3605643 31.98407,13.32162 31.1982826,13.9836723 L31.0710678,14.1005051 L23.9997186,21.1707186 L16.9289322,14.1005051 Z" id="Color" fill="#333333"></path>
    </g>
</svg>