<?xml version="1.0" encoding="UTF-8"?>
<svg width="48px" height="48px" viewBox="0 0 48 48" version="1.1" xmlns="http://www.w3.org/2000/svg" xmlns:xlink="http://www.w3.org/1999/xlink">
    <title>icon/close</title>
    <g id="icon/close" stroke="none" stroke-width="1" fill="none" fill-rule="evenodd">
        <path d="M14.1142234,9.87746202 L23.9991858,19.7630643 L33.8857766,9.87746202 C35.0557259,8.70751266 36.9525886,8.70751266 38.122538,9.87746202 C39.2924873,11.0474114 39.2924873,12.9442741 38.122538,14.1142234 L28.2363061,23.9991858 L38.122538,33.8857766 C39.2924873,35.0557259 39.2924873,36.9525886 38.122538,38.122538 C36.9525886,39.2924873 35.0557259,39.2924873 33.8857766,38.122538 L23.9991858,28.2363061 L14.1142234,38.122538 C12.9442741,39.2924873 11.0474114,39.2924873 9.87746202,38.122538 C8.70751266,36.9525886 8.70751266,35.0557259 9.87746202,33.8857766 L19.7630643,23.9991858 L9.87746202,14.1142234 C8.70751266,12.9442741 8.70751266,11.0474114 9.87746202,9.87746202 C11.0474114,8.70751266 12.9442741,8.70751266 14.1142234,9.87746202 Z" id="Color" fill="#333333"></path>
    </g>
</svg>