<?xml version="1.0" encoding="UTF-8"?>
<svg width="48px" height="48px" viewBox="0 0 48 48" version="1.1" xmlns="http://www.w3.org/2000/svg" xmlns:xlink="http://www.w3.org/1999/xlink">
    <title>icon/comment</title>
    <g id="icon/comment" stroke="none" stroke-width="1" fill="none" fill-rule="evenodd">
        <path d="M38,7 C41.3137084,7 44,9.6862915 44,13 L44,29 C44,32.3137084 41.3137084,35 38,35 L23.3333334,35 C22.900593,35 22.4795256,35.1403558 22.1333334,35.4 L15.2,40.6 C13.8815275,41.5888544 12,40.6480906 12,39 L12,35 L10,35 C6.6862915,35 4,32.3137084 4,29 L4,13 C4,9.6862915 6.6862915,7 10,7 L38,7 Z M38,11 L10,11 C8.8954305,11 8,11.8954305 8,13 L8,29 C8,30.1045694 8.8954305,31 10,31 L14,31 C15.1045695,31 16,31.8954306 16,33 L16,35 L19.7333333,32.2 C20.7719104,31.4210672 22.035112,31 23.3333334,31 L38,31 C39.1045694,31 40,30.1045694 40,29 L40,13 C40,11.8954305 39.1045694,11 38,11 Z M16,19 C17.1045695,19 18,19.8954305 18,21 C18,22.1045695 17.1045695,23 16,23 C14.8954305,23 14,22.1045695 14,21 C14,19.8954305 14.8954305,19 16,19 Z M24,19 C25.1045695,19 26,19.8954305 26,21 C26,22.1045695 25.1045695,23 24,23 C22.8954305,23 22,22.1045695 22,21 C22,19.8954305 22.8954305,19 24,19 Z M32,19 C33.1045695,19 34,19.8954305 34,21 C34,22.1045695 33.1045695,23 32,23 C30.8954305,23 30,22.1045695 30,21 C30,19.8954305 30.8954305,19 32,19 Z" id="Color" fill="#333333"></path>
    </g>
</svg>