<?xml version="1.0" encoding="UTF-8"?>
<svg width="48px" height="48px" viewBox="0 0 48 48" version="1.1" xmlns="http://www.w3.org/2000/svg" xmlns:xlink="http://www.w3.org/1999/xlink">
    <title>icon/control plus</title>
    <g id="icon/control-plus" stroke="none" stroke-width="1" fill="none" fill-rule="evenodd">
        <path d="M24,6 C25.5463973,6 26.8,7.2536027 26.8,8.8 L26.799,21.2 L39.2,21.2 C40.7463973,21.2 42,22.4536027 42,24 C42,25.5463973 40.7463973,26.8 39.2,26.8 L26.799,26.799 L26.8,39.2 C26.8,40.7463973 25.5463973,42 24,42 C22.4536027,42 21.2,40.7463973 21.2,39.2 L21.2,26.799 L8.8,26.8 C7.2536027,26.8 6,25.5463973 6,24 C6,22.4536027 7.2536027,21.2 8.8,21.2 L21.2,21.2 L21.2,8.8 C21.2,7.2536027 22.4536027,6 24,6 Z" id="Color" fill="#333333"></path>
    </g>
</svg>