<?xml version="1.0" encoding="UTF-8"?>
<svg width="48px" height="48px" viewBox="0 0 48 48" version="1.1" xmlns="http://www.w3.org/2000/svg" xmlns:xlink="http://www.w3.org/1999/xlink">
    <title>icon/contact</title>
    <g id="icon/contact" stroke="none" stroke-width="1" fill="none" fill-rule="evenodd">
        <path d="M32,4 C35.2383969,4 37.8775718,6.56557489 37.9958615,9.77506174 L38,10 C41.3137084,10 44,12.6862915 44,16 L44,38 C44,41.3137084 41.3137084,44 38,44 L16,44 C12.7616031,44 10.1224282,41.434425 10.0041385,38.2249383 L10,38 C6.76160315,38 4.12242824,35.434425 4.00413847,32.2249383 L4,32 L4,13 C4,8.02943725 8.02943725,4 13,4 L32,4 Z M38,14 L16,14 C14.8954305,14 14,14.8954305 14,16 L14,38 C14,39.1045694 14.8954305,40 16,40 L38,40 C39.1045694,40 40,39.1045694 40,38 L40,16 C40,14.8954305 39.1045694,14 38,14 Z M27,27 C34.664909,27 38.7608652,30.1857436 37.9838014,36.2540322 C37.8559778,37.2522384 37.0063572,38 36,38 L18,38 C16.9936428,38 16.1440222,37.2522384 16.0161987,36.2540322 C15.2391349,30.1857436 19.335091,27 27,27 Z M27.3445466,31.0019728 L27,31 C22.5747972,31 20.4714176,31.948219 20.0217264,34 L33.9782736,34 C33.5404164,32.0022132 31.5347618,31.0506705 27.3445466,31.0019728 Z M32,8 L14,8 C10.6862915,8 8,10.6862915 8,14 L8,32 C8,33.0543617 8.81587788,33.9181651 9.85073767,33.9945143 L10,34 L10,16 C10,12.6862915 12.6862915,10 16,10 L34,9.9989959 C33.999482,8.94507462 33.1837701,8.08178572 32.1492175,8.00548243 L32,8 Z M27,16 C29.7614238,16 32,18.2385763 32,21 C32,23.7614238 29.7614238,26 27,26 C24.2385762,26 22,23.7614238 22,21 C22,18.2385763 24.2385762,16 27,16 Z M27,20 C26.4477152,20 26,20.4477152 26,21 C26,21.5522848 26.4477152,22 27,22 C27.5522848,22 28,21.5522848 28,21 C28,20.4477152 27.5522848,20 27,20 Z" id="Color" fill="#333333"></path>
    </g>
</svg>