<?xml version="1.0" encoding="UTF-8"?>
<svg width="48px" height="48px" viewBox="0 0 48 48" version="1.1" xmlns="http://www.w3.org/2000/svg" xmlns:xlink="http://www.w3.org/1999/xlink">
    <title>icon/copy</title>
    <g id="icon/copy" stroke="none" stroke-width="1" fill="none" fill-rule="evenodd">
        <path d="M22,4 C22.0550221,4 22.1095253,4.00222188 22.1634247,4.00658081 L22,4 L22.1073791,4.00288192 L22.2715888,4.01830429 L22.4381702,4.04819457 L22.6024561,4.09240205 L22.690654,4.12303453 L22.6671316,4.11396822 C22.7765578,4.15267543 22.881611,4.20063606 22.9813506,4.25690973 L23.1671042,4.37583813 L23.2761051,4.4599968 L23.4142136,4.58578644 L30.828,11.999 L32,12 C32.530433,12 33.0391408,12.2107137 33.4142136,12.5857864 L39.4142136,18.5857864 C39.7892864,18.9608592 40,19.469567 40,20 L40,38 C40,41.3137084 37.3137084,44 34,44 L22,44 C18.6862915,44 16,41.3137084 16,38 L16,36 L14,36 C10.6862915,36 8,33.3137084 8,30 L8,10 C8,6.6862915 10.6862915,4 14,4 L22,4 Z M31,15.999 L22,16 C20.8954306,16 20,16.8954305 20,18 L20,38 C20,39.1045694 20.8954306,40 22,40 L34,40 C35.1045694,40 36,39.1045694 36,38 L36,21 L33,21 C31.8954306,21 31,20.1045694 31,19 L31,15.999 Z M32,34 C33.1045694,34 34,34.8954306 34,36 C34,37.1045694 33.1045694,38 32,38 L24,38 C22.8954306,38 22,37.1045694 22,36 C22,34.8954306 22.8954306,34 24,34 L32,34 Z M21.5885743,8 L14,8 L14,8 C12.8954305,8 12,8.8954305 12,10 L12,30 C12,31.1045694 12.8954305,32 14,32 L16,32 L16,18.0171043 C16,14.7136868 18.6702508,12.0316772 21.9736365,12.0171623 L26.0375922,11.9993054 L26.0375922,11.9993054 L22.2923045,8.2895327 C22.1050494,8.10405327 21.8521404,8 21.5885743,8 Z M32,28 C33.1045694,28 34,28.8954306 34,30 C34,31.1045694 33.1045694,32 32,32 L24,32 C22.8954306,32 22,31.1045694 22,30 C22,28.8954306 22.8954306,28 24,28 L32,28 Z" id="Color" fill="#333333"></path>
    </g>
</svg>