<?xml version="1.0" encoding="UTF-8"?>
<svg width="48px" height="48px" viewBox="0 0 48 48" version="1.1" xmlns="http://www.w3.org/2000/svg" xmlns:xlink="http://www.w3.org/1999/xlink">
    <title>icon/cut</title>
    <g id="icon/cut" stroke="none" stroke-width="1" fill="none" fill-rule="evenodd">
        <path d="M30.5797428,4.08647872 C31.6368288,4.40680781 32.2340884,5.52342335 31.9137592,6.58050936 L26.089,25.8 L28.3444077,33.2417796 C29.3564978,32.463137 30.6240364,32.0001586 31.9997093,32.0001586 C35.3133739,32.0001586 37.99963,34.6864147 37.99963,38.0000793 C37.99963,41.3137439 35.3133739,44 31.9997093,44 C29.480055,44 27.3231572,42.4468542 26.4341677,40.2457144 C26.2813145,40.0534643 26.1613459,39.8295773 26.0857386,39.5800732 L23.999,32.696 L21.9138913,39.5800732 C21.838284,39.8295773 21.7183155,40.0534643 21.5652391,40.2457151 C20.6764728,42.4468542 18.5195751,44 15.9999207,44 C12.686256,44 10,41.3137439 10,38.0000793 C10,34.6864147 12.686256,32.0001586 15.9999207,32.0001586 C17.3755936,32.0001586 18.6431322,32.463137 19.6552223,33.2417796 L21.909,25.8 L16.0858708,6.58050936 C15.7655417,5.52342335 16.3628011,4.40680781 17.4198871,4.08647872 C18.4769731,3.76614962 19.5935887,4.3634091 19.9139178,5.42049509 L23.999,18.904 L28.0857122,5.42049509 C28.4060413,4.3634091 29.5226568,3.76614962 30.5797428,4.08647872 Z M15.9999207,36.0001058 C14.8953658,36.0001058 13.9999471,36.8955245 13.9999471,38.0000793 C13.9999471,39.1046341 14.8953658,40.0000529 15.9999207,40.0000529 C17.1044756,40.0000529 17.9998943,39.1046341 17.9998943,38.0000793 C17.9998943,36.8955245 17.1044756,36.0001058 15.9999207,36.0001058 Z M31.9997093,36.0001058 C30.8951544,36.0001058 29.9997357,36.8955245 29.9997357,38.0000793 C29.9997357,39.1046341 30.8951544,40.0000529 31.9997093,40.0000529 C33.1042641,40.0000529 33.9996828,39.1046341 33.9996828,38.0000793 C33.9996828,36.8955245 33.1042641,36.0001058 31.9997093,36.0001058 Z" id="Color" fill="#333333"></path>
    </g>
</svg>