<?xml version="1.0" encoding="UTF-8"?>
<svg width="48px" height="48px" viewBox="0 0 48 48" version="1.1" xmlns="http://www.w3.org/2000/svg" xmlns:xlink="http://www.w3.org/1999/xlink">
    <title>icon/delete</title>
    <g id="icon/delete" stroke="none" stroke-width="1" fill="none" fill-rule="evenodd">
        <path d="M40,10 C41.1045694,10 42,10.8954305 42,12 C42,13.1045695 41.1045694,14 40,14 L38,14 L38,37 C38,40.8659932 34.8659932,44 31,44 L17,44 C13.1340068,44 10,40.8659932 10,37 L10,14 L8,14 C6.8954305,14 6,13.1045695 6,12 C6,10.8954305 6.8954305,10 8,10 L40,10 Z M34,14 L14,14 L14,36 C14,38.209139 15.790861,40 18,40 L30,40 C32.209139,40 34,38.209139 34,36 L34,14 Z M20,18 C21.1045694,18 22,18.8954305 22,20 L22,32 C22,33.1045694 21.1045694,34 20,34 C18.8954305,34 18,33.1045694 18,32 L18,20 C18,18.8954305 18.8954305,18 20,18 Z M28,18 C29.1045694,18 30,18.8954305 30,20 L30,32 C30,33.1045694 29.1045694,34 28,34 C26.8954306,34 26,33.1045694 26,32 L26,20 C26,18.8954305 26.8954306,18 28,18 Z M28,4 C29.1045694,4 30,4.8954305 30,6 C30,7.1045695 29.1045694,8 28,8 L20,8 C18.8954305,8 18,7.1045695 18,6 C18,4.8954305 18.8954305,4 20,4 L28,4 Z" id="Color" fill="#333333"></path>
    </g>
</svg>