<?xml version="1.0" encoding="UTF-8"?>
<svg width="48px" height="48px" viewBox="0 0 48 48" version="1.1" xmlns="http://www.w3.org/2000/svg" xmlns:xlink="http://www.w3.org/1999/xlink">
    <title>icon/document</title>
    <g id="icon/document" stroke="none" stroke-width="1" fill="none" fill-rule="evenodd">
        <path d="M28.5950621,4 C29.6701061,4 30.699898,4.43273417 31.4522577,5.2006369 L38.8571955,12.7585544 C39.5897205,13.5062127 40,14.5112151 40,15.5579175 L40,37.5071323 C40,41.093044 37.1518836,44 33.6385542,44 L14.3614458,44 C10.8481163,44 8,41.093044 8,37.5071323 L8,10.4928677 C8,6.90695588 10.8481163,4 14.3614458,4 L28.5950621,4 Z M28.5192579,8.32857846 L14.3614458,8.32857846 C13.190336,8.32857846 12.2409639,9.29756375 12.2409639,10.4928677 L12.2409639,37.5071323 C12.2409639,38.7024361 13.190336,39.6714215 14.3614458,39.6714215 L33.6385542,39.6714215 C34.8096639,39.6714215 35.7590361,38.7024361 35.7590361,37.5071323 L35.7590361,15.7179241 L31.5192579,15.7179241 C29.8624037,15.7179241 28.5192579,14.3747783 28.5192579,12.7179241 L28.5192579,8.32857846 Z M30.5180723,32.0668962 C31.689182,32.0668962 32.6385542,33.0358816 32.6385542,34.2311854 C32.6385542,35.4264893 31.689182,36.3954747 30.5180723,36.3954747 L17.4819277,36.3954747 C16.3108179,36.3954747 15.3614458,35.4264893 15.3614458,34.2311854 C15.3614458,33.0358816 16.3108179,32.0668962 17.4819277,32.0668962 L30.5180723,32.0668962 Z M30.5180723,25.5740285 C31.689182,25.5740285 32.6385542,26.5430139 32.6385542,27.7383178 C32.6385542,28.9336216 31.689182,29.902607 30.5180723,29.902607 L17.4819277,29.902607 C16.3108179,29.902607 15.3614458,28.9336216 15.3614458,27.7383178 C15.3614458,26.5430139 16.3108179,25.5740285 17.4819277,25.5740285 L30.5180723,25.5740285 Z M30.5180723,19.0811608 C31.689182,19.0811608 32.6385542,20.0501462 32.6385542,21.2454501 C32.6385542,22.4407539 31.689182,23.4097393 30.5180723,23.4097393 L17.4819277,23.4097393 C16.3108179,23.4097393 15.3614458,22.4407539 15.3614458,21.2454501 C15.3614458,20.0501462 16.3108179,19.0811608 17.4819277,19.0811608 L30.5180723,19.0811608 Z" id="Color" fill="#333333"></path>
    </g>
</svg>