<?xml version="1.0" encoding="UTF-8"?>
<svg width="48px" height="48px" viewBox="0 0 48 48" version="1.1" xmlns="http://www.w3.org/2000/svg" xmlns:xlink="http://www.w3.org/1999/xlink">
    <title>icon/download</title>
    <g id="icon/download" stroke="none" stroke-width="1" fill="none" fill-rule="evenodd">
        <path d="M22.6492659,43.4460324 L16.6035029,37.4110329 C15.8615067,36.6703577 15.8615067,35.469486 16.6035029,34.7288108 C17.345499,33.9881357 18.5485125,33.9881357 19.2905087,34.7288108 L22.1,37.5331437 L22.1,22.0178652 C22.1,20.9703923 22.950659,20.1212478 24,20.1212478 C25.049341,20.1212478 25.9,20.9703923 25.9,22.0178652 L25.9,37.5521099 L28.7292659,34.7288108 C29.471262,33.9881357 30.6742755,33.9881357 31.4162716,34.7288108 C32.1582678,35.469486 32.1582678,36.6703577 31.4162716,37.4110329 L25.3705087,43.4460324 C25.0190368,43.7968786 24.5641234,43.9815344 24.1037657,44 L23.9160089,44 C23.4556511,43.9815344 23.0007377,43.7968786 22.6492659,43.4460324 Z M29.6435644,4 C35.1874777,4 39.7311803,8.27478749 40.1471652,13.7024236 L40.1645102,13.9747516 L40.175396,14.3027636 L40.2559392,14.3825432 C41.8503712,16.0039453 42.8303945,18.1508032 42.9799542,20.4662496 L42.9951809,20.7830037 L43,21.0883349 C43,26.2894006 38.8465803,30.5221102 33.6700219,30.6617558 L30.650589,30.6645495 C29.6489457,30.6648592 28.8280923,29.8914097 28.7552555,28.9100659 L28.75,28.7679322 L28.75,28.4346159 C28.75,27.3882006 29.5990062,26.5394947 30.6472867,26.5380004 L33.4059406,26.5340679 C36.3488311,26.5340679 38.7474736,24.2080133 38.8574468,21.2972196 L38.8613861,21.0883349 C38.8613861,19.4874107 38.1672749,18.0042547 36.9856255,16.9788745 L36.7950279,16.8208262 L36.3489138,16.4674339 C36.0872514,16.2601563 35.9462702,15.9359831 35.9730842,15.6032486 L36.0187041,15.0371521 L36.0187041,15.0371521 C36.0326073,14.8646278 36.039604,14.6908012 36.039604,14.5158984 C36.039604,10.9897521 33.1759995,8.13124579 29.6435644,8.13124579 C27.8714829,8.13124579 26.220613,8.85216547 25.0240446,10.1004013 L24.8389367,10.301845 L24.278717,10.9379021 C23.9721149,11.2860093 23.4663703,11.3775621 23.0571918,11.1590297 L22.3086661,10.7592602 L22.3086661,10.7592602 C21.3906201,10.2689539 20.3649113,10.0090848 19.2970297,10.0090848 C15.7645946,10.0090848 12.9009901,12.8675911 12.9009901,16.3937374 C12.9009901,16.603428 12.9110468,16.8114695 12.9309751,17.017214 L12.9682483,17.3240271 L13.0972175,18.2051784 C13.1673599,18.684409 12.883987,19.1450175 12.4246047,19.2984771 L11.5773813,19.5814976 L11.5773813,19.5814976 C10.1328823,20.0640419 9.13861386,21.4202041 9.13861386,22.9661739 C9.13861386,24.8750894 10.6404106,26.4338661 12.5289405,26.5294254 L12.7128713,26.5340679 L17.35,26.5338149 C18.3516437,26.5334207 19.1722992,27.3070645 19.2448847,28.2884264 L19.2497475,28.4303285 L19.2497077,28.7294609 C19.2495685,29.7757788 18.4006014,30.6243316 17.3524184,30.6258243 L14.6339481,30.6341715 C14.0744964,30.6387745 13.6081464,30.6449477 13.2600074,30.6530039 L12.975815,30.6608876 L12.7128713,30.6653137 C8.4531701,30.6653137 5,27.2182914 5,22.9661739 C5,20.3388715 6.33024811,17.9665553 8.41974032,16.5682473 L8.64649375,16.4221884 L8.76237624,16.3524249 L8.76581693,16.1223173 C8.90542066,10.6218576 13.2761516,6.171021 18.7505028,5.89174653 L19.0251256,5.88127357 L19.2970297,5.877839 C20.2832296,5.877839 21.2512408,6.01377665 22.1791285,6.27673185 L22.5742743,6.39717751 L22.8383663,6.48813667 L22.8744166,6.45778885 C24.5779439,5.02971581 26.7038899,4.16386492 28.9741047,4.02101546 L29.3156842,4.00503065 L29.6435644,4 Z" id="Shape" fill="#333333"></path>
    </g>
</svg>