<?xml version="1.0" encoding="UTF-8"?>
<svg width="48px" height="48px" viewBox="0 0 48 48" version="1.1" xmlns="http://www.w3.org/2000/svg" xmlns:xlink="http://www.w3.org/1999/xlink">
    <title>icon/edit file</title>
    <g id="icon/edit-file" stroke="none" stroke-width="1" fill="none" fill-rule="evenodd">
        <path d="M24.5950621,4 C25.6701061,4 26.699898,4.43273417 27.4522577,5.2006369 L34.8571955,12.7585544 C35.5897205,13.5062127 36,14.5112151 36,15.5579175 L36,16.568555 C36,16.8439172 35.8864538,17.1070938 35.6861348,17.2960294 L32.0962301,20.6819334 C32.0158755,20.7577217 31.8892966,20.7540201 31.8135083,20.6736655 C31.7785013,20.6365493 31.7590028,20.5874576 31.7590032,20.5364371 L31.7590361,15.7179241 L27.5192579,15.7179241 C25.8624037,15.7179241 24.5192579,14.3747783 24.5192579,12.7179241 L24.5192579,8.32857846 L10.3614458,8.32857846 C9.19033595,8.32857846 8.24096386,9.29756375 8.24096386,10.4928677 L8.24096386,37.5071323 C8.24096386,38.7024361 9.19033595,39.6714215 10.3614458,39.6714215 L29.6385542,39.6714215 C30.3389186,39.6714215 30.9599795,39.3248682 31.3461072,38.7906064 L31.4376546,38.6532222 C31.4956491,38.5585837 32.903465,37.1829714 35.6611022,34.5263854 C35.7406094,34.449597 35.8673091,34.4519617 35.9439965,34.5315662 C35.9799261,34.5688624 36,34.6186337 36,34.6704211 L36,37.5071323 C36,41.093044 33.1518836,44 29.6385542,44 L10.3614458,44 C6.84811629,44 4,41.093044 4,37.5071323 L4,10.4928677 C4,6.90695588 6.84811629,4 10.3614458,4 L24.5950621,4 Z M38.3733011,17.568272 L38.5523484,17.5739672 C39.1352693,17.6110911 39.7087931,17.8297097 40.181036,18.229823 L40.3532,18.388373 L43.1816272,21.2168002 C44.229534,22.264707 44.2731968,23.9365711 43.3126155,25.0364744 L43.1816272,25.1765981 L31.4537051,36.9045202 C30.9763398,37.3818855 30.3443554,37.6690833 29.6754633,37.7173559 L29.4738061,37.7246212 L23.845379,37.7246212 L23.845379,32.0961941 C23.845379,31.4210976 24.08918,30.7711376 24.5280242,30.2640255 L24.66548,30.1162951 L36.3934021,18.388373 C36.890433,17.8913421 37.5278346,17.6202343 38.1779971,17.5750497 L38.3733011,17.568272 Z M19.5180723,32.0668962 C20.689182,32.0668962 21.6385542,33.0358816 21.6385542,34.2311854 C21.6385542,35.4264893 20.689182,36.3954747 19.5180723,36.3954747 L13.4819277,36.3954747 C12.3108179,36.3954747 11.3614458,35.4264893 11.3614458,34.2311854 C11.3614458,33.0358816 12.3108179,32.0668962 13.4819277,32.0668962 L19.5180723,32.0668962 Z M34.1293788,25.741272 L27.445,32.427 L27.445,34.124 L29.142,34.124 L35.8263788,27.438272 L34.1293788,25.741272 Z M20.5180723,25.5740285 C21.689182,25.5740285 22.6385542,26.5430139 22.6385542,27.7383178 C22.6385542,28.9336216 21.689182,29.902607 20.5180723,29.902607 L13.4819277,29.902607 C12.3108179,29.902607 11.3614458,28.9336216 11.3614458,27.7383178 C11.3614458,26.5430139 12.3108179,25.5740285 13.4819277,25.5740285 L20.5180723,25.5740285 Z M38.373,21.499 L36.676,23.196 L38.373,24.893 L40.07,23.196 L38.373,21.499 Z M26.5180723,19.0811608 C27.689182,19.0811608 28.6385542,20.0501462 28.6385542,21.2454501 C28.6385542,22.4407539 27.689182,23.4097393 26.5180723,23.4097393 L13.4819277,23.4097393 C12.3108179,23.4097393 11.3614458,22.4407539 11.3614458,21.2454501 C11.3614458,20.0501462 12.3108179,19.0811608 13.4819277,19.0811608 L26.5180723,19.0811608 Z" id="Color" fill="#333333"></path>
    </g>
</svg>