<?xml version="1.0" encoding="UTF-8"?>
<svg width="48px" height="48px" viewBox="0 0 48 48" version="1.1" xmlns="http://www.w3.org/2000/svg" xmlns:xlink="http://www.w3.org/1999/xlink">
    <title>icon/error</title>
    <g id="icon/error" stroke="none" stroke-width="1" fill="none" fill-rule="evenodd">
        <path d="M24,34 C26.4852814,34 28.5,36.0147186 28.5,38.5 C28.5,40.9852814 26.4852814,43 24,43 C21.5147186,43 19.5,40.9852814 19.5,38.5 C19.5,36.0147186 21.5147186,34 24,34 Z M24,5 C26.5571644,5 28.6301557,7.07299132 28.6301557,9.6301557 C28.6301557,9.74865885 28.6256063,9.86711833 28.6165175,9.98527243 L27.2300895,28.0088365 C27.1002557,29.6966756 25.6928253,31 24,31 C22.3071747,31 20.8997443,29.6966756 20.7699105,28.0088365 L19.3834825,9.98527243 C19.1873569,7.43564021 21.0952511,5.20976375 23.6448833,5.01363819 C23.7630374,5.00454941 23.8814968,5 24,5 Z" id="Color" fill="#333333"></path>
    </g>
</svg>