<?xml version="1.0" encoding="UTF-8"?>
<svg width="48px" height="48px" viewBox="0 0 48 48" version="1.1" xmlns="http://www.w3.org/2000/svg" xmlns:xlink="http://www.w3.org/1999/xlink">
    <title>icon/expand</title>
    <g id="icon/expand" stroke="none" stroke-width="1" fill="none" fill-rule="evenodd">
        <path d="M21.42,26.58 C21.7986253,26.9555332 22.0115966,27.4667249 22.0115966,28 C22.0115966,28.5332751 21.7986253,29.0444668 21.42,29.42 L10.82,40 L16,40 C17.1045695,40 18,40.8954305 18,42 C18,43.1045695 17.1045695,44 16,44 L6,44 C4.8954305,44 4,43.1045695 4,42 L4,32 C4,30.8954305 4.8954305,30 6,30 C7.1045695,30 8,30.8954305 8,32 L8,37.18 L18.58,26.58 C18.9555332,26.2013747 19.4667249,25.9884034 20,25.9884034 C20.5332751,25.9884034 21.0444668,26.2013747 21.42,26.58 L21.42,26.58 Z M42,4 L32,4 C30.8954305,4 30,4.8954305 30,6 C30,7.1045695 30.8954305,8 32,8 L37.18,8 L26.58,18.58 C26.2013747,18.9555332 25.9884034,19.4667249 25.9884034,20 C25.9884034,20.5332751 26.2013747,21.0444668 26.58,21.42 C26.9555332,21.7986253 27.4667249,22.0115966 28,22.0115966 C28.5332751,22.0115966 29.0444668,21.7986253 29.42,21.42 L40,10.82 L40,16 C40,17.1045695 40.8954305,18 42,18 C43.1045695,18 44,17.1045695 44,16 L44,6 C44,4.8954305 43.1045695,4 42,4 Z" id="Color" fill="#333333"></path>
    </g>
</svg>