<?xml version="1.0" encoding="UTF-8"?>
<svg width="48px" height="48px" viewBox="0 0 48 48" version="1.1" xmlns="http://www.w3.org/2000/svg" xmlns:xlink="http://www.w3.org/1999/xlink">
    <title>icon/favorite</title>
    <g id="icon/favorite" stroke="none" stroke-width="1" fill="none" fill-rule="evenodd">
        <path d="M33.0512821,7.99960134 L14.948718,7.99960134 C14.3964332,7.99960134 13.948718,8.44731659 13.948718,8.99960134 L13.948718,36.4726635 L22.4832554,28.7171675 C23.2725945,27.757755 24.7274056,27.757755 25.5167446,28.7171675 L34.0512821,36.4726635 L34.0512821,8.99960134 C34.0512821,8.44731659 33.6035668,7.99960134 33.0512821,7.99960134 Z M24,33.1211972 L13.4911036,43.276454 C12.3089316,44.7133405 10,43.8666199 10,41.9962128 L10,7.99960134 C10,5.79068252 11.7679012,4 13.948718,4 L34.0512821,4 C36.2320988,4 38,5.79068252 38,7.99960134 L38,41.9962128 C38,43.8666199 35.6910684,44.7133405 34.5088965,43.276454 L24,33.1211972 Z" id="Color" fill="#333333"></path>
    </g>
</svg>