<?xml version="1.0" encoding="UTF-8"?>
<svg width="48px" height="48px" viewBox="0 0 48 48" version="1.1" xmlns="http://www.w3.org/2000/svg" xmlns:xlink="http://www.w3.org/1999/xlink">
    <title>icon/file</title>
    <g id="icon/file" stroke="none" stroke-width="1" fill="none" fill-rule="evenodd">
        <path d="M28.1715728,8 L15,8 C13.8954305,8 13,8.8954305 13,10 L13,38 C13,39.1045694 13.8954305,40 15,40 L33,40 C34.1045694,40 35,39.1045694 35,38 L35,14.8284271 L31.1715728,14.8284271 C29.5147186,14.8284271 28.1715728,13.4852814 28.1715728,11.8284271 L28.1715728,8 L28.1715728,8 Z M15,4 L29,4 C29.530433,4 30.0391408,4.21071368 30.4142136,4.58578644 L38.4142136,12.5857864 C38.7892864,12.9608592 39,13.469567 39,14 L39,38 C39,41.3137084 36.3137084,44 33,44 L15,44 C11.6862915,44 9,41.3137084 9,38 L9,10 C9,6.6862915 11.6862915,4 15,4 Z" id="Color" fill="#333333"></path>
    </g>
</svg>