<?xml version="1.0" encoding="UTF-8"?>
<svg width="48px" height="48px" viewBox="0 0 48 48" version="1.1" xmlns="http://www.w3.org/2000/svg" xmlns:xlink="http://www.w3.org/1999/xlink">
    <title>icon/filter</title>
    <g id="icon/filter" stroke="none" stroke-width="1" fill="none" fill-rule="evenodd">
        <path d="M40.6743506,4 L7.32589314,4 C6.62680448,4 5.94549347,4.22030471 5.37875681,4.62961452 L5.22364967,4.74860026 C3.86762764,5.85272291 3.59289072,7.83698462 4.62985822,9.27278577 L16.5174106,25.7331191 L16.5174106,40.677619 C16.5174106,41.4327792 16.7744193,42.165454 17.2461641,42.755135 C18.393545,44.189361 20.4863508,44.4218958 21.9205768,43.274515 L30.2347004,36.623216 L30.3986563,36.48311 C31.0868575,35.8553204 31.4828331,34.9644354 31.4828331,34.02632 L31.4828331,25.7320798 L43.3703855,9.27278577 C43.7796953,8.70604911 44,8.0247381 44,7.32564944 C44,5.48894397 42.511056,4 40.6743506,4 Z M9.76426374,8.57276797 L38.2349407,8.57276797 L26.9100651,24.2538504 L26.9100651,33.426274 L21.0901786,38.082183 L21.0901786,24.2538504 L9.76426374,8.57276797 Z" id="Rectangle" fill="#333333"></path>
    </g>
</svg>