<?xml version="1.0" encoding="UTF-8"?>
<svg width="48px" height="48px" viewBox="0 0 48 48" version="1.1" xmlns="http://www.w3.org/2000/svg" xmlns:xlink="http://www.w3.org/1999/xlink">
    <title>icon/fire</title>
    <g id="icon/fire" stroke="none" stroke-width="1" fill="none" fill-rule="evenodd">
        <path d="M13.6199263,21.6782929 C13.6959253,21.9022899 13.6959253,21.9022899 13.7819241,22.1542866 C14.1199197,23.1462736 14.3939161,23.8642642 14.7319117,24.5902547 C15.4079028,26.0382357 16.1198935,26.9322239 16.6298868,27.1022217 C18.3718639,27.6822141 19.9998426,26.5962284 19.9998426,25.0002493 C19.9998426,24.7482526 19.9298435,24.4662563 19.7638456,24.0902612 C19.659847,23.8542643 19.5198488,23.5882678 19.3198515,23.2362724 C19.2238527,23.0682746 18.7978583,22.3442841 18.6858598,22.1482867 C17.0838808,19.3563233 16.4718888,17.0063542 17.0278815,13.6723979 C17.7918715,9.08845807 19.8078451,5.86050043 23.1058018,4.21252205 C24.2857863,3.62252979 25.7017677,4.31652068 25.9617643,5.60850373 C26.5817562,8.70446311 27.4917443,11.1304313 28.6637289,12.8904082 C29.3617197,13.9363945 29.9817116,14.5003871 31.2336952,15.3363761 C32.081684,15.8903688 32.5796775,16.2243644 33.1016706,16.6043595 C33.90966,17.1943517 34.6536503,17.8263434 35.4136403,18.5863335 C38.7315968,21.9042899 39.9995801,24.4602564 39.9995801,28.0002099 C39.9995801,36.836094 32.8356741,44 23.9997901,44 C15.163906,44 8,36.836094 8,28.0002099 C8,25.4922428 8.57799242,23.0622747 9.67597801,20.8643036 C9.67597801,20.8643036 12.1219459,16.5023608 13.6199263,21.6782929 L13.6199263,21.6782929 Z M11.9999475,28.0002099 C11.9999475,34.628123 17.371877,40.0000525 23.9997901,40.0000525 C30.6277031,40.0000525 35.9996326,34.628123 35.9996326,28.0002099 C35.9996326,25.632241 35.207643,24.0382619 32.5856774,21.4142963 C31.5216914,20.3503103 31.2896944,20.1803125 29.0157243,18.6643324 C27.361746,17.5623469 26.369759,16.6603587 25.3357725,15.1103791 C24.3057861,13.5663993 23.467797,11.7064237 22.8138056,9.5284523 C21.9318172,10.6844371 21.3158253,12.2684163 20.9738298,14.3303893 C20.5918348,16.6283591 20.9738298,18.1003398 22.1558143,20.1603128 C22.253813,20.3303106 22.6818074,21.058301 22.7918059,21.2542984 C23.0558025,21.7142924 23.2517999,22.0902875 23.4217977,22.4722825 C23.7977927,23.3202713 23.9997901,24.1342607 23.9997901,25.0002493 C23.9997901,29.4041915 19.6278474,32.3181533 15.3679033,30.8981719 C13.9899214,30.4381779 12.9139355,29.4161914 11.9999475,27.9482106 L11.9999475,28.0002099 Z" id="Color" fill="#333333"></path>
    </g>
</svg>