<?xml version="1.0" encoding="UTF-8"?>
<svg width="48px" height="48px" viewBox="0 0 48 48" version="1.1" xmlns="http://www.w3.org/2000/svg" xmlns:xlink="http://www.w3.org/1999/xlink">
    <title>icon/folder</title>
    <g id="icon/folder" stroke="none" stroke-width="1" fill="none" fill-rule="evenodd">
        <path d="M19.3014289,6 C20.9779107,6 22.5370535,6.83962589 23.4612419,8.22580868 L23.5888935,8.42752122 L25.132,11 L39,11 C41.6140671,11 43.7595988,13.0060384 43.9811372,15.5626572 L43.9953805,15.7831104 L44,16 L44,36 C44,39.2383969 41.4344251,41.8775718 38.2249383,41.9958615 L38,42 L10,42 C6.76160306,42 4.12242824,39.4344251 4.00413847,36.2249383 L4,36 L4,12 C4,8.76160306 6.56557489,6.12242824 9.77506174,6.00413847 L10,6 L19.3014289,6 Z M40,22 L12,22 C9.85780461,22 8.10892112,23.6839685 8.00489531,25.8003597 L8,26 L8,36 C8,37.0543618 8.81587779,37.9181651 9.85073766,37.9945143 L10,38 L38,38 C39.0543618,38 39.9181651,37.1841222 39.9945143,36.1492623 L40,36 L40,22 Z M19.3014289,10 L10,10 C8.9456382,10 8.08183488,10.8158778 8.00548574,11.8507377 L7.99984002,12 L7.99984002,19.0703501 C9.08605198,18.4419769 10.3337196,18.061663 11.6653799,18.0068714 L12,18 L40,18 L40,16 C40,15.4871642 39.6139598,15.0644928 39.1166211,15.0067277 L39,15 L24.5661904,15 C23.5782636,15 22.6582482,14.5140558 22.1003713,13.708756 L21.9937116,13.5434873 L20.1589218,10.4855042 C20.0007889,10.2219495 19.7318062,10.0479014 19.4317126,10.0085074 L19.3014289,10 Z" id="Color" fill="#333333"></path>
    </g>
</svg>