<?xml version="1.0" encoding="UTF-8"?>
<svg width="48px" height="48px" viewBox="0 0 48 48" version="1.1" xmlns="http://www.w3.org/2000/svg" xmlns:xlink="http://www.w3.org/1999/xlink">
    <title>icon/group</title>
    <g id="icon/group" stroke="none" stroke-width="1" fill="none" fill-rule="evenodd">
        <path d="M30.0005773,25.0014083 C40.1049282,25.0014083 45.0413354,30.0079154 43.8163525,39.2648982 C43.6847412,40.2594614 42.8367155,41.0026601 41.8334822,41.0026601 L18.1676725,41.0026601 C17.164439,41.0026601 16.3164133,40.2594614 16.1848021,39.2648982 C14.9598192,30.0079154 19.8962264,25.0014083 30.0005773,25.0014083 Z M30.0005773,29.0017212 C22.9145514,29.0017212 19.8314005,31.4789424 20.0034926,37.0023471 L39.997662,37.0023471 C40.1697541,31.4789424 37.0866033,29.0017212 30.0005773,29.0017212 Z M13.9993255,23.0012518 C14.7746897,23.0012518 15.5064553,23.042213 16.1951975,23.1251233 C17.2919355,23.2571476 18.0739904,24.2532564 17.9419661,25.3499944 C17.8099417,26.4467324 16.8138329,27.2287873 15.7170949,27.0967628 C15.1926172,27.0336267 14.6198356,27.0015648 13.9993255,27.0015648 C9.94297684,27.0015648 8.14338567,28.183658 8.00393924,31.0018777 L11.999169,31.0018777 C13.1038249,31.0018777 13.9993255,31.8973784 13.9993255,33.0020342 C13.9993255,34.10669 13.1038249,35.0021907 11.999169,35.0021907 L6.11072227,35.0021907 C5.10748883,35.0021907 4.25946308,34.2589919 4.12785187,33.2644287 C3.25577842,26.6743212 6.87741841,23.0012518 13.9993255,23.0012518 Z M30.0005773,7 C34.419201,7 38.0012032,10.5820022 38.0012032,15.0006259 C38.0012032,19.4192496 34.419201,23.0012518 30.0005773,23.0012518 C25.5819536,23.0012518 21.9999514,19.4192496 21.9999514,15.0006259 C21.9999514,10.5820022 25.5819536,7 30.0005773,7 Z M13.9993255,9.00015648 C17.3132933,9.00015648 19.9997949,11.6866581 19.9997949,15.0006259 C19.9997949,18.3145937 17.3132933,21.0010953 13.9993255,21.0010953 C10.6853577,21.0010953 7.99885606,18.3145937 7.99885606,15.0006259 C7.99885606,11.6866581 10.6853577,9.00015648 13.9993255,9.00015648 Z M30.0005773,11.000313 C27.7912655,11.000313 26.0002644,12.7913141 26.0002644,15.0006259 C26.0002644,17.2099377 27.7912655,19.0009389 30.0005773,19.0009389 C32.2098891,19.0009389 34.0008903,17.2099377 34.0008903,15.0006259 C34.0008903,12.7913141 32.2098891,11.000313 30.0005773,11.000313 Z M13.9993255,13.0004694 C12.8946696,13.0004694 11.999169,13.89597 11.999169,15.0006259 C11.999169,16.1052818 12.8946696,17.0007824 13.9993255,17.0007824 C15.1039814,17.0007824 15.999482,16.1052818 15.999482,15.0006259 C15.999482,13.89597 15.1039814,13.0004694 13.9993255,13.0004694 Z" id="Color" fill="#333333"></path>
    </g>
</svg>