<?xml version="1.0" encoding="UTF-8"?>
<svg width="48px" height="48px" viewBox="0 0 48 48" version="1.1" xmlns="http://www.w3.org/2000/svg" xmlns:xlink="http://www.w3.org/1999/xlink">
    <title>icon/history</title>
    <g id="icon/history" stroke="none" stroke-width="1" fill="none" fill-rule="evenodd">
        <path d="M24,4 C12.954305,4 4,12.954305 4,24 C4,35.045695 12.954305,44 24,44 C35.045695,44 44,35.045695 44,24 C44,12.954305 35.045695,4 24,4 Z M24,40 C15.163444,40 8,32.836556 8,24 C8,15.163444 15.163444,8 24,8 C32.836556,8 40,15.163444 40,24 C40,28.2434638 38.3142906,32.3131264 35.3137085,35.3137085 C32.3131264,38.3142906 28.2434638,40 24,40 Z M31.9999933,26.64 C31.7140122,27.4907419 30.8963047,28.0467829 29.9999933,28 C29.7832327,27.9945627 29.5680939,27.9609472 29.36,27.9 L23.36,25.9 C22.5453766,25.6248558 21.9977805,24.8598318 21.9999933,24 L21.9999933,14 C21.9999933,12.8954305 22.8954305,12 23.9999933,12 C25.1045695,12 25.9999933,12.8954305 25.9999933,14 L25.9999933,22.56 L30.64,24.1 C31.1630765,24.2475729 31.6035694,24.6016688 31.8601146,25.0808048 C32.1166599,25.5599407 32.1671621,26.1228505 31.9999933,26.64 Z" id="Color" fill="#333333"></path>
    </g>
</svg>