<?xml version="1.0" encoding="UTF-8"?>
<svg width="48px" height="48px" viewBox="0 0 48 48" version="1.1" xmlns="http://www.w3.org/2000/svg" xmlns:xlink="http://www.w3.org/1999/xlink">
    <title>icon/home</title>
    <g id="icon/home" stroke="none" stroke-width="1" fill="none" fill-rule="evenodd">
        <path d="M25.2908077,6.49923737 C24.5345077,5.83358754 23.4026059,5.83358754 22.6463059,6.49923737 L4.61561205,22.5561194 C3.84212733,23.3004305 3.79091543,24.5229878 4.49943293,25.3296082 C5.20795044,26.1362286 6.42486197,26.2407763 7.26011382,25.5667848 L7.94127336,24.9646517 L7.94127336,35.9786692 C7.94127336,39.3041584 10.6321456,42 13.9515046,42 L19.9617359,42 C21.0681889,42 21.9651464,41.1013861 21.9651464,39.9928897 L21.9651464,33.3478922 C21.9651464,32.2393958 22.8621038,31.3407819 23.9685568,31.3407819 C24.5068857,31.34828 25.0195473,31.5725315 25.3909782,31.9629861 C25.7696973,32.3227281 25.9804544,32.8251107 25.9719672,33.3478922 L25.9719672,39.9928897 C25.9719672,41.1013861 26.8689246,42 27.9753776,42 L33.9856089,42 C37.304968,42 39.9958402,39.3041584 39.9958402,35.9786692 L39.9958402,24.9646517 L40.6769997,25.5667848 C41.5072063,26.2973149 42.7710488,26.2164952 43.5018084,25.3861449 C44.230992,24.5544051 44.1503212,23.2882285 43.3215015,22.5561194 L25.2908077,6.49923737 Z M35.9890193,35.9786692 C35.9890193,37.0871656 35.0920619,37.9857795 33.9856089,37.9857795 L29.9787881,37.9857795 L29.9787881,33.3478922 C29.9787881,30.022403 27.2879159,27.3265614 23.9685568,27.3265614 C20.6491977,27.3265614 17.9583255,30.022403 17.9583255,33.3478922 L17.9583255,37.9857795 L13.9515046,37.9857795 C12.8450516,37.9857795 11.9480942,37.0871656 11.9480942,35.9786692 L11.9480942,21.3919955 L23.9685568,10.6940978 L35.9890193,21.3919955 L35.9890193,35.9786692 Z" id="Color" fill="#333333"></path>
    </g>
</svg>