<?xml version="1.0" encoding="UTF-8"?>
<svg width="48px" height="48px" viewBox="0 0 48 48" version="1.1" xmlns="http://www.w3.org/2000/svg" xmlns:xlink="http://www.w3.org/1999/xlink">
    <title>icon/image single</title>
    <g id="icon/image-single" stroke="none" stroke-width="1" fill="none" fill-rule="evenodd">
        <path d="M38.8333333,4.83333329 C42.1470417,4.83333329 44.8333333,7.51962479 44.8333333,10.8333333 L44.8333333,38.8333333 C44.8333333,42.1470417 42.1470417,44.8333333 38.8333333,44.8333333 L10.8333333,44.8333333 C7.51962479,44.8333333 4.83333329,42.1470417 4.83333329,38.8333333 L4.83333329,10.8333333 C4.83333329,7.51962479 7.51962479,4.83333329 10.8333333,4.83333329 L38.8333333,4.83333329 Z M38.8333333,8.83333329 L10.8333333,8.83333329 C9.72876379,8.83333329 8.83333329,9.72876379 8.83333329,10.8333333 L8.83333329,38.8333333 C8.83333329,39.9379027 9.72876379,40.8333333 10.8333333,40.8333333 L38.8333333,40.8333333 C39.9379027,40.8333333 40.8333333,39.9379027 40.8333333,38.8333333 L40.8333333,10.8333333 C40.8333333,9.72876379 39.9379027,8.83333329 38.8333333,8.83333329 Z M20.2475469,23.4191197 L22.8333333,26.0043333 L25.4191197,23.4191197 C26.2001683,22.6380711 27.4664983,22.6380711 28.2475469,23.4191197 L38.2475469,33.4191197 C39.0285955,34.2001683 39.0285955,35.4664983 38.2475469,36.2475469 C37.4664983,37.0285955 36.2001683,37.0285955 35.4191197,36.2475469 L26.8333333,27.6617605 L25.6613333,28.8323333 L28.2475469,31.4191197 C29.0285955,32.2001683 29.0285955,33.4664983 28.2475469,34.2475469 C27.4664983,35.0285955 26.2001683,35.0285955 25.4191197,34.2475469 L19.0497217,27.8781487 L14.4333333,34.0333333 C13.7705916,34.9169889 12.5169889,35.0960749 11.6333333,34.4333333 C10.7496777,33.7705917 10.5705916,32.5169889 11.2333333,31.6333333 L17.2333333,23.6333333 C17.9635925,22.6596543 19.3869281,22.5585009 20.2475469,23.4191197 Z M32.8333333,12.8333333 C35.0424723,12.8333333 36.8333333,14.6241943 36.8333333,16.8333333 C36.8333333,19.0424723 35.0424723,20.8333333 32.8333333,20.8333333 C30.6241943,20.8333333 28.8333333,19.0424723 28.8333333,16.8333333 C28.8333333,14.6241943 30.6241943,12.8333333 32.8333333,12.8333333 Z" id="Color" fill="#333333"></path>
    </g>
</svg>