<?xml version="1.0" encoding="UTF-8"?>
<svg width="48px" height="48px" viewBox="0 0 48 48" version="1.1" xmlns="http://www.w3.org/2000/svg" xmlns:xlink="http://www.w3.org/1999/xlink">
    <title>icon/image multiple</title>
    <g id="icon/image-multiple" stroke="none" stroke-width="1" fill="none" fill-rule="evenodd">
        <path d="M32,4 C35.2383969,4 37.8775718,6.56557489 37.9958615,9.77506174 L38,10 C41.3137084,10 44,12.6862915 44,16 L44,38 C44,41.3137084 41.3137084,44 38,44 L16,44 C12.6862915,44 10,41.3137084 10,38 L9.77506174,37.9958615 C6.64021421,37.8803227 4.11967732,35.3597858 4.00413847,32.2249383 L4,32 L4,13 C4,8.02943725 8.02943725,4 13,4 L32,4 Z M38,14 L16,14 C14.8954305,14 14,14.8954305 14,16 L14,38 C14,39.1045694 14.8954305,40 16,40 L38,40 C39.1045694,40 40,39.1045694 40,38 L40,16 C40,14.8954305 39.1045694,14 38,14 Z M23.4142136,26.5857864 L26,29.171 L28.5857864,26.5857864 C29.366835,25.8047378 30.633165,25.8047378 31.4142136,26.5857864 L37.4142136,32.5857864 C38.1952622,33.366835 38.1952622,34.633165 37.4142136,35.4142136 C36.633165,36.1952622 35.366835,36.1952622 34.5857864,35.4142136 L29.9999999,30.8284272 L28.828,31.999 L29.4142136,32.5857864 C30.1952622,33.366835 30.1952622,34.633165 29.4142136,35.4142136 C28.633165,36.1952622 27.366835,36.1952622 26.5857864,35.4142136 L22.3108496,31.1392768 L19.6641006,35.1094004 C19.0513957,36.0284578 17.809657,36.2768056 16.8905996,35.6641006 C15.9715422,35.0513956 15.7231945,33.809657 16.3358994,32.8905996 L20.3358994,26.8905996 C21.0359826,25.8404748 22.5217792,25.693352 23.4142136,26.5857864 Z M32,8 L14,8 C10.6862915,8 8,10.6862915 8,14 L8,32 C8,33.0543617 8.81587788,33.9181651 9.85073767,33.9945143 L9.999,33.999 L10,16 C10,12.6862915 12.6862915,10 16,10 L34,10 C34,8.9456382 33.1841222,8.08183488 32.1492623,8.00548574 L32,8 Z M34,18 C35.1045695,18 36,18.8954305 36,20 C36,21.1045695 35.1045695,22 34,22 C32.8954305,22 32,21.1045695 32,20 C32,18.8954305 32.8954305,18 34,18 Z" id="Color" fill="#333333"></path>
    </g>
</svg>