<?xml version="1.0" encoding="UTF-8"?>
<svg width="48px" height="48px" viewBox="0 0 48 48" version="1.1" xmlns="http://www.w3.org/2000/svg" xmlns:xlink="http://www.w3.org/1999/xlink">
    <title>icon/information</title>
    <g id="icon/information" stroke="none" stroke-width="1" fill="none" fill-rule="evenodd">
        <path d="M24,4 C35.045695,4 44,12.954305 44,24 C44,35.045695 35.045695,44 24,44 C12.954305,44 4,35.045695 4,24 C4,12.954305 12.954305,4 24,4 Z M24,8.35643564 C15.360298,8.35643564 8.35643564,15.360298 8.35643564,24 C8.35643564,32.639702 15.360298,39.6435644 24,39.6435644 C32.639702,39.6435644 39.6435644,32.639702 39.6435644,24 C39.6435644,15.360298 32.639702,8.35643564 24,8.35643564 Z M24,19.049505 C25.9892482,19.049505 27.6018525,20.6621093 27.6018525,22.6513575 C27.6018525,22.9050354 27.575053,23.1580035 27.5219001,23.4060504 L25.7417671,31.7133375 C25.6271932,32.2480161 25.9677552,32.7743393 26.5024338,32.8889133 C26.5706184,32.9035243 26.6401558,32.9108911 26.7098883,32.9108911 L28.4554455,32.9108911 L28.4028024,33.1214635 C27.8518532,35.3252605 25.8717388,36.8712871 23.6001168,36.8712871 L23.009901,36.8712871 C21.0206528,36.8712871 19.4080485,35.2586828 19.4080485,33.2694346 C19.4080485,33.0157567 19.434848,32.7627886 19.4880009,32.5147417 L21.1919097,24.5631672 C21.3064837,24.0284886 20.9659216,23.5021655 20.4312431,23.3875915 C20.2834243,23.355916 20.130315,23.3585104 19.9836542,23.3951756 L17.5643564,24 L18.0508293,22.7838178 C18.9529879,20.5284215 21.1373963,19.049505 23.5665324,19.049505 L24,19.049505 Z M25.4851485,11.1287129 C27.3990066,11.1287129 28.950495,12.6802014 28.950495,14.5940594 C28.950495,16.5079174 27.3990066,18.0594059 25.4851485,18.0594059 C23.5712905,18.0594059 22.019802,16.5079174 22.019802,14.5940594 C22.019802,12.6802014 23.5712905,11.1287129 25.4851485,11.1287129 Z" id="Color" fill="#333333"></path>
    </g>
</svg>