<?xml version="1.0" encoding="UTF-8"?>
<svg width="48px" height="48px" viewBox="0 0 48 48" version="1.1" xmlns="http://www.w3.org/2000/svg" xmlns:xlink="http://www.w3.org/1999/xlink">
    <title>icon/information copy</title>
    <g id="icon/information-copy" stroke="none" stroke-width="1" fill="none" fill-rule="evenodd">
        <path d="M24,4 C35.045695,4 44,12.954305 44,24 C44,35.045695 35.045695,44 24,44 C12.954305,44 4,35.045695 4,24 C4,12.954305 12.954305,4 24,4 Z M24,8.35643564 C15.360298,8.35643564 8.35643564,15.360298 8.35643564,24 C8.35643564,32.639702 15.360298,39.6435644 24,39.6435644 C32.639702,39.6435644 39.6435644,32.639702 39.6435644,24 C39.6435644,15.360298 32.639702,8.35643564 24,8.35643564 Z M23.31275,32.0544063 C24.6851562,32.0544063 25.829,33.1983438 25.829,34.5710313 C25.829,35.9110938 24.717875,37.0876563 23.31275,37.0876563 C21.907625,37.0876563 20.8292187,35.911 20.8292187,34.5710313 C20.8292187,33.1983438 21.9403437,32.0544063 23.31275,32.0544063 Z M23.737625,12.4 C28.14905,12.4 31.2980937,14.8942789 31.2980937,18.3927813 C31.2980937,19.9167097 30.6998697,21.3373016 29.6710005,22.6484102 C29.0730592,23.4103787 28.4604785,23.9992536 27.7288313,24.5918123 L27.2452591,24.9754249 C26.1530845,25.8567557 25.8732387,26.4055908 25.819167,27.7862303 L25.8124201,28.0113082 L25.8080937,28.4592813 C25.8080937,29.6347042 24.9708252,30.39925 23.280125,30.39925 C21.5612182,30.39925 20.8828437,29.5929293 20.8828437,27.6095313 C20.8828437,25.0786924 21.7270494,23.5267148 23.2840745,22.1841368 L23.5248769,21.9891006 L24.3690154,21.3309936 L24.5713277,21.1674302 C25.5466452,20.3614815 25.9806875,19.7265737 25.9806875,18.9484375 C25.9806875,17.7509003 24.8069362,17.1643274 23.737625,17.1643274 C23.152399,17.1643274 22.7527882,17.2877347 22.2715759,17.5734711 C21.7903636,17.8592074 21.6298479,18.0573592 21.385498,18.3549652 C21.2225982,18.5533692 21.0741733,18.7420689 20.9402233,18.9210642 C20.4731428,19.5495793 20.0192814,19.8425313 19.2606875,19.8425313 C17.8974137,19.8425313 16.7,18.8766879 16.7,17.3795313 C16.7,14.7851345 19.586235,12.4 23.737625,12.4 Z" id="Color" fill="#333333"></path>
    </g>
</svg>