<?xml version="1.0" encoding="UTF-8"?>
<svg width="48px" height="48px" viewBox="0 0 48 48" version="1.1" xmlns="http://www.w3.org/2000/svg" xmlns:xlink="http://www.w3.org/1999/xlink">
    <title>icon/location</title>
    <g id="icon/location" stroke="none" stroke-width="1" fill="none" fill-rule="evenodd">
        <path d="M24,4 C32.836556,4 40,11.163444 40,20 C40,25.8476612 35.1081998,33.5347756 25.4275578,43.4007422 C24.6435562,44.1997526 23.3564438,44.1997526 22.5724422,43.4007422 L21.6649583,42.4677031 C12.5861397,33.0485587 8,25.6620212 8,20 C8,11.163444 15.163444,4 24,4 Z M24,8 C17.372583,8 12,13.372583 12,20 C12,24.2187006 15.9709873,30.6885474 24,39.122622 L24.8161154,38.25715 C32.2981522,30.2450278 36,24.0732282 36,20 C36,13.372583 30.627417,8 24,8 Z M24,13 C26.7614237,13 29,15.2385763 29,18 C29,20.7614237 26.7614237,23 24,23 C21.2385763,23 19,20.7614237 19,18 C19,15.2385763 21.2385763,13 24,13 Z" id="Color" fill="#333333"></path>
    </g>
</svg>