<?xml version="1.0" encoding="UTF-8"?>
<svg width="48px" height="48px" viewBox="0 0 48 48" version="1.1" xmlns="http://www.w3.org/2000/svg" xmlns:xlink="http://www.w3.org/1999/xlink">
    <title>icon/lock</title>
    <g id="icon/lock" stroke="none" stroke-width="1" fill="none" fill-rule="evenodd">
        <path d="M25.05,4 C29.1092929,4 32.4,7.29895448 32.4,11.3684211 L32.3998425,14.526 L34.5,14.5263158 C37.9793938,14.5263158 40.8,17.3539911 40.8,20.8421053 L40.8,37.6842105 C40.8,41.1723246 37.9793938,44 34.5,44 L13.5,44 C10.0206061,44 7.2,41.1723246 7.2,37.6842105 L7.2,20.8421053 C7.2,17.3539911 10.0206061,14.5263158 13.5,14.5263158 L15.5999475,14.526 L15.6,11.3684211 C15.6,7.29895448 18.8907071,4 22.95,4 L25.05,4 Z M34.5,18.7368421 L13.5,18.7368421 C12.340202,18.7368421 11.4,19.6794005 11.4,20.8421053 L11.4,37.6842105 C11.4,38.8469152 12.340202,39.7894737 13.5,39.7894737 L34.5,39.7894737 C35.6597979,39.7894737 36.6,38.8469152 36.6,37.6842105 L36.6,20.8421053 C36.6,19.6794005 35.6597979,18.7368421 34.5,18.7368421 Z M24,22.9473684 C26.3195959,22.9473684 28.2,24.8324853 28.2,27.1578947 C28.2,28.7163142 27.3554584,30.076986 26.1001685,30.8050299 L26.1,33.4736842 C26.1,34.6363888 25.1597979,35.5789474 24,35.5789474 C22.8402021,35.5789474 21.9,34.6363888 21.9,33.4736842 L21.8998315,30.8050299 C20.6445416,30.076986 19.8,28.7163142 19.8,27.1578947 C19.8,24.8324853 21.680404,22.9473684 24,22.9473684 Z M25.05,8.21052632 L22.95,8.21052632 C21.2103031,8.21052632 19.8,9.62436396 19.8,11.3684211 L19.8,14.5263158 L28.2,14.5263158 L28.2,11.3684211 C28.2,9.62436396 26.7896969,8.21052632 25.05,8.21052632 Z" id="Color" fill="#333333"></path>
    </g>
</svg>