<?xml version="1.0" encoding="UTF-8"?>
<svg width="48px" height="48px" viewBox="0 0 48 48" version="1.1" xmlns="http://www.w3.org/2000/svg" xmlns:xlink="http://www.w3.org/1999/xlink">
    <title>icon/mail</title>
    <g id="icon/mail" stroke="none" stroke-width="1" fill="none" fill-rule="evenodd">
        <path d="M38,8 C41.3137084,8 44,10.6862915 44,14 L44,34 C44,37.3137084 41.3137084,40 38,40 L10,40 C6.6862915,40 4,37.3137084 4,34 L4,14 C4,10.6862915 6.6862915,8 10,8 L38,8 Z M40,18.923 L24.7248926,24.8640094 C24.2586388,25.0453302 23.7413612,25.0453302 23.2751074,24.8640094 L7.999,18.923 L8,34 C8,35.1045694 8.8954305,36 10,36 L38,36 C39.1045694,36 40,35.1045694 40,34 L40,18.923 Z M38,12 L10,12 C8.8954305,12 8,12.8954305 8,14 L8,14.6318658 L24,20.854088 L40,14.6318658 L40,14 C40,12.8954305 39.1045694,12 38,12 Z" id="Color" fill="#333333"></path>
    </g>
</svg>