<?xml version="1.0" encoding="UTF-8"?>
<svg width="48px" height="48px" viewBox="0 0 48 48" version="1.1" xmlns="http://www.w3.org/2000/svg" xmlns:xlink="http://www.w3.org/1999/xlink">
    <title>icon/map</title>
    <g id="icon/map" stroke="none" stroke-width="1" fill="none" fill-rule="evenodd">
        <path d="M44,6.49089977 L44,34.3275813 C44,35.0807069 43.5719952,35.7691938 42.8944272,36.1060017 L30.8986085,42.0694178 L30.7664972,42.1298247 L30.7664972,42.1298247 L30.5947781,42.1919583 C30.5652734,42.2010644 30.5354394,42.2095748 30.5053517,42.2173983 C30.2611322,42.2822465 30.0149333,42.2978265 29.7772037,42.27078 L18.161,40.346 L9.26491106,43.2948515 C7.1691378,43.989368 4.9038579,42.8633345 4.2052668,40.7797853 C4.06931152,40.3742985 4,39.949673 4,39.5222523 L4,15.8773477 C4,14.1656685 5.10172038,12.6460289 6.73508894,12.1047484 L17.3302525,8.59317284 C17.4671307,8.54464232 17.6104461,8.51064721 17.7581279,8.4929316 C17.9667178,8.46703145 18.1723629,8.47479072 18.3696892,8.51194952 L29.687,10.388 L41.1055728,4.71247942 C42.435375,4.05145656 44,5.01280773 44,6.49089977 Z M16,13.2262352 L8,15.8773477 L8,39.5222523 L16,36.8711398 L16,13.2262352 Z M20,12.8147186 L20,36.6198782 L27.999,37.945 L27.999,14.14 L20,12.8147186 Z M40,9.70809241 L32,13.684 L32,37.075 L40,33.0987231 L40,9.70809241 Z" id="Color" fill="#333333"></path>
    </g>
</svg>