<?xml version="1.0" encoding="UTF-8"?>
<svg width="48px" height="48px" viewBox="0 0 48 48" version="1.1" xmlns="http://www.w3.org/2000/svg" xmlns:xlink="http://www.w3.org/1999/xlink">
    <title>icon/media</title>
    <g id="icon/media" stroke="none" stroke-width="1" fill="none" fill-rule="evenodd">
        <path d="M38.8333333,8.66666663 C42.1470417,8.66666663 44.8333333,11.3529581 44.8333333,14.6666666 L44.8333333,34.6666666 C44.8333333,37.980375 42.1470417,40.6666666 38.8333333,40.6666666 L10.8333333,40.6666666 C7.51962479,40.6666666 4.83333329,37.980375 4.83333329,34.6666666 L4.83333329,14.6666666 C4.83333329,11.3529581 7.51962479,8.66666663 10.8333333,8.66666663 L38.8333333,8.66666663 Z M38.8333333,12.6666666 L10.8333333,12.6666666 C9.72876379,12.6666666 8.83333329,13.5620971 8.83333329,14.6666666 L8.83333329,34.6666666 C8.83333329,35.771236 9.72876379,36.6666666 10.8333333,36.6666666 L38.8333333,36.6666666 C39.9379027,36.6666666 40.8333333,35.771236 40.8333333,34.6666666 L40.8333333,14.6666666 C40.8333333,13.5620971 39.9379027,12.6666666 38.8333333,12.6666666 Z M21.8623249,16.9516808 L31.8623249,22.9516808 C33.1570027,23.7284876 33.1570027,25.6048456 31.8623249,26.3816524 L21.8623249,32.3816524 C20.5292758,33.1814818 18.8333333,32.2212556 18.8333333,30.6666666 L18.8333333,18.6666666 C18.8333333,17.1120777 20.5292758,16.1518514 21.8623249,16.9516808 Z M22.8333333,22.1990474 L22.8333333,27.1342858 L26.9460321,24.6666666 L22.8333333,22.1990474 Z" id="Color" fill="#333333"></path>
    </g>
</svg>