<?xml version="1.0" encoding="UTF-8"?>
<svg width="48px" height="48px" viewBox="0 0 48 48" version="1.1" xmlns="http://www.w3.org/2000/svg" xmlns:xlink="http://www.w3.org/1999/xlink">
    <title>icon/mobile</title>
    <g id="icon/mobile" stroke="none" stroke-width="1" fill="none" fill-rule="evenodd">
        <path d="M32.125,4 C34.7420197,4 36.884535,6.12681671 36.9954866,8.78346643 L37,9 L37,39 C37,41.6841228 34.9263537,43.8815743 32.3361202,43.9953709 L32.125,44 L15.875,44 C13.2579803,44 11.115465,41.8731833 11.0045134,39.2165336 L11,39 L11,9 C11,6.31587719 13.0736463,4.11842567 15.6638798,4.00462914 L15.875,4 L32.125,4 Z M28.7125,7.33 L28.7126332,7.4 C28.7126332,8.23456362 28.0736717,8.91988979 27.2582658,8.99346132 L27.1126332,9 L20.8875,9 C20.0529364,9 19.3676102,8.36103848 19.2940387,7.54563261 L19.2875,7.4 L19.2875,7.33 L17.6625,7.33333333 L15.875,7.33333333 C15.0252105,7.33333333 14.3270997,8.00347184 14.2559684,8.85626087 L14.25,9 L14.25,39 C14.25,39.8715789 14.903385,40.58759 15.7348544,40.6605453 L15.875,40.6666667 L32.125,40.6666667 C32.9747895,40.6666667 33.6729003,39.9965282 33.7440316,39.1437391 L33.75,39 L33.75,9 C33.75,8.12842105 33.096615,7.41240997 32.2651456,7.33945473 L32.125,7.33333333 L28.7125,7.33 Z M29,37 C29.5522847,37 30,37.4477153 30,38 C30,38.5522847 29.5522847,39 29,39 L19,39 C18.4477153,39 18,38.5522847 18,38 C18,37.4477153 18.4477153,37 19,37 L29,37 Z" id="Color" fill="#333333"></path>
    </g>
</svg>