<?xml version="1.0" encoding="UTF-8"?>
<svg width="48px" height="48px" viewBox="0 0 48 48" version="1.1" xmlns="http://www.w3.org/2000/svg" xmlns:xlink="http://www.w3.org/1999/xlink">
    <title>icon/more horizontal</title>
    <g id="icon/more-horizontal" stroke="none" stroke-width="1" fill="none" fill-rule="evenodd">
        <path d="M38.68,29.3191489 C41.6176848,29.3191489 43.9991489,26.9376848 43.9991489,24 C43.9991489,21.0623152 41.6176848,18.6808511 38.68,18.6808511 C35.7423152,18.6808511 33.3608511,21.0623152 33.3608511,24 C33.3608511,26.9376848 35.7423152,29.3191489 38.68,29.3191489 Z M29.3182979,24 C29.3182979,21.0623152 26.9368338,18.6808511 23.9991489,18.6808511 C21.0614641,18.6808511 18.68,21.0623152 18.68,24 C18.68,26.9376848 21.0614641,29.3191489 23.9991489,29.3191489 C26.9368338,29.3191489 29.3182979,26.9376848 29.3182979,24 Z M14.6374468,24 C14.6374468,21.0623152 12.2559827,18.6808511 9.31829787,18.6808511 C6.38061303,18.6808511 3.99914894,21.0623152 3.99914894,24 C3.99914894,26.9376848 6.38061303,29.3191489 9.31829787,29.3191489 C12.2559827,29.3191489 14.6374468,26.9376848 14.6374468,24 Z" id="Color" fill="#333333"></path>
    </g>
</svg>