<?xml version="1.0" encoding="UTF-8"?>
<svg width="48px" height="48px" viewBox="0 0 48 48" version="1.1" xmlns="http://www.w3.org/2000/svg" xmlns:xlink="http://www.w3.org/1999/xlink">
    <title>icon/more vertical</title>
    <g id="icon/more-vertical" stroke="none" stroke-width="1" fill="none" fill-rule="evenodd">
        <path d="M29.3182979,9.31914894 C29.3182979,6.3814641 26.9368338,4 23.9991489,4 C21.0614641,4 18.68,6.3814641 18.68,9.31914894 C18.68,12.2568338 21.0614641,14.6382979 23.9991489,14.6382979 C26.9368338,14.6382979 29.3182979,12.2568338 29.3182979,9.31914894 Z M23.9991489,18.6808511 C21.0614641,18.6808511 18.68,21.0623152 18.68,24 C18.68,26.9376848 21.0614641,29.3191489 23.9991489,29.3191489 C26.9368338,29.3191489 29.3182979,26.9376848 29.3182979,24 C29.3182979,21.0623152 26.9368338,18.6808511 23.9991489,18.6808511 Z M23.9991489,33.3617021 C21.0614641,33.3617021 18.68,35.7431662 18.68,38.6808511 C18.68,41.6185359 21.0614641,44 23.9991489,44 C26.9368338,44 29.3182979,41.6185359 29.3182979,38.6808511 C29.3182979,35.7431662 26.9368338,33.3617021 23.9991489,33.3617021 Z" id="Color" fill="#333333"></path>
    </g>
</svg>