<?xml version="1.0" encoding="UTF-8"?>
<svg width="48px" height="48px" viewBox="0 0 48 48" version="1.1" xmlns="http://www.w3.org/2000/svg" xmlns:xlink="http://www.w3.org/1999/xlink">
    <title>icon/mouse</title>
    <g id="icon/mouse" stroke="none" stroke-width="1" fill="none" fill-rule="evenodd">
        <path d="M24,4 C31.7319864,4 38,10.2680135 38,18 L38,30 C38,37.7319864 31.7319864,44 24,44 C16.2680135,44 10,37.7319864 10,30 L10,18 C10,10.2680135 16.2680135,4 24,4 Z M24,8 C18.4771525,8 14,12.4771525 14,18 L14,30 C14,35.5228474 18.4771525,40 24,40 C29.5228474,40 34,35.5228474 34,30 L34,18 C34,12.4771525 29.5228474,8 24,8 Z M24,15 C25.1045694,15 26,15.8954305 26,17 L26,19 C26,20.1045694 25.1045694,21 24,21 C22.8954306,21 22,20.1045694 22,19 L22,17 C22,15.8954305 22.8954306,15 24,15 Z" id="Color" fill="#333333"></path>
    </g>
</svg>