<?xml version="1.0" encoding="UTF-8"?>
<svg width="48px" height="48px" viewBox="0 0 48 48" version="1.1" xmlns="http://www.w3.org/2000/svg" xmlns:xlink="http://www.w3.org/1999/xlink">
    <title>icon/nav</title>
    <g id="icon/nav" stroke="none" stroke-width="1" fill="none" fill-rule="evenodd">
        <path d="M25,33 C26.6568542,33 28,34.3431458 28,36 C28,37.6568542 26.6568542,39 25,39 L7,39 C5.34314575,39 4,37.6568542 4,36 C4,34.3431458 5.34314575,33 7,33 L25,33 Z M41,21 C42.6568542,21 44,22.3431458 44,24 C44,25.6568542 42.6568542,27 41,27 L7,27 C5.34314575,27 4,25.6568542 4,24 C4,22.3431458 5.34314575,21 7,21 L41,21 Z M33,9 C34.6568542,9 36,10.3431458 36,12 C36,13.6568542 34.6568542,15 33,15 L7,15 C5.34314575,15 4,13.6568542 4,12 C4,10.3431458 5.34314575,9 7,9 L33,9 Z" id="Color" fill="#333333"></path>
    </g>
</svg>