<?xml version="1.0" encoding="UTF-8"?>
<svg width="48px" height="48px" viewBox="0 0 48 48" version="1.1" xmlns="http://www.w3.org/2000/svg" xmlns:xlink="http://www.w3.org/1999/xlink">
    <title>icon/notifications on</title>
    <g id="icon/notifications-on" stroke="none" stroke-width="1" fill="none" fill-rule="evenodd">
        <path d="M24,9.12820513 C31.94771,9.12820513 38.3906021,15.5569369 38.3906021,23.4871795 L38.39,33.743 L39.4441997,33.7435898 C40.5795868,33.7435898 41.5,34.6619801 41.5,35.7948718 C41.5,36.9277635 40.5795868,37.8461539 39.4441997,37.8461539 L30.1674009,37.8461539 C30.1674009,41.2448291 27.4061614,44 24,44 C20.5938386,44 17.8325991,41.2448291 17.8325991,37.8461539 L8.55580029,37.8461539 C7.42041314,37.8461539 6.5,36.9277635 6.5,35.7948718 C6.5,34.6619801 7.42041314,33.7435898 8.55580029,33.7435898 L9.609,33.743 L9.60939794,23.4871795 C9.60939794,15.5569369 16.0522899,9.12820513 24,9.12820513 Z M26.0558003,37.8461539 L21.9441997,37.8461539 C21.9441997,38.9790456 22.864613,39.8974359 24,39.8974359 C25.135387,39.8974359 26.0558003,38.9790456 26.0558003,37.8461539 Z M24,13.2307692 C18.3230642,13.2307692 13.7209985,17.8227205 13.7209985,23.4871795 L13.7209985,33.7435898 L34.2790015,33.7435898 L34.2790015,23.4871795 C34.2790015,17.8227205 29.6769357,13.2307692 24,13.2307692 Z M26.0558003,4 C27.1911873,4 28.1116006,4.91839026 28.1116006,6.05128205 C28.1116006,7.18417385 27.1911873,8.1025641 26.0558003,8.1025641 L21.9441997,8.1025641 C20.8088127,8.1025641 19.8883994,7.18417385 19.8883994,6.05128205 C19.8883994,4.91839026 20.8088127,4 21.9441997,4 L26.0558003,4 Z" id="Color" fill="#333333"></path>
    </g>
</svg>