<?xml version="1.0" encoding="UTF-8"?>
<svg width="48px" height="48px" viewBox="0 0 48 48" version="1.1" xmlns="http://www.w3.org/2000/svg" xmlns:xlink="http://www.w3.org/1999/xlink">
    <title>icon/notifications off</title>
    <g id="icon/notifications-off" stroke="none" stroke-width="1" fill="none" fill-rule="evenodd">
        <path d="M10.3394104,7.51141605 L16.1718659,14.1218673 C18.6400482,12.1196131 21.7856807,10.9198686 25.2115286,10.9198686 C33.1417662,10.9198686 39.5704941,17.3485964 39.5704941,25.2788341 L39.5699768,35.5346666 L41.6217749,35.535238 C42.7546659,35.535238 43.6730557,36.4536278 43.6730557,37.5865188 C43.6730557,38.7194098 42.7546659,39.6377995 41.6217749,39.6377995 L38.6859768,39.6376666 L41.1086222,42.3831894 C41.8581674,43.232674 41.7771504,44.5289438 40.9276658,45.2784892 C40.0781812,46.0280344 38.7819114,45.9470174 38.032366,45.0975328 L33.2149768,39.6376666 L31.365371,39.6377995 C31.365371,43.0364727 28.6102018,45.7916666 25.2115286,45.7916666 C21.8128555,45.7916666 19.0576863,43.0364727 19.0576863,39.6377995 L8.80128237,39.6377995 C7.66839128,39.6377995 6.74997682,38.7194098 6.74997682,37.5865188 C6.74997682,36.4536278 7.66839128,35.535238 8.80128237,35.535238 L10.8519768,35.5346666 L10.8525632,25.2788341 C10.8525632,22.2614817 11.7832524,19.4615034 13.3732238,17.1503064 L7.26315438,10.2257596 C6.51360912,9.37627491 6.59462599,8.08000507 7.44411061,7.33045981 C8.29359526,6.58091455 9.5898651,6.66193142 10.3394104,7.51141605 Z M27.2628094,39.6377995 L23.1602479,39.6377995 C23.1602479,40.7706905 24.0786376,41.6890803 25.2115286,41.6890803 C26.3444196,41.6890803 27.2628094,40.7706905 27.2628094,39.6377995 Z M14.9551247,25.2788341 L14.9551247,35.535238 L29.5949768,35.5346666 L16.2078298,20.3628536 C15.4091688,21.8225146 14.9551247,23.4976505 14.9551247,25.2788341 Z M25.2115286,15.0224301 C22.8265912,15.0224301 20.6317782,15.8364493 18.8897715,17.2018058 L35.0659768,35.5346666 L35.4679325,35.535238 L35.4679325,25.2788341 C35.4679325,19.6143786 30.875984,15.0224301 25.2115286,15.0224301 Z M27.2628094,5.79166663 C28.3957004,5.79166663 29.3140902,6.71005632 29.3140902,7.84294741 C29.3140902,8.9758385 28.3957004,9.89422819 27.2628094,9.89422819 L23.1602479,9.89422819 C22.0273569,9.89422819 21.1089671,8.9758385 21.1089671,7.84294741 C21.1089671,6.71005632 22.0273569,5.79166663 23.1602479,5.79166663 L27.2628094,5.79166663 Z" id="Color" fill="#333333"></path>
    </g>
</svg>