<?xml version="1.0" encoding="UTF-8"?>
<svg width="48px" height="48px" viewBox="0 0 48 48" version="1.1" xmlns="http://www.w3.org/2000/svg" xmlns:xlink="http://www.w3.org/1999/xlink">
    <title>icon/password hide</title>
    <g id="icon/password-hide" stroke="none" stroke-width="1" fill="none" fill-rule="evenodd">
        <path d="M37.4350288,10.5649712 C38.4113396,11.5412819 38.4113396,13.1241943 37.4350288,14.1005051 L14.1005051,37.4350288 C13.1241943,38.4113396 11.5412819,38.4113396 10.5649712,37.4350288 C9.58866043,36.4587181 9.58866043,34.8758057 10.5649712,33.8994949 L33.8994949,10.5649712 C34.8758057,9.58866043 36.4587181,9.58866043 37.4350288,10.5649712 Z M37.7175137,16.6447168 C39.4153077,18.1602953 41.0474468,19.9763606 42.6119558,22.087204 L42.917867,22.5048875 L44,24 L42.917867,25.4951125 C37.4270881,33.0813631 31.092186,37 24,37 C22.0295934,37 20.1176402,36.6975271 18.2660027,36.0979644 L22.4512214,31.9142331 C22.7361809,31.9460747 23.022336,31.9690272 23.3097,31.983129 L23.6625909,31.9959855 L24,32 C28.841518,32 33.3414919,29.5298267 37.562251,24.4093067 L37.8937809,24 L37.5620879,23.5904954 C36.4680109,22.2632084 35.355173,21.1140014 34.2224887,20.1397366 L37.7175137,16.6447168 Z M24,11 C25.9707616,11 27.8830487,11.3025819 29.734998,11.9023596 L25.5497773,16.0858786 C25.2644877,16.053979 24.9779997,16.0309893 24.6903,16.016871 L24.3374091,16.0040145 L24,16 C19.158482,16 14.6585081,18.4701733 10.437749,23.5906933 L10.1052492,24 L10.4379121,24.4095046 C11.5319891,25.7367916 12.644827,26.8859986 13.7775113,27.8602634 L10.2824863,31.3552832 C8.58469229,29.8397047 6.95255325,28.0236394 5.38804415,25.912796 L5.08213299,25.4951125 L4,24 L5.08213299,22.5048875 C10.5729119,14.9186369 16.907814,11 24,11 Z" id="Color" fill="#333333"></path>
    </g>
</svg>