<?xml version="1.0" encoding="UTF-8"?>
<svg width="48px" height="48px" viewBox="0 0 48 48" version="1.1" xmlns="http://www.w3.org/2000/svg" xmlns:xlink="http://www.w3.org/1999/xlink">
    <title>icon/password show</title>
    <g id="icon/password-show" stroke="none" stroke-width="1" fill="none" fill-rule="evenodd">
        <path d="M24,11 C30.9608493,11 37.1922024,14.774846 42.6119558,22.087204 L42.917867,22.5048875 L44,24 L42.917867,25.4951125 C37.4270881,33.0813631 31.092186,37 24,37 C17.0391507,37 10.8077976,33.225154 5.38804415,25.912796 L5.08213299,25.4951125 L4,24 L5.08213299,22.5048875 C10.5729119,14.9186369 16.907814,11 24,11 Z M24,16 C19.158482,16 14.6585081,18.4701733 10.437749,23.5906933 L10.1052492,24 L10.4379121,24.4095046 C14.457351,29.2857146 18.7300041,31.758389 23.3097,31.983129 L23.6625909,31.9959855 L24,32 C28.841518,32 33.3414919,29.5298267 37.562251,24.4093067 L37.8937809,24 L37.5620879,23.5904954 C33.542649,18.7142854 29.2699959,16.241611 24.6903,16.016871 L24.3374091,16.0040145 L24,16 Z M24,18 C27.3137085,18 30,20.6862915 30,24 C30,27.3137085 27.3137085,30 24,30 C20.6862915,30 18,27.3137085 18,24 C18,20.6862915 20.6862915,18 24,18 Z" id="Color" fill="#333333"></path>
    </g>
</svg>