<?xml version="1.0" encoding="UTF-8"?>
<svg width="48px" height="48px" viewBox="0 0 48 48" version="1.1" xmlns="http://www.w3.org/2000/svg" xmlns:xlink="http://www.w3.org/1999/xlink">
    <title>icon/paste</title>
    <g id="icon/paste" stroke="none" stroke-width="1" fill="none" fill-rule="evenodd">
        <path d="M24,4 C25.3995011,4 26.590101,4.87872095 27.0313687,6.10521307 L32.5714286,6.10526316 C36.1218304,6.10526316 39,8.93293843 39,12.4210526 L39,37.6842106 C39,41.1723247 36.1218304,44 32.5714286,44 L15.4285714,44 C11.8781695,44 9,41.1723247 9,37.6842106 L9,12.4210526 C9,8.93293843 11.8781695,6.10526316 15.4285714,6.10526316 L20.9686313,6.10521307 C21.409899,4.87872095 22.6004989,4 24,4 Z M17.7543456,10.3157895 L15.4285714,10.3157895 C14.2451041,10.3157895 13.2857143,11.2583479 13.2857143,12.4210526 L13.2857143,37.6842106 C13.2857143,38.8469152 14.2451041,39.7894738 15.4285714,39.7894738 L32.5714286,39.7894738 C33.7548958,39.7894738 34.7142857,38.8469152 34.7142857,37.6842106 L34.7142857,12.4210526 C34.7142857,11.2583479 33.7548958,10.3157895 32.5714286,10.3157895 L30.2456544,10.3157895 C29.8043867,11.5423317 28.6137868,12.4210526 27.2142857,12.4210526 L20.7857143,12.4210526 C19.3862132,12.4210526 18.1956133,11.5423317 17.7543456,10.3157895 Z M30.4285714,32.631579 C31.6120386,32.631579 32.5714286,33.5741375 32.5714286,34.7368421 C32.5714286,35.8995468 31.6120386,36.8421053 30.4285714,36.8421053 L17.5714286,36.8421053 C16.3879612,36.8421053 15.4285714,35.8995468 15.4285714,34.7368421 C15.4285714,33.5741375 16.3879612,32.631579 17.5714286,32.631579 L30.4285714,32.631579 Z M30.4285714,26.3157895 C31.6120386,26.3157895 32.5714286,27.258348 32.5714286,28.4210526 C32.5714286,29.5837573 31.6120386,30.5263158 30.4285714,30.5263158 L17.5714286,30.5263158 C16.3879612,30.5263158 15.4285714,29.5837573 15.4285714,28.4210526 C15.4285714,27.258348 16.3879612,26.3157895 17.5714286,26.3157895 L30.4285714,26.3157895 Z M30.4285714,20 C31.6120386,20 32.5714286,20.9425584 32.5714286,22.1052632 C32.5714286,23.2679678 31.6120386,24.2105263 30.4285714,24.2105263 L17.5714286,24.2105263 C16.3879612,24.2105263 15.4285714,23.2679678 15.4285714,22.1052632 C15.4285714,20.9425584 16.3879612,20 17.5714286,20 L30.4285714,20 Z" id="Color" fill="#333333"></path>
    </g>
</svg>