<?xml version="1.0" encoding="UTF-8"?>
<svg width="48px" height="48px" viewBox="0 0 48 48" version="1.1" xmlns="http://www.w3.org/2000/svg" xmlns:xlink="http://www.w3.org/1999/xlink">
    <title>icon/pause</title>
    <g id="icon/pause" stroke="none" stroke-width="1" fill="none" fill-rule="evenodd">
        <path d="M16.6875,8 C18.8621212,8 20.625,9.7628788 20.625,11.9375 L20.625,36.0625 C20.625,38.2371212 18.8621212,40 16.6875,40 C14.5128788,40 12.75,38.2371212 12.75,36.0625 L12.75,11.9375 C12.75,9.7628788 14.5128788,8 16.6875,8 Z M31.3125,8 C33.4871212,8 35.25,9.7628788 35.25,11.9375 L35.25,36.0625 C35.25,38.2371212 33.4871212,40 31.3125,40 C29.1378788,40 27.375,38.2371212 27.375,36.0625 L27.375,11.9375 C27.375,9.7628788 29.1378788,8 31.3125,8 Z" id="Color" fill="#333333"></path>
    </g>
</svg>