<?xml version="1.0" encoding="UTF-8"?>
<svg width="48px" height="48px" viewBox="0 0 48 48" version="1.1" xmlns="http://www.w3.org/2000/svg" xmlns:xlink="http://www.w3.org/1999/xlink">
    <title>icon/phone</title>
    <g id="icon/phone" stroke="none" stroke-width="1" fill="none" fill-rule="evenodd">
        <path d="M6.56507324,20.0694981 L6.45519445,19.6574754 L6.364102,19.2842768 C5.59030263,15.9184187 6.05838268,12.3699506 7.68714532,9.31179269 C8.59645454,7.56728058 10.2867253,6.36184056 12.2185121,6.07471223 C13.9507591,5.80044749 15.7090626,6.28872703 17.0600331,7.41702584 L17.269896,7.60047915 L17.4670276,7.79039552 L20.6027012,10.9251216 C22.382372,12.7075057 22.8871799,15.400655 21.8767724,17.7123824 C21.5003694,18.5778838 20.9876151,19.3765115 20.356184,20.0810918 L20.245506,20.2002373 L20.2557645,20.2599947 C20.2947456,20.4576601 20.382238,20.7139481 20.5145402,21.0095099 L20.599269,21.1914051 L20.6945746,21.3817972 C21.2412512,22.43851 22.1489141,23.6561829 23.2502472,24.7571005 C24.3534286,25.8598658 25.5715154,26.7673907 26.6265667,27.3121384 C27.0145718,27.5124745 27.3568495,27.6501854 27.6199944,27.7190439 L27.8034772,27.7582086 L27.9287004,27.6409416 C28.429845,27.1936269 28.9800431,26.8055331 29.5670008,26.4846913 L29.9234883,26.3003206 L30.288208,26.132476 C32.4321197,25.1950949 34.9087292,25.5574447 36.6986177,27.0581525 L36.8946164,27.2295742 L37.0797906,27.4066948 L40.2138796,30.5428424 C40.6526082,30.9825913 41.0216212,31.4867245 41.3083057,32.0379855 C42.8689362,35.0386328 41.698674,38.7445837 38.7035872,40.3107491 C36.6349417,41.4133375 34.3293621,41.9928236 31.9853225,41.9986085 C31.1095607,41.9986085 30.2361427,41.9215615 29.3648956,41.7659889 L28.8424065,41.6632242 L28.3528963,41.5489589 C20.0316606,39.4772976 8.94309917,28.4903875 6.56507324,20.0694981 Z M10.791461,18.5585674 C12.5012491,25.3945467 22.6132429,35.5082647 29.439017,37.2184404 C31.8489349,37.8577132 34.4152425,37.5536872 36.6156383,36.3682276 C37.0959586,36.1198447 37.427996,35.6557231 37.5076742,35.1213621 C37.5804469,34.6591251 37.4521362,34.1915337 37.1604989,33.8339963 L37.0435528,33.7053039 L33.9103148,30.5715115 C33.4335415,30.0885773 32.7091376,29.9472587 32.0833023,30.2149504 C31.5960141,30.4223879 31.1501709,30.716623 30.7674484,31.0831373 C28.1687947,33.6837449 23.5301067,31.3658517 20.0843011,27.9224419 C16.6415198,24.4654608 14.3269642,19.8305135 16.9272345,17.2374684 C17.2946022,16.852003 17.5887915,16.4028856 17.7952856,15.9123174 C18.0400284,15.3388939 17.941642,14.6830132 17.5521803,14.2105799 L17.4387858,14.0864826 L14.3055673,10.9526708 C13.9983295,10.6418891 13.5790303,10.4676591 13.1412197,10.4684525 C13.0569701,10.4684525 12.9729047,10.4750951 12.8897397,10.488486 C12.3569089,10.5673274 11.8932649,10.8968788 11.6431044,11.3746129 C10.4575226,13.5774836 10.1530237,16.1460054 10.791461,18.5585674 Z" id="Color" fill="#333333"></path>
    </g>
</svg>