<?xml version="1.0" encoding="UTF-8"?>
<svg width="48px" height="48px" viewBox="0 0 48 48" version="1.1" xmlns="http://www.w3.org/2000/svg" xmlns:xlink="http://www.w3.org/1999/xlink">
    <title>icon/play</title>
    <g id="icon/play" stroke="none" stroke-width="1" fill="none" fill-rule="evenodd">
        <path d="M8.4,4.13556189 C5.9699471,4.13556189 4,6.10502592 4,8.53448293 L4,39.4557748 C4,40.1786951 4.17821125,40.8904734 4.5188686,41.5281435 C5.66368695,43.6711076 8.32938731,44.4804921 10.472877,43.3359545 L42.7306602,26.1115905 C44.4231133,25.2078884 44.4231133,22.7823694 42.7306602,21.8786672 L10.472877,4.65430325 C9.91477879,4.35630117 9.29992757,4.18264138 8.67051617,4.14388271 L8.4,4.13556189 Z M9.53450855,9.59348821 L36.506,23.9951289 L9.53449617,38.3958029 C9.29090068,38.5258639 8.98799229,38.4338259 8.85793135,38.1902304 C8.81924031,38.1177647 8.799,38.0368822 8.799,37.9547343 L8.799,10.0345502 C8.799,9.75840787 9.02285763,9.53455025 9.299,9.53455025 C9.38115267,9.53455025 9.46203971,9.5547929 9.53450855,9.59348821 Z" id="Color" fill="#333333"></path>
    </g>
</svg>