<?xml version="1.0" encoding="UTF-8"?>
<svg width="48px" height="48px" viewBox="0 0 48 48" version="1.1" xmlns="http://www.w3.org/2000/svg" xmlns:xlink="http://www.w3.org/1999/xlink">
    <title>icon/print</title>
    <g id="icon/print" stroke="none" stroke-width="1" fill="none" fill-rule="evenodd">
        <path d="M30,4 C32.209139,4 34,5.790861 34,8 L33.999,14 L38,14 C41.3137084,14 44,16.6862915 44,20 L44,32 C44,35.3137084 41.3137084,38 38,38 L33.999,38 L34,40 C34,42.209139 32.209139,44 30,44 L18,44 C15.790861,44 14,42.209139 14,40 L13.999,38 L10,38 C6.6862915,38 4,35.3137084 4,32 L4,20 C4,16.6862915 6.6862915,14 10,14 L13.999,14 L14,8 C14,5.790861 15.790861,4 18,4 L30,4 Z M30,32 L18,32 L18,40 L30,40 L30,32 Z M38,18 L10,18 C8.8954305,18 8,18.8954305 8,20 L8,32 C8,33.1045694 8.8954305,34 10,34 L13.999,34 L13.999,31.999 L12,32 C10.8954305,32 10,31.1045694 10,30 C10,28.8954306 10.8954305,28 12,28 L36,28 C37.1045694,28 38,28.8954306 38,30 C38,31.1045694 37.1045694,32 36,32 L33.999,31.999 L33.999,34 L38,34 C39.1045694,34 40,33.1045694 40,32 L40,20 C40,18.8954305 39.1045694,18 38,18 Z M13,21 C14.1045695,21 15,21.8954306 15,23 C15,24.1045694 14.1045695,25 13,25 C11.8954305,25 11,24.1045694 11,23 C11,21.8954306 11.8954305,21 13,21 Z M30,8 L18,8 L18,14 L30,14 L30,8 Z" id="Color" fill="#333333"></path>
    </g>
</svg>