<?xml version="1.0" encoding="UTF-8"?>
<svg width="48px" height="48px" viewBox="0 0 48 48" version="1.1" xmlns="http://www.w3.org/2000/svg" xmlns:xlink="http://www.w3.org/1999/xlink">
    <title>icon/profile</title>
    <g id="icon/profile" stroke="none" stroke-width="1" fill="none" fill-rule="evenodd">
        <path d="M24,24 C37.044175,24 43.3417711,30.2965618 41.7609475,42.0733716 C41.6128676,43.1765364 40.6713492,44 39.5581108,44 L8.44188923,44 C7.32865072,44 6.3871324,43.1765364 6.23905248,42.0733716 C4.65822892,30.2965618 10.9558251,24 24,24 Z M24,28.4444444 C14.2988332,28.4444444 10.0857277,31.9325616 10.463934,39.5555556 L37.5360661,39.5555556 C37.9142724,31.9325616 33.7011669,28.4444444 24,28.4444444 Z M24,4 C28.9100042,4 32.890349,7.97969111 32.890349,12.8888889 C32.890349,17.7980867 28.9100042,21.7777778 24,21.7777778 C19.0899958,21.7777778 15.109651,17.7980867 15.109651,12.8888889 C15.109651,7.97969111 19.0899958,4 24,4 Z M24,8.44444444 C21.5449979,8.44444444 19.5548255,10.43429 19.5548255,12.8888889 C19.5548255,15.3434878 21.5449979,17.3333333 24,17.3333333 C26.4550021,17.3333333 28.4451745,15.3434878 28.4451745,12.8888889 C28.4451745,10.43429 26.4550021,8.44444444 24,8.44444444 Z" id="Color" fill="#333333"></path>
    </g>
</svg>