<?xml version="1.0" encoding="UTF-8"?>
<svg width="48px" height="48px" viewBox="0 0 48 48" version="1.1" xmlns="http://www.w3.org/2000/svg" xmlns:xlink="http://www.w3.org/1999/xlink">
    <title>icon/record audio</title>
    <g id="icon/record-audio" stroke="none" stroke-width="1" fill="none" fill-rule="evenodd">
        <path d="M38,20 C39.1045694,20 40,20.8954306 40,22 C40,30.1589629 33.8930309,36.8915668 26.0007904,37.8761139 L26,42 C26,43.1045694 25.1045694,44 24,44 C22.8954306,44 22,43.1045694 22,42 L22.0002073,37.8762383 C14.1074838,36.8921342 8,30.1593067 8,22 C8,20.8954306 8.8954305,20 10,20 C11.1045695,20 12,20.8954306 12,22 C12,28.627417 17.372583,34 24,34 C30.627417,34 36,28.627417 36,22 C36,20.8954306 36.8954306,20 38,20 Z M24,4 C29.5228474,4 34,8.4771525 34,14 L34,22 C34,27.5228474 29.5228474,32 24,32 C18.4771525,32 14,27.5228474 14,22 L14,14 C14,8.4771525 18.4771525,4 24,4 Z M24,8 C20.6862916,8 18,10.6862915 18,14 L18,22 C18,25.3137084 20.6862916,28 24,28 C27.3137084,28 30,25.3137084 30,22 L30,14 C30,10.6862915 27.3137084,8 24,8 Z" id="Color" fill="#333333"></path>
    </g>
</svg>