<?xml version="1.0" encoding="UTF-8"?>
<svg width="48px" height="48px" viewBox="0 0 48 48" version="1.1" xmlns="http://www.w3.org/2000/svg" xmlns:xlink="http://www.w3.org/1999/xlink">
    <title>icon/record video</title>
    <g id="icon/record-video" stroke="none" stroke-width="1" fill="none" fill-rule="evenodd">
        <path d="M28.8333333,12.5 C31.8325462,12.5 34.3177839,14.7005901 34.7625037,17.5752278 L42.0905519,14.6430466 C43.4042807,14.1175551 44.8333333,15.0850708 44.8333333,16.5 L44.8333333,32.5 C44.8333333,33.9149292 43.4042807,34.8824448 42.0905519,34.3569534 L34.7625037,31.4247721 C34.3177839,34.2994098 31.8325462,36.5 28.8333333,36.5 L10.8333333,36.5 C7.51962479,36.5 4.83333329,33.8137084 4.83333329,30.5 L4.83333329,18.5 C4.83333329,15.1862915 7.51962479,12.5 10.8333333,12.5 L28.8333333,12.5 Z M28.8333333,16.5 L10.8333333,16.5 C9.72876379,16.5 8.83333329,17.3954305 8.83333329,18.5 L8.83333329,30.5 C8.83333329,31.6045694 9.72876379,32.5 10.8333333,32.5 L28.8333333,32.5 C29.9379027,32.5 30.8333333,31.6045694 30.8333333,30.5 L30.8333333,18.5 C30.8333333,17.3954305 29.9379027,16.5 28.8333333,16.5 Z M40.8333333,19.4540659 L34.8333333,21.854066 L34.8333333,27.145934 L40.8333333,29.545934 L40.8333333,19.4540659 Z" id="Color" fill="#333333"></path>
    </g>
</svg>