<?xml version="1.0" encoding="UTF-8"?>
<svg width="48px" height="48px" viewBox="0 0 48 48" version="1.1" xmlns="http://www.w3.org/2000/svg" xmlns:xlink="http://www.w3.org/1999/xlink">
    <title>icon/save</title>
    <g id="icon/save" stroke="none" stroke-width="1" fill="none" fill-rule="evenodd">
        <path d="M30.3431458,4 C31.9344446,4 33.4605682,4.63214104 34.5857864,5.75735932 L42.2426406,13.4142136 C43.367859,14.5394318 44,16.0655553 44,17.6568542 L44,38 C44,41.3137084 41.3137084,44 38,44 L10,44 C6.6862915,44 4,41.3137084 4,38 L4,10 C4,6.6862915 6.6862915,4 10,4 L30.3431458,4 Z M30.3431458,8 L30,7.999 L30,14 C30,15.1045695 29.1045694,16 28,16 L14,16 C12.8954305,16 12,15.1045695 12,14 L12,7.999 L10,8 C8.8954305,8 8,8.8954305 8,10 L8,38 C8,39.1045694 8.8954305,40 10,40 L38,40 C39.1045694,40 40,39.1045694 40,38 L40,17.6568542 C40,17.1264213 39.7892864,16.6177134 39.4142136,16.2426407 L31.7573594,8.58578644 C31.3822866,8.21071368 30.8735788,8 30.3431458,8 Z M24,22 C27.3137084,22 30,24.6862916 30,28 C30,31.3137084 27.3137084,34 24,34 C20.6862916,34 18,31.3137084 18,28 C18,24.6862916 20.6862916,22 24,22 Z M24,26 C22.8954306,26 22,26.8954306 22,28 C22,29.1045694 22.8954306,30 24,30 C25.1045694,30 26,29.1045694 26,28 C26,26.8954306 25.1045694,26 24,26 Z M26,8 L16,8 L16,12 L26,12 L26,8 Z" id="Color" fill="#333333"></path>
    </g>
</svg>