<?xml version="1.0" encoding="UTF-8"?>
<svg width="48px" height="48px" viewBox="0 0 48 48" version="1.1" xmlns="http://www.w3.org/2000/svg" xmlns:xlink="http://www.w3.org/1999/xlink">
    <title>icon/search</title>
    <g id="icon/search" stroke="none" stroke-width="1" fill="none" fill-rule="evenodd">
        <path d="M35.7988222,31.7198356 L40.8528147,36.7723503 C42.0490618,37.9682475 42.0490618,39.9071799 40.8528147,41.1030771 C39.6565677,42.2989743 37.7170681,42.2989743 36.5208211,41.1030771 L31.4668286,36.0505625 C31.0680796,35.6519301 31.0680796,35.0056193 31.4668286,34.6069869 L34.3548243,31.7198356 C34.7535733,31.3212032 35.4000732,31.3212032 35.7988222,31.7198356 Z M21.5659103,6 C30.024654,6 36.8818206,12.8551614 36.8818206,21.3114316 C36.8818206,29.7677017 30.024654,36.6228631 21.5659103,36.6228631 C13.1071666,36.6228631 6.25,29.7677017 6.25,21.3114316 C6.25,12.8551614 13.1071666,6 21.5659103,6 Z M21.5659103,10.0830484 C15.3628316,10.0830484 10.3342427,15.1101668 10.3342427,21.3114316 C10.3342427,27.5126963 15.3628316,32.5398147 21.5659103,32.5398147 C27.768989,32.5398147 32.7975779,27.5126963 32.7975779,21.3114316 C32.7975779,15.1101668 27.768989,10.0830484 21.5659103,10.0830484 Z M25.2820763,11.8015189 C28.2001923,12.9418404 30.4492318,15.3752792 31.3490526,18.3813318 C31.6723882,19.4615066 31.0585927,20.5991999 29.9781019,20.9224409 C28.9467244,21.2309891 27.8629231,20.6859135 27.4853086,19.6962516 L27.4362495,19.5518911 C26.8974078,17.7517699 25.5445372,16.2879772 23.7951561,15.6043659 C22.7447217,15.1938843 22.2260348,14.0098269 22.6366365,12.9596997 C23.0472382,11.9095724 24.2316419,11.3910372 25.2820763,11.8015189 Z" id="Color" fill="#333333"></path>
    </g>
</svg>