<?xml version="1.0" encoding="UTF-8"?>
<svg width="48px" height="48px" viewBox="0 0 48 48" version="1.1" xmlns="http://www.w3.org/2000/svg" xmlns:xlink="http://www.w3.org/1999/xlink">
    <title>icon/settings</title>
    <g id="icon/settings" stroke="none" stroke-width="1" fill="none" fill-rule="evenodd">
        <path d="M24,4 C26.9799532,4 29.5032505,5.95517625 30.3570607,8.65269772 C32.8682316,7.3489971 36.0349907,7.75071932 38.1421356,9.85786439 C40.2492807,11.9650095 40.651003,15.1317684 39.3473023,17.6429393 C42.0448239,18.4967497 44,21.0200469 44,24 C44,26.9799532 42.0448239,29.5032505 39.3473023,30.3570607 C40.651003,32.8682316 40.2492807,36.0349907 38.1421356,38.1421356 C36.0349907,40.2492807 32.8682316,40.651003 30.3570607,39.3473023 C29.5032505,42.0448239 26.9799532,44 24,44 C21.0200469,44 18.4967497,42.0448239 17.6429393,39.3473023 C15.1317684,40.651003 11.9650095,40.2492807 9.85786439,38.1421356 C7.75071932,36.0349907 7.3489971,32.8682316 8.65269772,30.3570607 C5.95517625,29.5032505 4,26.9799532 4,24 C4,21.0200469 5.95517625,18.4967497 8.65269772,17.6429393 C7.3489971,15.1317684 7.75071932,11.9650095 9.85786439,9.85786439 C11.9650095,7.75071932 15.1317684,7.3489971 17.6429393,8.65269772 C18.4967497,5.95517625 21.0200469,4 24,4 Z M24,8.44444445 C22.7727007,8.44444445 21.7777778,9.43936723 21.7777778,10.6666667 L21.7777778,11.4253587 C21.7777778,12.3671742 21.1840836,13.2067022 20.2961025,13.5205585 C19.9263325,13.6512534 19.5641069,13.8015092 19.2107559,13.9706068 C18.3607009,14.3774045 17.346501,14.2038042 16.6801385,13.5374417 L16.143258,13.0005612 C15.2754262,12.1327294 13.868393,12.1327294 13.0005612,13.0005612 C12.1327294,13.868393 12.1327294,15.2754262 13.0005612,16.143258 L13.5374417,16.6801385 C14.2038042,17.346501 14.3774045,18.3607009 13.9706068,19.2107559 C13.8015092,19.5641069 13.6512534,19.9263325 13.5205585,20.2961025 C13.2067022,21.1840836 12.3671742,21.7777778 11.4253587,21.7777778 L10.6666667,21.7777778 C9.43936723,21.7777778 8.44444445,22.7727007 8.44444445,24 C8.44444445,25.2272994 9.43936723,26.2222223 10.6666667,26.2222223 L11.4253587,26.2222223 C12.3671742,26.2222223 13.2067022,26.8159165 13.5205585,27.7038976 C13.6512534,28.0736676 13.8015092,28.4358932 13.9706068,28.7892441 C14.3774045,29.6392992 14.2038042,30.6534992 13.5374417,31.3198616 L13.0005612,31.8567421 C12.1327294,32.7245738 12.1327294,34.1316072 13.0005612,34.999439 C13.868393,35.8672707 15.2754262,35.8672707 16.143258,34.999439 L16.6801385,34.4625583 C17.346501,33.7961958 18.3607009,33.6225956 19.2107559,34.0293932 C19.5641069,34.198491 19.9263325,34.3487467 20.2961025,34.4794416 C21.1840836,34.7932978 21.7777778,35.6328258 21.7777778,36.5746414 L21.7777778,37.3333334 C21.7777778,38.5606327 22.7727007,39.5555556 24,39.5555556 C25.2272994,39.5555556 26.2222223,38.5606327 26.2222223,37.3333334 L26.2222223,36.5746414 C26.2222223,35.6328258 26.8159165,34.7932978 27.7038976,34.4794416 C28.0736676,34.3487467 28.4358932,34.198491 28.7892441,34.0293932 C29.6392992,33.6225956 30.6534992,33.7961958 31.3198616,34.4625583 L31.8567421,34.999439 C32.7245738,35.8672707 34.1316072,35.8672707 34.999439,34.999439 C35.8672707,34.1316072 35.8672707,32.7245738 34.999439,31.8567421 L34.4625583,31.3198616 C33.7961958,30.6534992 33.6225956,29.6392992 34.0293932,28.7892441 C34.198491,28.4358932 34.3487467,28.0736676 34.4794416,27.7038976 C34.7932978,26.8159165 35.6328258,26.2222223 36.5746414,26.2222223 L37.3333334,26.2222223 C38.5606327,26.2222223 39.5555556,25.2272994 39.5555556,24 C39.5555556,22.7727007 38.5606327,21.7777778 37.3333334,21.7777778 L36.5746414,21.7777778 C35.6328258,21.7777778 34.7932978,21.1840836 34.4794416,20.2961025 C34.3487467,19.9263325 34.198491,19.5641069 34.0293932,19.2107559 C33.6225956,18.3607009 33.7961958,17.346501 34.4625583,16.6801385 L34.999439,16.143258 C35.8672707,15.2754262 35.8672707,13.868393 34.999439,13.0005612 C34.1316072,12.1327294 32.7245738,12.1327294 31.8567421,13.0005612 L31.3198616,13.5374417 C30.6534992,14.2038042 29.6392992,14.3774045 28.7892441,13.9706068 C28.4358932,13.8015092 28.0736676,13.6512534 27.7038976,13.5205585 C26.8159165,13.2067022 26.2222223,12.3671742 26.2222223,11.4253587 L26.2222223,10.6666667 C26.2222223,9.43936723 25.2272994,8.44444445 24,8.44444445 Z M24,19.5555556 C26.4545989,19.5555556 28.4444445,21.5454011 28.4444445,24 C28.4444445,26.4545989 26.4545989,28.4444445 24,28.4444445 C21.5454011,28.4444445 19.5555556,26.4545989 19.5555556,24 C19.5555556,21.5454011 21.5454011,19.5555556 24,19.5555556 Z" id="Color" fill="#333333"></path>
    </g>
</svg>