<?xml version="1.0" encoding="UTF-8"?>
<svg width="48px" height="48px" viewBox="0 0 48 48" version="1.1" xmlns="http://www.w3.org/2000/svg" xmlns:xlink="http://www.w3.org/1999/xlink">
    <title>icon/share</title>
    <g id="icon/share" stroke="none" stroke-width="1" fill="none" fill-rule="evenodd">
        <path d="M41.5,31 C42.8254834,31 43.9100387,32.0315359 43.9946823,33.3356243 L44,33.5 L44,39.5 C44,41.9142733 42.0987635,43.8844891 39.7118357,43.995102 L39.5,44 L8.5,44 C6.08572667,44 4.11551091,42.0987635 4.00489799,39.7118357 L4,39.5 L4,33.5 C4,32.1192881 5.11928813,31 6.5,31 C7.8254834,31 8.91003867,32.0315359 8.99468232,33.3356243 L9,33.5 L9,38 C9,38.5522847 9.44771525,39 10,39 L38,39 C38.5522847,39 39,38.5522847 39,38 L39,33.5 C39,32.1745166 40.0315359,31.0899613 41.3356243,31.0053177 L41.5,31 Z M22.6395784,4.5339669 C23.4068044,3.82201103 24.5931956,3.82201103 25.3604216,4.5339669 L25.3604216,4.5339669 L37.2200132,15.3230891 L37.3678301,15.4724432 C38.2085497,16.3978312 38.2172713,17.8313481 37.3546983,18.7679106 C36.4442046,19.7565044 34.9077021,19.8170325 33.9228239,18.9031039 L33.9228239,18.9031039 L26.428,12.1645486 L26.4285698,32.5638166 L26.4219085,32.7457476 C26.3291989,34.007103 25.2802956,35.0015486 24,35.0015486 C22.658738,35.0015486 21.5714302,33.9101387 21.5714302,32.5638166 L21.5714302,32.5638166 L21.571,12.1655486 L14.0771761,18.9031039 L13.9172566,19.0393172 C12.9322949,19.8080903 11.5078746,19.7044732 10.6453017,18.7679106 C9.73480798,17.7793169 9.79510855,16.2370177 10.7799868,15.3230891 L10.7799868,15.3230891 Z" id="Color" fill="#333333"></path>
    </g>
</svg>