<?xml version="1.0" encoding="UTF-8"?>
<svg width="48px" height="48px" viewBox="0 0 48 48" version="1.1" xmlns="http://www.w3.org/2000/svg" xmlns:xlink="http://www.w3.org/1999/xlink">
    <title>icon/sign out</title>
    <g id="icon/sign-out" stroke="none" stroke-width="1" fill="none" fill-rule="evenodd">
        <path d="M34.9907254,34 L34.9907254,38 C34.9907254,41.3137085 32.3052124,44 28.9924644,44 L10.998261,44 C7.68551293,44 5,41.3137085 5,38 L5,10 C5,6.6862915 7.68551293,4 10.998261,4 L28.9924644,4 C32.3052124,4 34.9907254,6.6862915 34.9907254,10 L34.9907254,14 C34.9907254,15.1045695 34.0955544,16 32.991305,16 C31.8870557,16 30.9918847,15.1045695 30.9918847,14 L30.9918847,10 C30.9918847,8.8954305 30.0967137,8 28.9924644,8 L10.998261,8 C9.89401165,8 8.99884067,8.8954305 8.99884067,10 L8.99884067,38 C8.99884067,39.1045695 9.89401165,40 10.998261,40 L28.9924644,40 C30.0967137,40 30.9918847,39.1045695 30.9918847,38 L30.9918847,34 C30.9918847,32.8954305 31.8870557,32 32.991305,32 C34.0955544,32 34.9907254,32.8954305 34.9907254,34 Z M38.4097341,18.58 C37.6257171,17.7957557 36.3545743,17.7957557 35.5705573,18.58 C34.7865402,19.3642443 34.7865402,20.6357557 35.5705573,21.42 L36.1703834,22 L22.9942034,22 C21.889954,22 20.994783,22.8954305 20.994783,24 C20.994783,25.1045695 21.889954,26 22.9942034,26 L36.1703834,26 L35.5705573,26.58 C35.1920417,26.9555332 34.9791321,27.4667249 34.9791321,28 C34.9791321,28.5332751 35.1920417,29.0444668 35.5705573,29.42 C35.9459816,29.7986253 36.4570252,30.0115966 36.9901457,30.0115966 C37.5232662,30.0115966 38.0343098,29.7986253 38.4097341,29.42 L42.4085748,25.42 C42.7870904,25.0444668 43,24.5332751 43,24 C43,23.4667249 42.7870904,22.9555332 42.4085748,22.58 L38.4097341,18.58 Z" id="Color" fill="#333333"></path>
    </g>
</svg>