<?xml version="1.0" encoding="UTF-8"?>
<svg width="48px" height="48px" viewBox="0 0 48 48" version="1.1" xmlns="http://www.w3.org/2000/svg" xmlns:xlink="http://www.w3.org/1999/xlink">
    <title>icon/sort up</title>
    <g id="icon/sort-up" stroke="none" stroke-width="1" fill="none" fill-rule="evenodd">
        <path d="M13.9815567,44 C15.0365667,44 15.9009011,43.1840936 15.9772971,42.1491975 L15.9827863,41.9999299 L15.9827863,10.8270378 L20.5716056,15.4129985 C21.3563845,16.1738745 22.6069231,16.1644143 23.3800874,15.3917525 C24.112559,14.6597571 24.159685,13.499515 23.5153389,12.712479 L23.4015443,12.5848994 L15.3966261,4.58461909 C14.6556932,3.84615287 13.48068,3.80728623 12.6940545,4.46801916 L12.5666874,4.58461909 L4.56176919,12.5848994 C3.80335881,13.3696846 3.81420514,14.6171401 4.58614702,15.3886348 C5.31746038,16.1195244 6.47619954,16.1677213 7.26381227,15.5262903 L7.39150778,15.4129985 L11.9803271,10.8270378 L11.9803271,41.9999299 C11.9803271,43.1045381 12.8763081,44 13.9815567,44 Z M35.9950818,20 C37.1003303,20 37.9963113,20.8954619 37.9963113,22.0000701 C37.9963113,23.0544688 37.179932,23.9183024 36.1444359,23.9946542 L35.9950818,24.0001401 L21.9864749,24.0001401 C20.8812263,24.0001401 19.9852454,23.1046783 19.9852454,22.0000701 C19.9852454,20.9456713 20.8016247,20.0818377 21.8371208,20.0054859 L21.9864749,20 L35.9950818,20 Z M41.9987704,28.0001401 C43.104019,28.0001401 44,28.895602 44,30.0002102 C44,31.054609 43.1836206,31.9184425 42.1481246,31.9947944 L41.9987704,32.0002803 L21.9864749,32.0002803 C20.8812263,32.0002803 19.9852454,31.1048184 19.9852454,30.0002102 C19.9852454,28.9458115 20.8016247,28.0819779 21.8371208,28.0056261 L21.9864749,28.0001401 L41.9987704,28.0001401 Z M41.9987704,36.0002803 C43.104019,36.0002803 44,36.8957422 44,38.0003504 C44,39.0547491 43.1836206,39.9185827 42.1481246,39.9949345 L41.9987704,40.0004204 L21.9864749,40.0004204 C20.8812263,40.0004204 19.9852454,39.1049586 19.9852454,38.0003504 C19.9852454,36.9459516 20.8016247,36.082118 21.8371208,36.0057662 L21.9864749,36.0002803 L41.9987704,36.0002803 Z" id="Color" fill="#333333"></path>
    </g>
</svg>