<?xml version="1.0" encoding="UTF-8"?>
<svg width="48px" height="48px" viewBox="0 0 48 48" version="1.1" xmlns="http://www.w3.org/2000/svg" xmlns:xlink="http://www.w3.org/1999/xlink">
    <title>icon/sort latest up</title>
    <g id="icon/sort-latest-up" stroke="none" stroke-width="1" fill="none" fill-rule="evenodd">
        <path d="M13.9815567,44 C15.0407532,44 15.9077579,43.1776189 15.9781694,42.1368978 L15.9827863,41.999963 L15.9827863,10.8275856 L20.5716056,15.4134705 C21.3563845,16.174334 22.6069231,16.1648739 23.3800874,15.3922249 C24.118108,14.6546963 24.1603597,13.4824149 23.5005756,12.6951734 L23.4015443,12.5854182 L15.3966261,4.58526998 C14.6504281,3.84038092 13.4625514,3.80652232 12.6762007,4.4836942 L12.5666874,4.58526998 L4.56176919,12.5854182 C3.80335881,13.3701905 3.81420514,14.6176253 4.58614702,15.3891072 C5.32300063,16.1255218 6.49378073,16.168872 7.28164832,15.512064 L7.39150778,15.4134705 L11.9803271,10.8275856 L11.9803271,41.999963 C11.9803271,43.1045529 12.8763081,44 13.9815567,44 Z M31.9926227,20 C38.6210965,20.007275 43.9927207,25.3756982 44,32.0002223 C44,38.627762 38.6241141,44.0004445 31.9926227,44.0004445 C25.3611313,44.0004445 19.9852454,38.627762 19.9852454,32.0002223 C19.9852454,25.3726825 25.3611313,20 31.9926227,20 Z M31.9926227,24.0000741 C27.5716284,24.0000741 23.9877045,27.5818624 23.9877045,32.0002223 C23.9877045,36.4185821 27.5716284,40.0003704 31.9926227,40.0003704 C36.4115139,39.9953005 39.9924679,36.4164803 39.9975409,32.0002223 C39.9975409,27.5818624 36.4136169,24.0000741 31.9926227,24.0000741 Z M31.9926227,26.0001111 C33.0518192,26.0001111 33.9188238,26.8224922 33.9892353,27.8632134 L33.9938522,28.0001482 L33.9938522,31.1720069 L35.4087215,32.5862331 C36.1671319,33.3710054 36.1562856,34.6184403 35.3843437,35.3899222 C34.6474901,36.1263367 33.47671,36.1696869 32.6888424,35.512879 L32.5789829,35.4142855 L30.5777534,33.4142485 C30.239957,33.0767553 30.0353341,32.6310122 29.9977049,32.1585773 L29.9913931,32.0002223 L29.9913931,28.0001482 C29.9913931,26.8955582 30.8873741,26.0001111 31.9926227,26.0001111 Z" id="Shape" fill="#333333"></path>
    </g>
</svg>