<?xml version="1.0" encoding="UTF-8"?>
<svg width="48px" height="48px" viewBox="0 0 48 48" version="1.1" xmlns="http://www.w3.org/2000/svg" xmlns:xlink="http://www.w3.org/1999/xlink">
    <title>icon/sort alphabet down</title>
    <g id="icon/sort-alphabet-down" stroke="none" stroke-width="1" fill="none" fill-rule="evenodd">
        <path d="M13.9984118,4 C15.0552033,4 15.9209972,4.8158929 15.9975223,5.85077193 L16.0030207,6.00003704 L16.0030207,37.1724144 L20.5995889,32.5865295 C21.385693,31.825666 22.6383432,31.8351261 23.4128132,32.6077751 C24.1465216,33.3397584 24.1937272,34.4999814 23.548293,35.2870043 L23.4343063,35.4145818 L15.4158708,43.41473 C14.6740326,44.1540184 13.496398,44.1929283 12.7086866,43.5314598 L12.5811533,43.41473 L4.56271781,35.4145818 C3.80302675,34.6298095 3.8138914,33.3823747 4.5871368,32.6108928 C5.31968507,31.8800152 6.48038092,31.8318191 7.26932363,32.4732395 L7.39723477,32.5865295 L11.9938029,37.1724144 L11.9938029,6.00003704 C11.9938029,4.89544709 12.8912969,4 13.9984118,4 Z M40.4614571,24 C41.0563059,24 41.5978202,24.334997 41.8522379,24.860109 C42.0854541,25.3413928 42.0388956,25.9035631 41.7388021,26.3398343 L41.6506922,26.4555406 L32.791546,36.9953384 L38.6922484,36.9953384 C38.6922484,36.1656357 39.381049,35.4930076 40.2307008,35.4930076 C41.0331497,35.4930076 41.6921234,36.0929753 41.762866,36.8585974 L41.7691533,36.9953384 L41.7691533,38.4976692 C41.7691533,39.2812773 41.1547601,39.9247787 40.3707296,39.9938604 L40.2307008,40 L29.5384524,40 C28.9436808,40 28.4020894,39.6651536 28.1477488,39.1399662 C27.9146032,38.6586135 27.9611676,38.0964374 28.2612615,37.6602237 L28.3493715,37.5445347 L37.2084406,27.0046616 L31.0769049,27.0048121 C31.0769049,27.8345148 30.3881043,28.507143 29.5384524,28.507143 C28.7360035,28.507143 28.0770299,27.9071753 28.0062873,27.1415531 L28,27.0048121 L28,25.5023308 C28,24.7187227 28.6143932,24.0752213 29.3984237,24.0061396 L29.5384524,24 L40.4614571,24 Z M35.0000385,4 C38.7794618,4 41.8688491,6.93997035 41.9959332,10.6010589 L42,10.8357034 L42,18.4976551 C42,19.3273655 41.3111949,20 40.4615376,20 C39.6590835,20 39.0001056,19.4000267 38.9293625,18.6343973 L38.9230752,18.4976551 L38.9230752,15.4178517 L31.0769248,15.4178517 L31.0769248,18.4976551 C31.0769248,19.3273655 30.3881197,20 29.5384624,20 C28.7360083,20 28.0770304,19.4000267 28.0062873,18.6343973 L28,18.4976551 L28,10.8357034 C28,7.06640638 31.140202,4 35.0000385,4 Z M35.0000385,7.00468989 C32.9044197,7.00468989 31.187312,8.61753549 31.0820393,10.6388569 L31.0769248,10.8357034 L31.0769248,12.4131618 L38.9231523,12.4131618 L38.9231523,10.8357034 C38.9231523,8.72319308 37.1631809,7.00468989 35.0000385,7.00468989 Z" id="Color" fill="#333333"></path>
    </g>
</svg>