<?xml version="1.0" encoding="UTF-8"?>
<svg width="48px" height="48px" viewBox="0 0 48 48" version="1.1" xmlns="http://www.w3.org/2000/svg" xmlns:xlink="http://www.w3.org/1999/xlink">
    <title>icon/sort alphabet up</title>
    <g id="icon/sort-alphabet-up" stroke="none" stroke-width="1" fill="none" fill-rule="evenodd">
        <path d="M15.4158708,4.58526998 L23.4343063,12.5854182 C24.1968534,13.3697832 24.1872831,14.6195759 23.4128132,15.3922249 C22.6383432,16.1648739 21.385693,16.174334 20.5995889,15.4134705 L16.0030207,10.8275856 L16.0030207,41.999963 C16.0030207,43.1045529 15.1055267,44 13.9984118,44 C12.8912969,44 11.9938029,43.1045529 11.9938029,41.999963 L11.9938029,10.8275856 L7.39723477,15.4134705 C6.61066857,16.171429 5.3603822,16.1605891 4.5871368,15.3891072 C3.8138914,14.6176253 3.80302675,13.3701905 4.56271781,12.5854182 L12.5811533,4.58526998 C13.3642047,3.80491001 14.6328194,3.80491001 15.4158708,4.58526998 Z M40.4614571,28 C41.0563059,28 41.5978202,28.334997 41.8522379,28.860109 C42.0854541,29.3413928 42.0388956,29.9035631 41.7388021,30.3398343 L41.6506922,30.4555406 L32.791546,40.9953384 L38.6922484,40.9953384 C38.6922484,40.1656357 39.381049,39.4930076 40.2307008,39.4930076 C41.0331497,39.4930076 41.6921234,40.0929753 41.762866,40.8585974 L41.7691533,40.9953384 L41.7691533,42.4976692 C41.7691533,43.2812773 41.1547601,43.9247787 40.3707296,43.9938604 L40.2307008,44 L29.5384524,44 C28.9436808,44 28.4020894,43.6651536 28.1477488,43.1399662 C27.9146032,42.6586135 27.9611676,42.0964374 28.2612615,41.6602237 L28.3493715,41.5445347 L37.2084406,31.0046616 L31.0769049,31.0048121 C31.0769049,31.8345148 30.3881043,32.507143 29.5384524,32.507143 C28.7360035,32.507143 28.0770299,31.9071753 28.0062873,31.1415531 L28,31.0048121 L28,29.5023308 C28,28.7187227 28.6143932,28.0752213 29.3984237,28.0061396 L29.5384524,28 L40.4614571,28 Z M35.0000385,8 C38.7794618,8 41.8688491,10.9399704 41.9959332,14.6010589 L42,14.8357034 L42,22.4976551 C42,23.3273655 41.3111949,24 40.4615376,24 C39.6590835,24 39.0001056,23.4000267 38.9293625,22.6343973 L38.9230752,22.4976551 L38.9230752,19.4178517 L31.0769248,19.4178517 L31.0769248,22.4976551 C31.0769248,23.3273655 30.3881197,24 29.5384624,24 C28.7360083,24 28.0770304,23.4000267 28.0062873,22.6343973 L28,22.4976551 L28,14.8357034 C28,11.0664064 31.140202,8 35.0000385,8 Z M35.0000385,11.0046899 C32.9044197,11.0046899 31.187312,12.6175355 31.0820393,14.6388569 L31.0769248,14.8357034 L31.0769248,16.4131618 L38.9231523,16.4131618 L38.9231523,14.8357034 C38.9231523,12.7231931 37.1631809,11.0046899 35.0000385,11.0046899 Z" id="Color" fill="#333333"></path>
    </g>
</svg>