<?xml version="1.0" encoding="UTF-8"?>
<svg width="48px" height="48px" viewBox="0 0 48 48" version="1.1" xmlns="http://www.w3.org/2000/svg" xmlns:xlink="http://www.w3.org/1999/xlink">
    <title>icon/sort latest down</title>
    <g id="icon/sort-latest-down" stroke="none" stroke-width="1" fill="none" fill-rule="evenodd">
        <path d="M13.9815567,4 C15.0407532,4 15.9077579,4.82238109 15.9781694,5.86310223 L15.9827863,6.00003704 L15.9827863,37.1724144 L20.5716056,32.5865295 C21.3563845,31.825666 22.6069231,31.8351261 23.3800874,32.6077751 C24.118108,33.3453037 24.1603597,34.5175851 23.5005756,35.3048266 L23.4015443,35.4145818 L15.3966261,43.41473 C14.6504281,44.1596191 13.4625514,44.1934777 12.6762007,43.5163058 L12.5666874,43.41473 L4.56176919,35.4145818 C3.80335881,34.6298095 3.81420514,33.3823747 4.58614702,32.6108928 C5.32300063,31.8744782 6.49378073,31.831128 7.28164832,32.487936 L7.39150778,32.5865295 L11.9803271,37.1724144 L11.9803271,6.00003704 C11.9803271,4.89544709 12.8763081,4 13.9815567,4 Z M31.9926227,4 C38.6210965,4.00727498 43.9927207,9.37569825 44,16.0002223 C44,22.627762 38.6241141,28.0004445 31.9926227,28.0004445 C25.3611313,28.0004445 19.9852454,22.627762 19.9852454,16.0002223 C19.9852454,9.37268251 25.3611313,4 31.9926227,4 Z M31.9926227,8.00007409 C27.5716284,8.00007409 23.9877045,11.5818624 23.9877045,16.0002223 C23.9877045,20.4185821 27.5716284,24.0003704 31.9926227,24.0003704 C36.4115139,23.9953005 39.9924679,20.4164803 39.9975409,16.0002223 C39.9975409,11.5818624 36.4136169,8.00007409 31.9926227,8.00007409 Z M31.9926227,10.0001111 C33.0518192,10.0001111 33.9188238,10.8224922 33.9892353,11.8632134 L33.9938522,12.0001482 L33.9938522,15.1720069 L35.4087215,16.5862331 C36.1671319,17.3710054 36.1562856,18.6184403 35.3843437,19.3899222 C34.6474901,20.1263367 33.47671,20.1696869 32.6888424,19.512879 L32.5789829,19.4142855 L30.5777534,17.4142485 C30.239957,17.0767553 30.0353341,16.6310122 29.9977049,16.1585773 L29.9913931,16.0002223 L29.9913931,12.0001482 C29.9913931,10.8955582 30.8873741,10.0001111 31.9926227,10.0001111 Z" id="Color" fill="#333333"></path>
    </g>
</svg>