<?xml version="1.0" encoding="UTF-8"?>
<svg width="48px" height="48px" viewBox="0 0 48 48" version="1.1" xmlns="http://www.w3.org/2000/svg" xmlns:xlink="http://www.w3.org/1999/xlink">
    <title>icon/sort down</title>
    <g id="icon/sort-down" stroke="none" stroke-width="1" fill="none" fill-rule="evenodd">
        <path d="M13.9815567,4 C15.0365667,4 15.9009011,4.81590638 15.9772971,5.8508025 L15.9827863,6.00007007 L15.9827863,37.1729622 L20.5716056,32.5870015 C21.3563845,31.8261255 22.6069231,31.8355857 23.3800874,32.6082475 C24.112559,33.3402429 24.159685,34.500485 23.5153389,35.287521 L23.4015443,35.4151006 L15.3966261,43.4153809 C14.6556932,44.1538471 13.48068,44.1927138 12.6940545,43.5319808 L12.5666874,43.4153809 L4.56176919,35.4151006 C3.80335881,34.6303154 3.81420514,33.3828599 4.58614702,32.6113652 C5.31746038,31.8804756 6.47619954,31.8322787 7.26381227,32.4737097 L7.39150778,32.5870015 L11.9803271,37.1729622 L11.9803271,6.00007007 C11.9803271,4.89546187 12.8763081,4 13.9815567,4 Z M35.9950818,24.0007007 C37.1003303,24.0007007 37.9963113,24.8961626 37.9963113,26.0007708 C37.9963113,27.0551695 37.179932,27.9190031 36.1444359,27.9953549 L35.9950818,28.0008409 L21.9864749,28.0008409 C20.8812263,28.0008409 19.9852454,27.105379 19.9852454,26.0007708 C19.9852454,24.9463721 20.8016247,24.0825385 21.8371208,24.0061866 L21.9864749,24.0007007 L35.9950818,24.0007007 Z M41.9987704,16.0004204 C43.104019,16.0004204 44,16.8958823 44,18.0004905 C44,19.0548892 43.1836206,19.9187228 42.1481246,19.9950746 L41.9987704,20.0005606 L21.9864749,20.0005606 C20.8812263,20.0005606 19.9852454,19.1050987 19.9852454,18.0004905 C19.9852454,16.9460918 20.8016247,16.0822582 21.8371208,16.0059064 L21.9864749,16.0004204 L41.9987704,16.0004204 Z M41.9987704,8.00014014 C43.104019,8.00014014 44,8.89560202 44,10.0002102 C44,11.054609 43.1836206,11.9184425 42.1481246,11.9947944 L41.9987704,12.0002803 L21.9864749,12.0002803 C20.8812263,12.0002803 19.9852454,11.1048184 19.9852454,10.0002102 C19.9852454,8.94581148 20.8016247,8.08197789 21.8371208,8.00562607 L21.9864749,8.00014014 L41.9987704,8.00014014 Z" id="Color" fill="#333333"></path>
    </g>
</svg>