<?xml version="1.0" encoding="UTF-8"?>
<svg width="48px" height="48px" viewBox="0 0 48 48" version="1.1" xmlns="http://www.w3.org/2000/svg" xmlns:xlink="http://www.w3.org/1999/xlink">
    <title>icon/subscribe</title>
    <g id="icon/subscribe" stroke="none" stroke-width="1" fill="none" fill-rule="evenodd">
        <path d="M25.6666666,11.1666666 C32.7640983,11.1666666 38.6279899,16.4480806 39.5426715,23.2952388 C39.9032164,23.210601 40.2798108,23.1666666 40.6666666,23.1666666 C43.4280904,23.1666666 45.6666666,25.4052428 45.6666666,28.1666666 L45.6666666,32.1666666 C45.6666666,34.9280904 43.4280904,37.1666666 40.6666666,37.1666666 C37.9052428,37.1666666 35.6666666,34.9280904 35.6666666,32.1666666 L35.6666666,25.1666666 C35.6666666,19.6438191 31.189514,15.1666666 25.6666666,15.1666666 C20.1438191,15.1666666 15.6666666,19.6438191 15.6666666,25.1666666 L15.6666666,32.1666666 C15.6666666,34.9280904 13.4280904,37.1666666 10.6666666,37.1666666 C7.90524288,37.1666666 5.66666662,34.9280904 5.66666662,32.1666666 L5.66666662,28.1666666 C5.66666662,25.4052428 7.90524288,23.1666666 10.6666666,23.1666666 C11.0535224,23.1666666 11.4301168,23.210601 11.7917325,23.2937523 C12.7053433,16.4480806 18.5692348,11.1666666 25.6666666,11.1666666 Z M33.0808802,25.752453 C33.8619288,26.5335016 33.8619288,27.7998316 33.0808802,28.5808802 L29.0808802,32.5808802 C28.4721596,33.1896006 27.5422168,33.3405096 26.7722394,32.955521 L24.0615726,31.6001876 L21.0808802,34.5808802 C20.2998316,35.3619288 19.0335016,35.3619288 18.2524531,34.5808802 C17.4714045,33.7998316 17.4714045,32.5335016 18.2524531,31.752453 L22.252453,27.752453 C22.8611736,27.1437326 23.7911164,26.9928236 24.5610938,27.3778122 L27.2717606,28.7331456 L30.252453,25.752453 C31.0335016,24.9714044 32.2998316,24.9714044 33.0808802,25.752453 Z M10.6666666,27.1666666 C10.1143819,27.1666666 9.66666662,27.6143818 9.66666662,28.1666666 L9.66666662,32.1666666 C9.66666662,32.7189514 10.1143819,33.1666666 10.6666666,33.1666666 C11.2189514,33.1666666 11.6666666,32.7189514 11.6666666,32.1666666 L11.6666666,28.1666666 C11.6666666,27.6143818 11.2189514,27.1666666 10.6666666,27.1666666 Z M40.6666666,27.1666666 C40.1143818,27.1666666 39.6666666,27.6143818 39.6666666,28.1666666 L39.6666666,32.1666666 C39.6666666,32.7189514 40.1143818,33.1666666 40.6666666,33.1666666 C41.2189514,33.1666666 41.6666666,32.7189514 41.6666666,32.1666666 L41.6666666,28.1666666 C41.6666666,27.6143818 41.2189514,27.1666666 40.6666666,27.1666666 Z" id="Color" fill="#333333"></path>
    </g>
</svg>