<?xml version="1.0" encoding="UTF-8"?>
<svg width="48px" height="48px" viewBox="0 0 48 48" version="1.1" xmlns="http://www.w3.org/2000/svg" xmlns:xlink="http://www.w3.org/1999/xlink">
    <title>icon/tag</title>
    <g id="icon/tag" stroke="none" stroke-width="1" fill="none" fill-rule="evenodd">
        <path d="M37.1173041,4 C40.918512,4 44,7.08148798 44,10.8826958 L44,18.7156936 C44,21.7580343 42.7914348,24.6757687 40.6401751,26.8270284 L25.4830984,41.9841051 C22.7952385,44.671965 18.4373565,44.671965 15.7494966,41.9841051 L6.0158949,32.2505033 C3.32803507,29.5626435 3.32803499,25.2047615 6.0158949,22.5169016 L21.1729716,7.35982486 C23.3242313,5.2085652 26.2419657,4 29.2843064,4 L37.1173041,4 Z M37.1173041,8.58846383 L29.2843064,8.58846383 C27.4589019,8.58846383 25.7082613,9.31360304 24.4175055,10.6043588 L9.26042881,25.7614355 C8.36447551,26.6573888 8.36447559,28.1100162 9.26042881,29.0059694 L18.9940306,38.7395712 C19.8899839,39.6355245 21.3426112,39.6355245 22.2385645,38.7395712 L37.3956412,23.5824944 C38.6863969,22.2917387 39.4115361,20.541098 39.4115361,18.7156936 L39.4115361,10.8826958 C39.4115361,9.61562665 38.3843733,8.58846383 37.1173041,8.58846383 Z M30.5816517,15.1921253 C31.477605,14.296172 32.9302323,14.296172 33.8261856,15.1921253 C34.7221389,16.0880786 34.7221389,17.540706 33.8261856,18.4366593 C32.9302323,19.3326126 31.477605,19.3326125 30.5816517,18.4366592 C29.6856984,17.5407059 29.6856984,16.0880786 30.5816517,15.1921253 Z" id="Color" fill="#333333"></path>
    </g>
</svg>