<?xml version="1.0" encoding="UTF-8"?>
<svg width="48px" height="48px" viewBox="0 0 48 48" version="1.1" xmlns="http://www.w3.org/2000/svg" xmlns:xlink="http://www.w3.org/1999/xlink">
    <title>icon/task done</title>
    <g id="icon/task-done" stroke="none" stroke-width="1" fill="none" fill-rule="evenodd">
        <path d="M23.8836951,7.21308276 C25.0465294,7.21308276 25.989193,8.15558183 25.989193,9.31820352 C25.989193,10.4808252 25.0465294,11.4233163 23.8836951,11.4233163 L11.0533037,11.4233083 C10.0358272,11.4233083 9.21100074,12.2479826 9.21100074,13.2652688 L9.21099585,36.9478094 C9.21099585,37.965098 10.0358245,38.7897744 11.0533037,38.7897744 L34.740161,38.7897744 C35.7576403,38.7897744 36.5824689,37.965098 36.5824689,36.9478094 L36.5824689,25.1065445 C36.5824689,23.943923 37.5251323,23.0014318 38.6879668,23.0014318 C39.8508011,23.0014318 40.7934648,23.943923 40.7934648,25.1065445 L40.7934648,36.9478094 C40.7934648,40.2903426 38.0833076,43 34.740161,43 L11.0533037,43 C7.71015712,43 5,40.2903426 5,36.947809 L5,13.2652684 C5,9.92273787 7.71015981,7.21308276 11.0533055,7.21308276 L23.8836951,7.21308276 Z M42.209838,5.46130367 C43.1177221,6.1874781 43.264919,7.51200934 42.5386119,8.41972733 L27.6975381,27.4676762 C26.9137263,28.4472616 25.4522963,28.5281883 24.5650816,27.6411359 L16.1443618,19.2219564 C15.322313,18.3999076 15.322313,17.0673757 16.1443618,16.2453269 C16.9664105,15.4232783 18.2994119,15.4233533 19.1215359,16.2453269 L25.8791095,23.0016644 L39.2508731,5.79001742 C39.9771804,4.88229958 41.301954,4.73512937 42.209838,5.46130367 Z" id="Color" fill="#333333"></path>
    </g>
</svg>