<?xml version="1.0" encoding="UTF-8"?>
<svg width="48px" height="48px" viewBox="0 0 48 48" version="1.1" xmlns="http://www.w3.org/2000/svg" xmlns:xlink="http://www.w3.org/1999/xlink">
    <title>icon/task list</title>
    <g id="icon/task-list" stroke="none" stroke-width="1" fill="none" fill-rule="evenodd">
        <path d="M11.3333333,31.5 C13.2930534,31.5 14.8936899,33.0374197 14.9949175,34.9719338 L15,35.1666667 L15,38.8333333 C15,40.7930534 13.4625803,42.3936899 11.5280662,42.4949175 L11.3333333,42.5 L7.66666667,42.5 C5.70694659,42.5 4.10631012,40.9625803 4.0050825,39.0280662 L4,38.8333333 L4,35.1666667 C4,33.2069466 5.53741969,31.6063101 7.47193384,31.5050825 L7.66666667,31.5 L11.3333333,31.5 Z M41,34.5 C42.6568542,34.5 44,35.8431458 44,37.5 C44,39.1568542 42.6568542,40.5 41,40.5 L20.5,40.5 C18.8431458,40.5 17.5,39.1568542 17.5,37.5 C17.5,35.8431458 18.8431458,34.5 20.5,34.5 L41,34.5 Z M10.25,35.5 L8.75,35.5 C8.36537312,35.5 8.04836963,35.7895301 8.0050458,36.1625342 L8,36.25 L8,37.75 C8,38.1346269 8.28953014,38.4516304 8.66253416,38.4949542 L8.75,38.5 L10.25,38.5 C10.6346269,38.5 10.9516304,38.2104699 10.9949542,37.8374658 L11,37.75 L11,36.25 C11,35.8653731 10.7104699,35.5483696 10.3374658,35.5050458 L10.25,35.5 Z M11.3333333,18.5 C13.2930534,18.5 14.8936899,20.0374197 14.9949175,21.9719338 L15,22.1666667 L15,25.8333333 C15,27.7930534 13.4625803,29.3936899 11.5280662,29.4949175 L11.3333333,29.5 L7.66666667,29.5 C5.70694659,29.5 4.10631012,27.9625803 4.0050825,26.0280662 L4,25.8333333 L4,22.1666667 C4,20.2069466 5.53741969,18.6063101 7.47193384,18.5050825 L7.66666667,18.5 L11.3333333,18.5 Z M41,21.5 C42.6568542,21.5 44,22.8431458 44,24.5 C44,26.1568542 42.6568542,27.5 41,27.5 L20.5,27.5 C18.8431458,27.5 17.5,26.1568542 17.5,24.5 C17.5,22.8431458 18.8431458,21.5 20.5,21.5 L41,21.5 Z M10.25,22.5 L8.75,22.5 C8.36537312,22.5 8.04836963,22.7895301 8.0050458,23.1625342 L8,23.25 L8,24.75 C8,25.1346269 8.28953014,25.4516304 8.66253416,25.4949542 L8.75,25.5 L10.25,25.5 C10.6346269,25.5 10.9516304,25.2104699 10.9949542,24.8374658 L11,24.75 L11,23.25 C11,22.8653731 10.7104699,22.5483696 10.3374658,22.5050458 L10.25,22.5 Z M11.3333333,5.5 C13.2930534,5.5 14.8936899,7.03741969 14.9949175,8.97193384 L15,9.16666667 L15,12.8333333 C15,14.7930534 13.4625803,16.3936899 11.5280662,16.4949175 L11.3333333,16.5 L7.66666667,16.5 C5.70694659,16.5 4.10631012,14.9625803 4.0050825,13.0280662 L4,12.8333333 L4,9.16666667 C4,7.20694659 5.53741969,5.60631012 7.47193384,5.5050825 L7.66666667,5.5 L11.3333333,5.5 Z M41,8 C42.6568542,8 44,9.34314575 44,11 C44,12.6568542 42.6568542,14 41,14 L20.5,14 C18.8431458,14 17.5,12.6568542 17.5,11 C17.5,9.34314575 18.8431458,8 20.5,8 L41,8 Z M10.25,9.5 L8.75,9.5 C8.36537312,9.5 8.04836963,9.78953014 8.0050458,10.1625342 L8,10.25 L8,11.75 C8,12.1346269 8.28953014,12.4516304 8.66253416,12.4949542 L8.75,12.5 L10.25,12.5 C10.6346269,12.5 10.9516304,12.2104699 10.9949542,11.8374658 L11,11.75 L11,10.25 C11,9.86537312 10.7104699,9.54836963 10.3374658,9.5050458 L10.25,9.5 Z" id="Color" fill="#333333"></path>
    </g>
</svg>