<?xml version="1.0" encoding="UTF-8"?>
<svg width="48px" height="48px" viewBox="0 0 48 48" version="1.1" xmlns="http://www.w3.org/2000/svg" xmlns:xlink="http://www.w3.org/1999/xlink">
    <title>icon/text area</title>
    <g id="icon/text-area" stroke="none" stroke-width="1" fill="none" fill-rule="evenodd">
        <path d="M38.2615824,36.6769621 C39.5743248,35.3642197 41.7027008,35.3642197 43.0154432,36.6769621 C44.3281856,37.9897045 44.3281856,40.1180805 43.0154432,41.4308229 L41.4308229,43.0154432 C40.1180805,44.3281856 37.9897045,44.3281856 36.6769621,43.0154432 C35.3642197,41.7027008 35.3642197,39.5743248 36.6769621,38.2615824 L38.2615824,36.6769621 Z M38.2615824,20.8307595 C39.5743248,19.5180171 41.7027008,19.5180171 43.0154432,20.8307595 C44.3281856,22.1435019 44.3281856,24.2718779 43.0154432,25.5846203 L25.5846203,43.0154432 C24.2718779,44.3281856 22.1435019,44.3281856 20.8307595,43.0154432 C19.5180171,41.7027008 19.5180171,39.5743248 20.8307595,38.2615824 L38.2615824,20.8307595 Z M38.2615824,4.98455681 C39.5743248,3.6718144 41.7027008,3.6718144 43.0154432,4.98455681 C44.3281856,6.29729922 44.3281856,8.4256752 43.0154432,9.73841761 L9.73841761,43.0154432 C8.4256752,44.3281856 6.29729922,44.3281856 4.98455681,43.0154432 C3.6718144,41.7027008 3.6718144,39.5743248 4.98455681,38.2615824 L38.2615824,4.98455681 Z" id="Color" fill="#333333"></path>
    </g>
</svg>