<?xml version="1.0" encoding="UTF-8"?>
<svg width="48px" height="48px" viewBox="0 0 48 48" version="1.1" xmlns="http://www.w3.org/2000/svg" xmlns:xlink="http://www.w3.org/1999/xlink">
    <title>icon/time</title>
    <g id="icon/time" stroke="none" stroke-width="1" fill="none" fill-rule="evenodd">
        <path d="M24,9.40540541 C33.6649831,9.40540541 41.5,17.1496692 41.5,26.7027027 C41.5,36.2557362 33.6649831,44 24,44 C14.3350169,44 6.5,36.2557362 6.5,26.7027027 C6.5,17.1496692 14.3350169,9.40540541 24,9.40540541 Z M24,13.7297297 C16.7512627,13.7297297 10.875,19.5379276 10.875,26.7027027 C10.875,33.8674778 16.7512627,39.6756757 24,39.6756757 C31.2487373,39.6756757 37.125,33.8674778 37.125,26.7027027 C37.125,19.5379276 31.2487373,13.7297297 24,13.7297297 Z M21.44511,19.0168644 L25.3175006,24.7581693 L29.897754,25.6636093 C31.082416,25.8977974 31.8507026,27.0368787 31.6137703,28.2078186 C31.3768378,29.3787587 30.2244079,30.1381462 29.039746,29.9039583 L23.570996,28.8228772 C23.0021012,28.710416 22.5017053,28.3791864 22.17989,27.9020545 L17.80489,21.415568 C17.134744,20.4219924 17.4063743,19.0795722 18.4115933,18.4171886 C19.4168123,17.7548049 20.7749639,18.0232889 21.44511,19.0168644 Z M26.1875,4 C27.3956228,4 28.375,4.96803297 28.375,6.16216216 C28.375,7.35629135 27.3956228,8.32432432 26.1875,8.32432432 L21.8125,8.32432432 C20.6043772,8.32432432 19.625,7.35629135 19.625,6.16216216 C19.625,4.96803297 20.6043772,4 21.8125,4 L26.1875,4 Z" id="Color" fill="#333333"></path>
    </g>
</svg>