<?xml version="1.0" encoding="UTF-8"?>
<svg width="48px" height="48px" viewBox="0 0 48 48" version="1.1" xmlns="http://www.w3.org/2000/svg" xmlns:xlink="http://www.w3.org/1999/xlink">
    <title>icon/unlock</title>
    <g id="icon/unlock" stroke="none" stroke-width="1" fill="none" fill-rule="evenodd">
        <path d="M25.5087719,4.83333329 C27.9938586,4.83333329 30.3074104,5.91881074 31.8958409,7.76609506 C32.6539058,8.6476958 32.5537603,9.97690744 31.6721597,10.7349724 C30.8346389,11.4551341 29.5931494,11.4007608 28.8211482,10.6376607 L28.7032822,10.5112911 C27.9064809,9.58464138 26.7538761,9.04385961 25.5087719,9.04385961 C23.1833624,9.04385961 21.2982456,10.9289764 21.2982456,13.2543859 L21.2976666,15.3593333 L36.0350877,15.3596491 C39.5232018,15.3596491 42.3508772,18.1873243 42.3508772,21.6754386 L42.3508772,38.5175438 C42.3508772,42.0056579 39.5232018,44.8333333 36.0350877,44.8333333 L14.9824561,44.8333333 C11.4943419,44.8333333 8.66666663,42.0056579 8.66666663,38.5175438 L8.66666663,21.6754386 C8.66666663,18.1873243 11.4943419,15.3596491 14.9824561,15.3596491 L17.0876666,15.3593333 L17.0877193,13.2543859 C17.0877193,8.60356698 20.8579529,4.83333329 25.5087719,4.83333329 Z M36.0350877,19.5701754 L14.9824561,19.5701754 C13.8197514,19.5701754 12.8771929,20.5127338 12.8771929,21.6754386 L12.8771929,38.5175438 C12.8771929,39.6802484 13.8197514,40.622807 14.9824561,40.622807 L36.0350877,40.622807 C37.1977923,40.622807 38.1403508,39.6802484 38.1403508,38.5175438 L38.1403508,21.6754386 C38.1403508,20.5127338 37.1977923,19.5701754 36.0350877,19.5701754 Z M25.5087719,23.7807017 C27.8341814,23.7807017 29.7192982,25.6658186 29.7192982,27.991228 C29.7192982,29.5496475 28.87264,30.9103193 27.614204,31.6383632 L27.6140351,34.3070175 C27.6140351,35.4697221 26.6714765,36.4122807 25.5087719,36.4122807 C24.3460673,36.4122807 23.4035087,35.4697221 23.4035087,34.3070175 L23.4033398,31.6383632 C22.1449038,30.9103193 21.2982456,29.5496475 21.2982456,27.991228 C21.2982456,25.6658186 23.1833624,23.7807017 25.5087719,23.7807017 Z" id="Color" fill="#333333"></path>
    </g>
</svg>