<?xml version="1.0" encoding="UTF-8"?>
<svg width="48px" height="48px" viewBox="0 0 48 48" version="1.1" xmlns="http://www.w3.org/2000/svg" xmlns:xlink="http://www.w3.org/1999/xlink">
    <title>icon/upload</title>
    <g id="icon/upload" stroke="none" stroke-width="1" fill="none" fill-rule="evenodd">
        <path d="M22.6492659,17.6752153 L16.6035029,23.7102149 C15.8615067,24.4508901 15.8615067,25.6517618 16.6035029,26.3924369 C17.345499,27.1331121 18.5485125,27.1331121 19.2905087,26.3924369 L22.1,23.5881041 L22.1,39.1033826 C22.1,40.1508555 22.950659,41 24,41 C25.049341,41 25.9,40.1508555 25.9,39.1033826 L25.9,23.5691379 L28.7292659,26.3924369 C29.471262,27.1331121 30.6742755,27.1331121 31.4162716,26.3924369 C32.1582678,25.6517618 32.1582678,24.4508901 31.4162716,23.7102149 L25.3705087,17.6752153 C25.0190368,17.3243692 24.5641234,17.1397134 24.1037657,17.1212478 L23.9160089,17.1212478 C23.4556511,17.1397134 23.0007377,17.3243692 22.6492659,17.6752153 Z M29.6435644,7 C35.1874777,7 39.7311803,11.2747875 40.1471652,16.7024236 L40.1645102,16.9747516 L40.175396,17.3027636 L40.2559392,17.3825432 C41.8503712,19.0039453 42.8303945,21.1508032 42.9799542,23.4662496 L42.9951809,23.7830037 L43,24.0883349 C43,29.2894006 38.8465803,33.5221102 33.6700219,33.6617558 L30.650589,33.6645495 C29.6489457,33.6648592 28.8280923,32.8914097 28.7552555,31.9100659 L28.75,31.7679322 L28.75,31.4346159 C28.75,30.3882006 29.5990062,29.5394947 30.6472867,29.5380004 L33.4059406,29.5340679 C36.3488311,29.5340679 38.7474736,27.2080133 38.8574468,24.2972196 L38.8613861,24.0883349 C38.8613861,22.4874107 38.1672749,21.0042547 36.9856255,19.9788745 L36.7950279,19.8208262 L36.3489138,19.4674339 C36.0872514,19.2601563 35.9462702,18.9359831 35.9730842,18.6032486 L36.0187041,18.0371521 L36.0187041,18.0371521 C36.0326073,17.8646278 36.039604,17.6908012 36.039604,17.5158984 C36.039604,13.9897521 33.1759995,11.1312458 29.6435644,11.1312458 C27.8714829,11.1312458 26.220613,11.8521655 25.0240446,13.1004013 L24.8389367,13.301845 L24.278717,13.9379021 C23.9721149,14.2860093 23.4663703,14.3775621 23.0571918,14.1590297 L22.3086661,13.7592602 L22.3086661,13.7592602 C21.3906201,13.2689539 20.3649113,13.0090848 19.2970297,13.0090848 C15.7645946,13.0090848 12.9009901,15.8675911 12.9009901,19.3937374 C12.9009901,19.603428 12.9110468,19.8114695 12.9309751,20.017214 L12.9682483,20.3240271 L13.0972175,21.2051784 C13.1673599,21.684409 12.883987,22.1450175 12.4246047,22.2984771 L11.5773813,22.5814976 L11.5773813,22.5814976 C10.1328823,23.0640419 9.13861386,24.4202041 9.13861386,25.9661739 C9.13861386,27.8750894 10.6404106,29.4338661 12.5289405,29.5294254 L12.7128713,29.5340679 L17.35,29.5338149 C18.3516437,29.5334207 19.1722992,30.3070645 19.2448847,31.2884264 L19.2497475,31.4303285 L19.2497077,31.7294609 C19.2495685,32.7757788 18.4006014,33.6243316 17.3524184,33.6258243 C14.856237,33.6385732 13.4921,33.6476331 13.2600074,33.6530039 L12.975815,33.6608876 L12.7128713,33.6653137 C8.4531701,33.6653137 5,30.2182914 5,25.9661739 C5,23.3388715 6.33024811,20.9665553 8.41974032,19.5682473 L8.64649375,19.4221884 L8.76237624,19.3524249 L8.76581693,19.1223173 C8.90542066,13.6218576 13.2761516,9.171021 18.7505028,8.89174653 L19.0251256,8.88127357 L19.2970297,8.877839 C20.2832296,8.877839 21.2512408,9.01377665 22.1791285,9.27673185 L22.5742743,9.39717751 L22.8383663,9.48813667 L22.8744166,9.45778885 C24.5779439,8.02971581 26.7038899,7.16386492 28.9741047,7.02101546 L29.3156842,7.00503065 L29.6435644,7 Z" id="Shape" fill="#333333"></path>
    </g>
</svg>