<?xml version="1.0" encoding="UTF-8"?>
<svg width="48px" height="48px" viewBox="0 0 48 48" version="1.1" xmlns="http://www.w3.org/2000/svg" xmlns:xlink="http://www.w3.org/1999/xlink">
    <title>icon/user admin</title>
    <g id="icon/user-admin" stroke="none" stroke-width="1" fill="none" fill-rule="evenodd">
        <path d="M23,24 C25.6093881,24 27.9487986,24.2519693 30.0091711,24.7493732 C30.0628009,24.7623202 30.1353978,24.7881297 30.218869,24.8252506 L30.3056652,24.8660844 C30.7642957,25.0631717 31.149909,25.4318218 31.3582431,25.928761 C31.7853056,26.9474324 31.3057118,28.1194313 30.2870403,28.5464937 C28.8865525,29.1336269 27.7140695,30.1551835 26.9376442,31.5 C25.2142964,34.4849176 25.926946,38.2679836 28.5685231,40.4205646 C29.4247947,41.1183273 29.5759771,42.4081087 28.8782144,43.2643803 C28.5935589,43.6137002 28.2115909,43.836908 27.8009467,43.9313892 L27.6234007,43.9639923 C27.5201125,43.9874902 27.3889972,44 27.2279158,44 L7.44188923,44 C6.32865072,44 5.3871324,43.1765364 5.23905248,42.0733716 C3.65822892,30.2965618 9.95582509,24 23,24 Z M41.5,38.4 C42.3284271,38.4 43,39.0156085 43,39.775 C43,40.4897214 42.4051119,41.077078 41.64446,41.1437056 L41.5,41.15 L33.5,41.15 C32.6715729,41.15 32,40.5343915 32,39.775 C32,39.0602786 32.5948881,38.472922 33.35554,38.4062944 L33.5,38.4 L41.5,38.4 Z M23,28.4444444 C13.2988332,28.4444444 9.08572765,31.9325616 9.46393401,39.5555556 L22.9858734,39.5568307 C21.5607325,36.4170763 21.6418571,32.6725639 23.4735426,29.4999917 C23.6126565,29.2590393 23.7600135,29.0245862 23.9151956,28.7969169 L24.152,28.461 L23.8191655,28.4530223 C23.5505913,28.4472994 23.2775416,28.4444444 23,28.4444444 Z M38.0274611,32.5878144 L38.1707803,32.6451626 L42.1705414,34.4784959 C42.9114648,34.8181062 43.2117834,35.6440316 42.8413217,36.323252 C42.4926518,36.9625183 41.6740634,37.2439941 40.9612526,36.9917616 L40.8289807,36.9381707 L37.5,35.4113333 L34.1710193,36.9381707 C33.4736795,37.2578039 32.6345811,37.0327339 32.2294202,36.4388787 L32.1586783,36.323252 C31.8100084,35.6839857 32.0555246,34.9147662 32.703328,34.5433466 L32.8294586,34.4784959 L36.8292197,32.6451626 C37.2045672,32.473118 37.6389865,32.454002 38.0274611,32.5878144 Z M38.0274611,28.0878144 L38.1707803,28.1451626 L42.1705414,29.9784959 C42.9114648,30.3181062 43.2117834,31.1440316 42.8413217,31.823252 C42.4926518,32.4625183 41.6740634,32.7439941 40.9612526,32.4917616 L40.8289807,32.4381707 L37.5,30.9113333 L34.1710193,32.4381707 C33.4736795,32.7578039 32.6345811,32.5327339 32.2294202,31.9388787 L32.1586783,31.823252 C31.8100084,31.1839857 32.0555246,30.4147662 32.703328,30.0433466 L32.8294586,29.9784959 L36.8292197,28.1451626 C37.2045672,27.973118 37.6389865,27.954002 38.0274611,28.0878144 Z M23,4 C27.9100042,4 31.890349,7.97969111 31.890349,12.8888889 C31.890349,17.7980867 27.9100042,21.7777778 23,21.7777778 C18.0899958,21.7777778 14.109651,17.7980867 14.109651,12.8888889 C14.109651,7.97969111 18.0899958,4 23,4 Z M23,8.44444444 C20.5449979,8.44444444 18.5548255,10.43429 18.5548255,12.8888889 C18.5548255,15.3434878 20.5449979,17.3333333 23,17.3333333 C25.4550021,17.3333333 27.4451745,15.3434878 27.4451745,12.8888889 C27.4451745,10.43429 25.4550021,8.44444444 23,8.44444444 Z" id="Color" fill="#333333"></path>
    </g>
</svg>