<?xml version="1.0" encoding="UTF-8"?>
<svg width="48px" height="48px" viewBox="0 0 48 48" version="1.1" xmlns="http://www.w3.org/2000/svg" xmlns:xlink="http://www.w3.org/1999/xlink">
    <title>icon/user settings</title>
    <g id="icon/user-settings" stroke="none" stroke-width="1" fill="none" fill-rule="evenodd">
        <path d="M23.4,24 C26.0093881,24 28.3487986,24.2519693 30.4091711,24.7493732 C30.4628009,24.7623202 30.5353978,24.7881297 30.618869,24.8252506 L30.7056652,24.8660844 C31.1642957,25.0631717 31.549909,25.4318218 31.7582431,25.928761 C32.1853056,26.9474324 31.7057118,28.1194313 30.6870403,28.5464937 C29.2865525,29.1336269 28.1140695,30.1551835 27.3376442,31.5 C25.6142964,34.4849176 26.326946,38.2679836 28.9685231,40.4205646 C29.8247947,41.1183273 29.9759771,42.4081087 29.2782144,43.2643803 C28.9935589,43.6137002 28.6115909,43.836908 28.2009467,43.9313892 L28.0234007,43.9639923 C27.9201125,43.9874902 27.7889972,44 27.6279158,44 L7.84188923,44 C6.72865072,44 5.7871324,43.1765364 5.63905248,42.0733716 C4.05822892,30.2965618 10.3558251,24 23.4,24 Z M35.6,28.2 C36.3434602,28.2 36.9461538,28.8026936 36.9461538,29.5461538 L36.9471047,29.8926241 C37.4650928,30.0236938 37.9536679,30.2286024 38.4009746,30.4954944 L38.6459984,30.2502525 C39.1717042,29.7245468 40.0240417,29.7245468 40.5497475,30.2502525 C41.0754532,30.7759583 41.0754532,31.6282958 40.5497475,32.1540016 L40.3045056,32.3990254 C40.5713976,32.8463321 40.7763062,33.3349072 40.9073759,33.8528953 L41.2538462,33.8538462 C41.9973064,33.8538462 42.6,34.4565398 42.6,35.2 C42.6,35.9434602 41.9973064,36.5461538 41.2538462,36.5461538 L40.907602,36.5462106 C40.7765419,37.0645306 40.5715512,37.5534105 40.3045056,38.0009746 L40.5497475,38.2459984 C41.0754532,38.7717042 41.0754532,39.6240417 40.5497475,40.1497475 C40.0240417,40.6754532 39.1717042,40.6754532 38.6459984,40.1497475 L38.4009746,39.9045056 C37.9536679,40.1713976 37.4650928,40.3763062 36.9471047,40.5073759 L36.9461538,40.8538462 C36.9461538,41.5973064 36.3434602,42.2 35.6,42.2 C34.8565398,42.2 34.2538462,41.5973064 34.2538462,40.8538462 L34.2537894,40.507602 C33.7354694,40.3765419 33.2465895,40.1715512 32.7990254,39.9045056 L32.5540016,40.1497475 C32.0282958,40.6754532 31.1759583,40.6754532 30.6502525,40.1497475 C30.1245468,39.6240417 30.1245468,38.7717042 30.6502525,38.2459984 L30.8954944,38.0009746 C30.6286024,37.5536679 30.4236938,37.0650928 30.2926241,36.5471047 L29.9461538,36.5461538 C29.2026936,36.5461538 28.6,35.9434602 28.6,35.2 C28.6,34.4565398 29.2026936,33.8538462 29.9461538,33.8538462 L30.292398,33.8537894 C30.4234581,33.3354694 30.6284488,32.8465895 30.8954944,32.3990254 L30.6502525,32.1540016 C30.1245468,31.6282958 30.1245468,30.7759583 30.6502525,30.2502525 C31.1759583,29.7245468 32.0282958,29.7245468 32.5540016,30.2502525 L32.7990254,30.4954944 C33.2465895,30.2284488 33.7354694,30.0234581 34.2537894,29.892398 L34.2538462,29.5461538 C34.2538462,28.8026936 34.8565398,28.2 35.6,28.2 Z M23.4,28.4444444 C13.6988332,28.4444444 9.48572765,31.9325616 9.86393401,39.5555556 L23.3858734,39.5568307 C21.9607325,36.4170763 22.0418571,32.6725639 23.8735426,29.4999917 C24.0126565,29.2590393 24.1600135,29.0245862 24.3151956,28.7969169 L24.552,28.461 L24.2191655,28.4530223 C23.9505913,28.4472994 23.6775416,28.4444444 23.4,28.4444444 Z M35.6,32.4179487 C34.0635155,32.4179487 32.8179487,33.6635155 32.8179487,35.2 C32.8179487,36.7364845 34.0635155,37.9820513 35.6,37.9820513 C37.1364845,37.9820513 38.3820513,36.7364845 38.3820513,35.2 C38.3820513,33.6635155 37.1364845,32.4179487 35.6,32.4179487 Z M23.4,4 C28.3100042,4 32.290349,7.97969111 32.290349,12.8888889 C32.290349,17.7980867 28.3100042,21.7777778 23.4,21.7777778 C18.4899958,21.7777778 14.509651,17.7980867 14.509651,12.8888889 C14.509651,7.97969111 18.4899958,4 23.4,4 Z M23.4,8.44444444 C20.9449979,8.44444444 18.9548255,10.43429 18.9548255,12.8888889 C18.9548255,15.3434878 20.9449979,17.3333333 23.4,17.3333333 C25.8550021,17.3333333 27.8451745,15.3434878 27.8451745,12.8888889 C27.8451745,10.43429 25.8550021,8.44444444 23.4,8.44444444 Z" id="Color" fill="#333333"></path>
    </g>
</svg>