<?xml version="1.0" encoding="UTF-8"?>
<svg width="48px" height="48px" viewBox="0 0 48 48" version="1.1" xmlns="http://www.w3.org/2000/svg" xmlns:xlink="http://www.w3.org/1999/xlink">
    <title>icon/user banned</title>
    <g id="icon/user-banned" stroke="none" stroke-width="1" fill="none" fill-rule="evenodd">
        <path d="M23.4,24 C26.0093881,24 28.3487986,24.2519693 30.4091711,24.7493732 C30.4628009,24.7623202 30.5353978,24.7881297 30.618869,24.8252506 L30.7056652,24.8660844 C31.1642957,25.0631717 31.549909,25.4318218 31.7582431,25.928761 C32.1853056,26.9474324 31.7057118,28.1194313 30.6870403,28.5464937 C29.2865525,29.1336269 28.1140695,30.1551835 27.3376442,31.5 C25.6142964,34.4849176 26.326946,38.2679836 28.9685231,40.4205646 C29.8247947,41.1183273 29.9759771,42.4081087 29.2782144,43.2643803 C28.9935589,43.6137002 28.6115909,43.836908 28.2009467,43.9313892 L28.0234007,43.9639923 C27.9201125,43.9874902 27.7889972,44 27.6279158,44 L7.84188923,44 C6.72865072,44 5.7871324,43.1765364 5.63905248,42.0733716 C4.05822892,30.2965618 10.3558251,24 23.4,24 Z M23.4,28.4444444 C13.6988332,28.4444444 9.48572765,31.9325616 9.86393401,39.5555556 L23.3858734,39.5568307 C21.9607325,36.4170763 22.0418571,32.6725639 23.8735426,29.4999917 C24.0126565,29.2590393 24.1600135,29.0245862 24.3151956,28.7969169 L24.552,28.461 L24.2191655,28.4530223 C23.9505913,28.4472994 23.6775416,28.4444444 23.4,28.4444444 Z M36.5,33.5 C37.3284271,33.5 38,34.1715729 38,35 C38,35.8284271 37.3284271,36.5 36.5,36.5 L31.5,36.5 C30.6715729,36.5 30,35.8284271 30,35 C30,34.1715729 30.6715729,33.5 31.5,33.5 L36.5,33.5 Z M23.4,4 C28.3100042,4 32.290349,7.97969111 32.290349,12.8888889 C32.290349,17.7980867 28.3100042,21.7777778 23.4,21.7777778 C18.4899958,21.7777778 14.509651,17.7980867 14.509651,12.8888889 C14.509651,7.97969111 18.4899958,4 23.4,4 Z M23.4,8.44444444 C20.9449979,8.44444444 18.9548255,10.43429 18.9548255,12.8888889 C18.9548255,15.3434878 20.9449979,17.3333333 23.4,17.3333333 C25.8550021,17.3333333 27.8451745,15.3434878 27.8451745,12.8888889 C27.8451745,10.43429 25.8550021,8.44444444 23.4,8.44444444 Z" id="Color" fill="#333333"></path>
    </g>
</svg>