<?xml version="1.0" encoding="UTF-8"?>
<svg width="48px" height="48px" viewBox="0 0 48 48" version="1.1" xmlns="http://www.w3.org/2000/svg" xmlns:xlink="http://www.w3.org/1999/xlink">
    <title>icon/user author</title>
    <g id="icon/user-author" stroke="none" stroke-width="1" fill="none" fill-rule="evenodd">
        <path d="M41.5,29.17 C42.8254834,29.17 43.9100387,30.2015359 43.9946823,31.5056243 L44,31.67 L44,38.5376192 C44,39.6947204 43.4286098,40.771969 42.4824783,41.4220458 L42.3007351,41.5388445 L38.7862394,43.6475419 C38.0473138,44.0908973 37.136465,44.1204543 36.3746163,43.736213 L36.2137606,43.6475419 L32.6992649,41.5388445 C31.7070588,40.9435208 31.0773036,39.899318 31.006648,38.7535551 L31,38.5376192 L31,31.67 C31,30.3445166 32.0315359,29.2599613 33.3356243,29.1753177 L33.5,29.17 L41.5,29.17 Z M23,24 C25.6093881,24 27.9487986,24.2519693 30.0091711,24.7493732 C30.0628009,24.7623202 30.1353978,24.7881297 30.218869,24.8252506 L30.3056652,24.8660844 C30.7642957,25.0631717 31.149909,25.4318218 31.3582431,25.928761 C31.7853056,26.9474324 31.3057118,28.1194313 30.2870403,28.5464937 C28.8865525,29.1336269 27.7140695,30.1551835 26.9376442,31.5 C25.2142964,34.4849176 25.926946,38.2679836 28.5685231,40.4205646 C29.4247947,41.1183273 29.5759771,42.4081087 28.8782144,43.2643803 C28.5935589,43.6137002 28.2115909,43.836908 27.8009467,43.9313892 L27.6234007,43.9639923 C27.5201125,43.9874902 27.3889972,44 27.2279158,44 L7.44188923,44 C6.32865072,44 5.3871324,43.1765364 5.23905248,42.0733716 C3.65822892,30.2965618 9.95582509,24 23,24 Z M41,36.319 L37.500193,38.4191697 L34,36.32 L34,38.5376192 C34,38.6547069 34.0409553,38.7660709 34.1128819,38.8540777 L34.1724779,38.9154278 L34.2427521,38.9663657 L37.5,40.921 L40.7572479,38.9663657 C40.8576497,38.9061246 40.9320722,38.8137094 40.9705315,38.7067538 L40.9924769,38.6240863 L41,38.5376192 L41,36.319 Z M23,28.4444444 C13.2988332,28.4444444 9.08572765,31.9325616 9.46393401,39.5555556 L22.9858734,39.5568307 C21.5607325,36.4170763 21.6418571,32.6725639 23.4735426,29.4999917 C23.6126565,29.2590393 23.7600135,29.0245862 23.9151956,28.7969169 L24.152,28.461 L23.8191655,28.4530223 C23.5505913,28.4472994 23.2775416,28.4444444 23,28.4444444 Z M41,32.17 L34,32.17 L34,32.822 L37.499,34.92 L41,32.82 L41,32.17 Z M23,4 C27.9100042,4 31.890349,7.97969111 31.890349,12.8888889 C31.890349,17.7980867 27.9100042,21.7777778 23,21.7777778 C18.0899958,21.7777778 14.109651,17.7980867 14.109651,12.8888889 C14.109651,7.97969111 18.0899958,4 23,4 Z M23,8.44444444 C20.5449979,8.44444444 18.5548255,10.43429 18.5548255,12.8888889 C18.5548255,15.3434878 20.5449979,17.3333333 23,17.3333333 C25.4550021,17.3333333 27.4451745,15.3434878 27.4451745,12.8888889 C27.4451745,10.43429 25.4550021,8.44444444 23,8.44444444 Z" id="Color" fill="#333333"></path>
    </g>
</svg>