<?xml version="1.0" encoding="UTF-8"?>
<svg width="48px" height="48px" viewBox="0 0 48 48" version="1.1" xmlns="http://www.w3.org/2000/svg" xmlns:xlink="http://www.w3.org/1999/xlink">
    <title>icon/volume down</title>
    <g id="icon/volume-down" stroke="none" stroke-width="1" fill="none" fill-rule="evenodd">
        <path d="M30.181784,12.483515 C30.812488,13.2245786 31.1578947,14.1587492 31.1578947,15.1234576 L31.1578947,32.5519052 C31.1578947,34.829171 29.2727779,36.6752596 26.9473684,36.6752596 C25.8678404,36.6752596 24.8295507,36.2692051 24.046987,35.5409778 L17.6855831,29.6212713 L12.2105263,29.6212713 C9.88511684,29.6212713 8,27.7751827 8,25.4979169 L8,21.3745625 C8,19.0972968 9.88511684,17.2512081 12.2105263,17.2512081 L17.7640169,17.2512081 L24.2516147,11.9560053 C26.0379331,10.4980052 28.6929602,10.7341793 30.181784,12.483515 Z M26.9473684,15.1234576 L19.8741927,20.8966115 C19.4958274,21.2054347 19.0188675,21.3745625 18.5263158,21.3745625 L12.2105263,21.3745625 L12.2105263,25.4979169 L18.5263158,25.4979169 C19.0660798,25.4979169 19.5852247,25.7009443 19.9765065,26.0650577 L26.9473684,32.5519052 L26.9473684,15.1234576 Z M36.4353933,17.5309887 C38.3621112,18.6290494 39.5746274,20.6494781 39.5746274,22.8743253 C39.5746274,25.1040576 38.3567783,27.1282354 36.4233017,28.2245353 C35.417088,28.7950682 34.1291046,28.4587668 33.5465101,27.4733851 C32.9916582,26.5349263 33.2767207,25.3461852 34.1743329,24.742252 L34.3135404,24.6561525 C34.9597175,24.2897638 35.3641011,23.6176409 35.3641011,22.8743253 C35.3641011,22.1896769 35.0210626,21.565403 34.461804,21.1847608 L34.3175581,21.094782 C33.3126387,20.5220658 32.972084,19.2600053 33.556908,18.275891 C34.141732,17.2917766 35.4304737,16.9582726 36.4353933,17.5309887 Z" id="Color" fill="#333333"></path>
    </g>
</svg>