<?xml version="1.0" encoding="UTF-8"?>
<svg width="48px" height="48px" viewBox="0 0 48 48" version="1.1" xmlns="http://www.w3.org/2000/svg" xmlns:xlink="http://www.w3.org/1999/xlink">
    <title>icon/volume up</title>
    <g id="icon/volume-up" stroke="none" stroke-width="1" fill="none" fill-rule="evenodd">
        <path d="M26.181784,12.8082554 C26.812488,13.549319 27.1578947,14.4834896 27.1578947,15.448198 L27.1578947,32.8766456 C27.1578947,35.1539114 25.2727779,37 22.9473684,37 C21.8678404,37 20.8295507,36.5939455 20.046987,35.8657182 L13.6855831,29.9460117 L8.21052632,29.9460117 C5.88511684,29.9460117 4,28.0999231 4,25.8226573 L4,21.6993029 C4,19.4220372 5.88511684,17.5759486 8.21052632,17.5759486 L13.7640169,17.5759486 L20.2516147,12.2807457 C22.0379331,10.8227456 24.6929602,11.0589198 26.181784,12.8082554 Z M36.6663821,11.2801182 C41.1690531,13.8462465 44,18.5634836 44,23.7609801 C44,28.9698737 41.1565825,33.6958959 36.6381484,36.2578919 C35.6319347,36.8284248 34.3439512,36.4921233 33.7613566,35.5067416 C33.1787621,34.5213599 33.5221733,33.2600421 34.5283869,32.6895092 C37.7595217,30.8574245 39.7894737,27.4834568 39.7894737,23.7609801 C39.7894737,20.0466285 37.7684491,16.6789737 34.5485472,14.8439114 C33.5436278,14.2711952 33.2030731,13.0091347 33.7878971,12.0250204 C34.3727211,11.0409061 35.6614627,10.707402 36.6663821,11.2801182 Z M22.9473684,15.448198 L15.8741927,21.2213519 C15.4958274,21.5301751 15.0188675,21.6993029 14.5263158,21.6993029 L8.21052632,21.6993029 L8.21052632,25.8226573 L14.5263158,25.8226573 C15.0660798,25.8226573 15.5852247,26.0256847 15.9765065,26.3897981 L22.9473684,32.8766456 L22.9473684,15.448198 Z M32.4353933,17.8557291 C34.3621112,18.9537898 35.5746274,20.9742185 35.5746274,23.1990657 C35.5746274,25.428798 34.3567783,27.4529758 32.4233017,28.5492757 C31.417088,29.1198086 30.1291046,28.7835072 29.5465101,27.7981255 C28.9916582,26.8596667 29.2767207,25.6709256 30.1743329,25.0669924 L30.3135404,24.9808929 C30.9597175,24.6145042 31.3641011,23.9423813 31.3641011,23.1990657 C31.3641011,22.5144173 31.0210626,21.8901434 30.461804,21.5095012 L30.3175581,21.4195224 C29.3126387,20.8468062 28.972084,19.5847457 29.556908,18.6006314 C30.141732,17.616517 31.4304737,17.283013 32.4353933,17.8557291 Z" id="Color" fill="#333333"></path>
    </g>
</svg>