<?xml version="1.0" encoding="UTF-8"?>
<svg width="48px" height="48px" viewBox="0 0 48 48" version="1.1" xmlns="http://www.w3.org/2000/svg" xmlns:xlink="http://www.w3.org/1999/xlink">
    <title>icon/volume mute</title>
    <g id="icon/volume-mute" stroke="none" stroke-width="1" fill="none" fill-rule="evenodd">
        <path d="M26.1607562,12.5022784 C26.7908623,13.252715 27.1359416,14.198701 27.1359416,15.1756111 L27.1359416,32.8244935 C27.1359416,35.1305621 25.2526118,37 22.9294068,37 C21.8509022,37 20.8135967,36.5888097 20.0317749,35.8513718 L13.6764014,29.8567929 L8.20653484,29.8567929 C5.8833298,29.8567929 4,27.987355 4,25.6812864 L4,21.5057799 C4,19.1997113 5.8833298,17.3302734 8.20653484,17.3302734 L13.7547608,17.3302734 L20.2362085,11.9680968 C22.0208335,10.491656 24.6733438,10.7308172 26.1607562,12.5022784 Z M22.9294068,15.1756111 L15.8629362,21.0217838 C15.4849297,21.3345129 15.0084219,21.5057799 14.5163371,21.5057799 L8.20653484,21.5057799 L8.20653484,25.6812864 L14.5163371,25.6812864 C15.0555894,25.6812864 15.5742421,25.8868817 15.9651531,26.2556004 L22.9294068,32.8244935 L22.9294068,15.1756111 Z M43.3460483,20.8942912 L40.627,23.593 L43.3460483,26.2927751 C45.3290277,28.2611279 42.3545585,31.2136568 40.3715789,29.2453042 L37.652,26.546 L34.9329786,29.2453042 C32.9499989,31.2136568 29.9755297,28.2611279 31.9585092,26.2927751 L34.677,23.593 L31.9585092,20.8942912 C29.9755297,18.9259385 32.9499989,15.9734095 34.9329786,17.9417621 L37.652,20.64 L40.3715789,17.9417621 C42.3545585,15.9734095 45.3290277,18.9259385 43.3460483,20.8942912 Z" id="Color" fill="#333333"></path>
    </g>
</svg>