<?xml version="1.0" encoding="UTF-8"?>
<svg width="48px" height="48px" viewBox="0 0 48 48" version="1.1" xmlns="http://www.w3.org/2000/svg" xmlns:xlink="http://www.w3.org/1999/xlink">
    <title>icon/wallet</title>
    <g id="icon/wallet" stroke="none" stroke-width="1" fill="none" fill-rule="evenodd">
        <path d="M38,6 C41.3137084,6 44,8.6862915 44,12 L44,36 C44,39.3137084 41.3137084,42 38,42 L10,42 C6.6862915,42 4,39.3137084 4,36 L4,12 C4,8.6862915 6.6862915,6 10,6 L38,6 Z M11.999,10 L10,10 C8.8954305,10 8,10.8954305 8,12 L8,36 C8,37.1045694 8.8954305,38 10,38 L11.999,38 L11.999,10 Z M38,10 L15.999,10 L15.999,38 L38,38 C39.1045694,38 40,37.1045694 40,36 L39.999,30 L36,30 C32.6862916,30 30,27.3137084 30,24 C30,20.6862916 32.6862916,18 36,18 L39.999,18 L40,12 C40,10.8954305 39.1045694,10 38,10 Z M40,22 L36,22 C34.8954306,22 34,22.8954306 34,24 C34,25.1045694 34.8954306,26 36,26 L40,26 L40,22 Z" id="Color" fill="#333333"></path>
    </g>
</svg>