<?xml version="1.0" encoding="UTF-8"?>
<svg width="48px" height="48px" viewBox="0 0 48 48" version="1.1" xmlns="http://www.w3.org/2000/svg" xmlns:xlink="http://www.w3.org/1999/xlink">
    <title>icon/write</title>
    <g id="icon/write" stroke="none" stroke-width="1" fill="none" fill-rule="evenodd">
        <path d="M21.998916,9.9414195 C23.1072667,9.9414195 24.0057627,10.8384004 24.0057627,11.944873 C24.0057627,13.0513456 23.1072667,13.9483189 21.998916,13.9483189 L9.76968147,13.9483113 C8.79987788,13.9483113 8.01369797,14.7331578 8.01369797,15.701314 L8.01369331,38.2401012 C8.01369331,39.2082596 8.79987531,39.9931082 9.76968147,39.9931082 L32.3467116,39.9931082 C33.3165179,39.9931082 34.1026999,39.2082596 34.1026999,38.2401012 L34.1026999,26.9707128 C34.1026999,25.8642402 35.0011956,24.9672668 36.1095465,24.9672668 C37.2178972,24.9672668 38.1163932,25.8642402 38.1163932,26.9707128 L38.1163932,38.2401012 C38.1163932,41.4212061 35.5332181,44 32.3467116,44 L9.76968147,44 C6.58317507,44 4,41.4212061 4,38.2401008 L4,15.7013136 C4,12.5202112 6.58317764,9.9414195 9.76968316,9.9414195 L21.998916,9.9414195 Z M37.7369347,4.58670741 L43.412297,10.2524524 C44.1949056,11.0337349 44.1960452,12.300093 43.4148438,13.0827779 L26.5635504,29.9660768 C26.2830704,30.2470849 25.9253296,30.4386304 25.5356763,30.516429 L18.4414733,31.9328653 C17.0374524,32.2131937 15.7995757,30.9774147 16.08038,29.575773 L17.4992206,22.4935917 C17.5766694,22.1070029 17.7666669,21.7518247 18.0454111,21.4725512 L34.8967043,4.58925214 C35.6798955,3.80457837 36.952335,3.80343728 37.7369347,4.58670741 Z M31.2421638,13.926 L21.3156152,23.8720884 L20.6058091,27.415105 L24.1509804,26.7072722 L34.0799727,16.759 L31.2421638,13.926 Z M36.3206454,8.83856322 L34.0749642,11.087 L36.9127731,13.92 L39.1583221,11.6714312 L36.3206454,8.83856322 Z" id="Color" fill="#333333"></path>
    </g>
</svg>